*
*
G04 PADS 9.5 Build Number: 522968 generated Gerber (RS-274-X) file*
G04 PC Version=2.1*
*
%IN "ELESMELL_V50_v1.pcb"*%
*
%MOIN*%
*
%FSLAX35Y35*%
*
*
*
*
G04 PC Standard Apertures*
*
*
G04 Thermal Relief Aperture macro.*
%AMTER*
1,1,$1,0,0*
1,0,$1-$2,0,0*
21,0,$3,$4,0,0,45*
21,0,$3,$4,0,0,135*
%
*
*
G04 Annular Aperture macro.*
%AMANN*
1,1,$1,0,0*
1,0,$2,0,0*
%
*
*
G04 Odd Aperture macro.*
%AMODD*
1,1,$1,0,0*
1,0,$1-0.005,0,0*
%
*
*
G04 PC Custom Aperture Macros*
*
*
*
*
*
*
G04 PC Aperture Table*
*
%ADD011C,0.01*%
%ADD012C,0.02*%
%ADD014C,0.06*%
%ADD022C,0.04*%
%ADD025C,0.03*%
%ADD026C,0.015*%
%ADD027C,0.006*%
%ADD038C,0.001*%
%ADD055C,0.07874*%
%ADD075C,0.025*%
%ADD096R,0.0315X0.0315*%
%ADD097R,0.055X0.055*%
%ADD098C,0.055*%
%ADD099R,0.03937X0.03937*%
%ADD102R,0.138X0.093*%
%ADD105R,0.04134X0.0689*%
%ADD113R,0.06299X0.06299*%
%ADD119C,0.04724*%
%ADD120C,0.035*%
%ADD121R,0.05X0.06*%
%ADD122O,0.08X0.024*%
%ADD123R,0.0315X0.03937*%
*
*
*
*
G04 PC Circuitry*
G04 Layer Name ELESMELL_V50_v1.pcb - circuitry*
%LPD*%
*
*
G04 PC Custom Flashes*
G04 Layer Name ELESMELL_V50_v1.pcb - flashes*
%LPD*%
*
*
G04 PC Circuitry*
G04 Layer Name ELESMELL_V50_v1.pcb - circuitry*
%LPD*%
*
G54D11*
G01X178703Y144650D02*
Y144350D01*
X183486*
X183650*
Y144450*
X183486Y144350D02*
X190250D01*
X193750Y147850*
Y169450*
X183650Y144350D02*
Y144450D01*
X178603Y138650D02*
X178703Y138750D01*
Y144350*
X235505Y47755D02*
G75*
G03X235505I-7406J0D01*
G01X240698Y71661D02*
G03X240698I-8586J0D01*
G01X36071Y123967D02*
G03X36071I-3862J0D01*
G01X26071Y121428D02*
G03X26071I-7405J0D01*
G01X45949Y106000D02*
G03X45949I-8587J0D01*
G01X87400Y33950D02*
G03X87400I-4250J0D01*
G01X281617Y103205D02*
G03X281138Y103850I-479J145D01*
G01X263350*
X262850Y104350D02*
G03X263350Y103850I500J0D01*
G01X262850Y104350D02*
Y179336D01*
G03X261850Y179339I-500J0*
G01X261323Y178077D02*
G03X261850Y179339I-1273J1273D01*
G01X261323Y178077D02*
X258988Y175743D01*
G03X258843Y175355I354J-354*
G01X256055Y178143D02*
G03X258843Y175355I-205J-2993D01*
G01X256055Y178143D02*
G03X256443Y178288I34J499D01*
G01X258104Y179949*
G03X258250Y180303I-354J354*
G01Y199897*
G03X257396Y200251I-500J0*
G01X250238Y193092*
G03X250322Y192318I354J-353*
G01X250623Y192076D02*
G03X250322Y192318I-1273J-1273D01*
G01X250623Y192076D02*
X251723Y190976D01*
X252250Y189703D02*
G03X251723Y190976I-1800J-0D01*
G01X252250Y189703D02*
Y179598D01*
X251723Y178325D02*
G03X252250Y179598I-1273J1273D01*
G01X251723Y178325D02*
X248275Y174877D01*
X247002Y174350D02*
G03X248275Y174877I0J1800D01*
G01X247002Y174350D02*
X235603D01*
G03X235249Y174204I-0J-500*
G01X223396Y162351*
G03X223250Y161997I354J-354*
G01Y126857*
G03X223864Y126371I500J0*
G01X224755Y126443D02*
G03X223864Y126371I-205J-2993D01*
G01X224755Y126443D02*
G03X225143Y126588I34J499D01*
G01X230704Y132149*
G03X230850Y132503I-354J354*
G01Y144748*
G03X230607Y145177I-500J0*
G01X234962Y148796D02*
G03X230607Y145177I-2812J-1046D01*
G01X234962Y148797D02*
G03X235804Y148639I468J174D01*
G01X240918Y147532D02*
G03X235804Y148639I-2868J-882D01*
G01X240918Y147532D02*
G03X241502Y147190I477J147D01*
G01X241822Y147225D02*
G03X241502Y147190I0J-1500D01*
G01X241822Y147225D02*
X244972D01*
X246006Y146812D02*
G03X244972Y147225I-1034J-1087D01*
G01X246006Y146812D02*
G03X246694I344J362D01*
G01X247728Y147225D02*
G03X246694Y146812I-0J-1500D01*
G01X247728Y147225D02*
X250878D01*
X252275Y146269D02*
G03X250878Y147225I-1397J-544D01*
G01X252275Y146269D02*
G03X252741Y145950I466J181D01*
G01X253012*
G03X253389Y146121I-0J500*
G01Y142179D02*
G03Y146121I2261J1971D01*
G01Y142179D02*
G03X253012Y142350I-377J-329D01*
G01X252741*
G03X252275Y142031I0J-500*
G01X250878Y141075D02*
G03X252275Y142031I-0J1500D01*
G01X250878Y141075D02*
X247728D01*
X246694Y141488D02*
G03X247728Y141075I1034J1087D01*
G01X246694Y141488D02*
G03X246006I-344J-362D01*
G01X245473Y141161D02*
G03X246006Y141488I-501J1414D01*
G01X245473Y141161D02*
G03X245184Y140484I167J-471D01*
G01X245361Y139976D02*
G03X245184Y140484I-2911J-726D01*
G01X245361Y139976D02*
G03X245493Y139743I485J121D01*
G01X254618Y130618*
X255350Y128850D02*
G03X254618Y130618I-2500J0D01*
G01X255350Y128850D02*
Y113250D01*
X254618Y111482D02*
G03X255350Y113250I-1768J1768D01*
G01X254618Y111482D02*
X248518Y105382D01*
X246750Y104650D02*
G03X248518Y105382I0J2500D01*
G01X246750Y104650D02*
X238653D01*
G03X238395Y104579I-0J-500*
G01X238287Y109783D02*
G03X238395Y104579I-1437J-2633D01*
G01X238287Y109783D02*
G03X239016Y110326I239J439D01*
G01X239979Y113211D02*
G03X239016Y110326I1971J-2261D01*
G01X239979Y113211D02*
G03X240150Y113588I-329J377D01*
G01Y127612*
G03X239979Y127989I-500J-0*
G01X243921D02*
G03X239979I-1971J2261D01*
G01X243921D02*
G03X243750Y127612I329J-377D01*
G01Y113588*
G03X243921Y113211I500J0*
G01X244871Y110264D02*
G03X243921Y113211I-2921J686D01*
G01X244871Y110264D02*
G03X245357Y109650I486J-114D01*
G01X245507*
G03X245861Y109796I0J500*
G01X250204Y114139*
G03X250350Y114493I-354J354*
G01Y127607*
G03X250204Y127961I-500J0*
G01X241957Y136207*
G03X241724Y136339I-354J-353*
G01X240350Y141393D02*
G03X241724Y136339I2100J-2143D01*
G01X240350Y141393D02*
G03X240456Y141956I-349J357D01*
G01X240401Y142096D02*
G03X240456Y141956I1421J479D01*
G01X240401Y142096D02*
G03X240063Y142417I-474J-160D01*
G01X239277Y142877D02*
G03X240063Y142417I1273J1273D01*
G01X239277Y142877D02*
X238643Y143512D01*
G03X238255Y143657I-354J-354*
G01X235393Y145257D02*
G03X238255Y143657I2657J1393D01*
G01X235393Y145257D02*
G03X234450Y145025I-443J-232D01*
G01Y131550*
X233923Y130277D02*
G03X234450Y131550I-1273J1273D01*
G01X233923Y130277D02*
X227688Y124043D01*
G03X227543Y123655I354J-354*
G01X223864Y120529D02*
G03X227543Y123655I686J2921D01*
G01X223864Y120529D02*
G03X223250Y120043I-114J-486D01*
G01Y102788*
G03X223421Y102411I500J0*
G01X219479D02*
G03X223421I1971J-2261D01*
G01X219479D02*
G03X219650Y102788I-329J377D01*
G01Y162950*
X220177Y164223D02*
G03X219650Y162950I1273J-1273D01*
G01X220177Y164223D02*
X227632Y171678D01*
G03X227532Y172463I-353J353*
G01X227194Y172693D02*
G03X227532Y172463I1856J2357D01*
G01X227194Y172693D02*
G03X226885Y172800I-309J-393D01*
G01X221389*
G03X221036Y172654I0J-500*
G01X219741Y171359*
X218150Y170700D02*
G03X219741Y171359I0J2250D01*
G01X218150Y170700D02*
X197169D01*
G03X196680Y170093I-0J-500*
G01X195893Y167350D02*
G03X196680Y170093I-2143J2100D01*
G01X195893Y167350D02*
G03X195750Y167001I357J-349D01*
G01X195750D02*
Y147850D01*
X195164Y146436D02*
G03X195750Y147850I-1414J1414D01*
G01X195164Y146436D02*
X191664Y142936D01*
X190250Y142350D02*
G03X191664Y142936I0J2000D01*
G01X190250Y142350D02*
X186099D01*
X186099D02*
G03X185750Y142207I0J-500D01*
G01X182081Y141793D02*
G03X185750Y142207I1569J2557D01*
G01X182081Y141793D02*
G03X181409Y141081I-262J-426D01*
G01X181678Y140225D02*
G03X181409Y141081I-1500J-0D01*
G01X181678Y140225D02*
Y137075D01*
X180178Y135575D02*
G03X181678Y137075I-0J1500D01*
G01X180178Y135575D02*
X177028D01*
X175994Y135988D02*
G03X177028Y135575I1034J1087D01*
G01X175994Y135988D02*
G03X175306I-344J-362D01*
G01X174272Y135575D02*
G03X175306Y135988I0J1500D01*
G01X174272Y135575D02*
X171122D01*
X169622Y137072D02*
G03X171122Y135575I1500J3D01*
G01X169622Y137072D02*
G03X168669Y137283I-500J-0D01*
G01X168521Y137005D02*
G03X168669Y137283I-2571J1545D01*
G01X168521Y137005D02*
G03X168450Y136747I429J-258D01*
G01Y130450*
G03X168950Y129950I500J0*
G01X176803*
X178571Y129218D02*
G03X176803Y129950I-1768J-1768D01*
G01X178571Y129218D02*
X179771Y128018D01*
X180503Y126250D02*
G03X179771Y128018I-2500J0D01*
G01X180503Y126250D02*
Y122728D01*
G03X180646Y122377I500J-0*
G01X181078Y121325D02*
G03X180646Y122377I-1500J-0D01*
G01X181078Y121325D02*
Y118175D01*
X180818Y117331D02*
G03X181078Y118175I-1240J844D01*
G01X180818Y117331D02*
G03Y116769I413J-281D01*
G01X181078Y115925D02*
G03X180818Y116769I-1500J-0D01*
G01X181078Y115925D02*
Y112775D01*
X180646Y111723D02*
G03X181078Y112775I-1068J1052D01*
G01X180646Y111723D02*
G03X180503Y111372I357J-351D01*
G01Y107250*
X179771Y105482D02*
G03X180503Y107250I-1768J1768D01*
G01X179771Y105482D02*
X177871Y103582D01*
X176103Y102850D02*
G03X177871Y103582I-0J2500D01*
G01X176103Y102850D02*
X157853D01*
G03X157595Y102779I-0J-500*
G01Y107921D02*
G03Y102779I-1545J-2571D01*
G01Y107921D02*
G03X157853Y107850I258J429D01*
G01X174860*
G03X175214Y107996I0J500*
G01X175356Y108139*
G03X175503Y108493I-353J354*
G01Y111282*
G03X174670Y111655I-500J0*
G01X173672Y111275D02*
G03X174670Y111655I0J1500D01*
G01X173672Y111275D02*
X170522D01*
X169125Y112231D02*
G03X170522Y111275I1397J544D01*
G01X169125Y112231D02*
G03X168659Y112550I-466J-181D01*
G01X157888*
G03X157511Y112379I0J-500*
G01X153385Y116700D02*
G03X157511Y112379I1865J-2350D01*
G01X153385Y116700D02*
G03X153399Y117471I-311J391D01*
G01X157611Y121721D02*
G03X153399Y117471I-2261J-1971D01*
G01X157611Y121721D02*
G03X157988Y121550I377J329D01*
G01X168659*
G03X169125Y121869I-0J500*
G01X170522Y122825D02*
G03X169125Y121869I0J-1500D01*
G01X170522Y122825D02*
X173672D01*
X174670Y122445D02*
G03X173672Y122825I-998J-1120D01*
G01X174670Y122445D02*
G03X175503Y122818I333J373D01*
G01Y124450*
G03X175003Y124950I-500J-0*
G01X165950*
X162550*
X156064*
G03X155890Y124919I-0J-500*
G01X154950Y124750D02*
G03X155890Y124919I0J2700D01*
G01X154950Y124750D02*
X153193D01*
G03X152839Y124604I-0J-500*
G01X150518Y122282*
X148750Y121550D02*
G03X150518Y122282I0J2500D01*
G01X148750Y121550D02*
X121150D01*
X119382Y122282D02*
G03X121150Y121550I1768J1768D01*
G01X119382Y122282D02*
X117082Y124582D01*
X116600Y125260D02*
G03X117082Y124582I2250J1090D01*
G01X116600Y125260D02*
G03X115650Y125042I-450J-218D01*
G01Y119250*
X114771Y117129D02*
G03X115650Y119250I-2121J2121D01*
G01X114771Y117129D02*
X113112Y115469D01*
G03X113524Y114619I354J-353*
G01X118550Y110163D02*
G03X113524Y114619I-4500J-13D01*
G01X118550Y110163D02*
G03Y110150I500J1D01*
Y110137I500J-14*
G01X115794Y106002D02*
G03X118550Y110137I-1744J4148D01*
G01X115794Y106002D02*
G03X115783Y105085I194J-461D01*
G01X116671Y104471D02*
G03X115783Y105085I-2121J-2121D01*
G01X116671Y104471D02*
X116680Y104463D01*
X117559Y102341D02*
G03X116680Y104463I-3000J0D01*
G01X117559Y102341D02*
Y81150D01*
X116680Y79029D02*
G03X117559Y81150I-2121J2121D01*
G01X116680Y79029D02*
X111472Y73821D01*
G03X111326Y73467I354J-354*
G01Y70905*
X109826Y69405D02*
G03X111326Y70905I-0J1500D01*
G01X109826Y69405D02*
X107973D01*
G03X107524Y68685I0J-500*
G01X107678Y68025D02*
G03X107524Y68685I-1500J-0D01*
G01X107678Y68025D02*
Y64875D01*
X107267Y63844D02*
G03X107678Y64875I-1089J1031D01*
G01X107267Y63844D02*
G03Y63156I363J-344D01*
G01X107678Y62125D02*
G03X107267Y63156I-1500J-0D01*
G01X107678Y62125D02*
Y58975D01*
X106178Y57475D02*
G03X107678Y58975I-0J1500D01*
G01X106178Y57475D02*
X103028D01*
X101994Y57888D02*
G03X103028Y57475I1034J1087D01*
G01X101994Y57888D02*
G03X101306I-344J-362D01*
G01X100272Y57475D02*
G03X101306Y57888I0J1500D01*
G01X100272Y57475D02*
X97122D01*
X95622Y58975D02*
G03X97122Y57475I1500J0D01*
G01X95622Y58975D02*
Y62125D01*
X95679Y62531D02*
G03X95622Y62125I1443J-406D01*
G01X95679Y62531D02*
G03X95697Y62667I-482J136D01*
G01Y62950*
G03X95197Y63450I-500J-0*
G01X92550*
X89830Y65185D02*
G03X92550Y63450I2720J1265D01*
G01X89830Y65185D02*
G03X89730Y65327I-453J-211D01*
G01X88951Y66106*
G03X88105Y65666I-353J-354*
G01X88150Y65150D02*
G03X88105Y65666I-3000J0D01*
G01X88150Y65150D02*
Y62350D01*
X87271Y60229D02*
G03X88150Y62350I-2121J2121D01*
G01X87271Y60229D02*
X86271Y59229D01*
X85179Y58532D02*
G03X86271Y59229I-1029J2818D01*
G01X85179Y58532D02*
G03X84850Y58062I171J-470D01*
G01Y56700*
X83350Y55200D02*
G03X84850Y56700I0J1500D01*
G01X83350Y55200D02*
X69550D01*
X68050Y56700D02*
G03X69550Y55200I1500J0D01*
G01X68050Y56700D02*
Y59570D01*
G03X67550Y60070I-500J-0*
G01X61769*
G03X61276Y59657I-0J-500*
G01X59800Y58420D02*
G03X61276Y59657I-0J1500D01*
G01X59800Y58420D02*
X54483D01*
G03X54130Y57567I0J-500*
G01X73350Y38346*
G03X73703Y38200I353J354*
G01X75900*
X77400Y36700D02*
G03X75900Y38200I-1500J0D01*
G01X77400Y36700D02*
Y31200D01*
X75900Y29700D02*
G03X77400Y31200I0J1500D01*
G01X75900Y29700D02*
X70400D01*
X68900Y31200D02*
G03X70400Y29700I1500J0D01*
G01X68900Y31200D02*
Y33397D01*
G03X68754Y33750I-500J-0*
G01X44352Y58152*
X43400Y60450D02*
G03X44352Y58152I3250J0D01*
G01X43400Y60450D02*
Y75050D01*
X44352Y77348D02*
G03X43400Y75050I2298J-2298D01*
G01X44352Y77348D02*
X46952Y79948D01*
X49250Y80900D02*
G03X46952Y79948I0J-3250D01*
G01X49250Y80900D02*
X51513D01*
G03X52009Y81345I-0J500*
G01X53500Y82680D02*
G03X52009Y81345I0J-1500D01*
G01X53500Y82680D02*
X53935D01*
G03X54337Y82883I0J500*
G01X54652Y83248D02*
G03X54337Y82883I2298J-2298D01*
G01X54652Y83248D02*
X55554Y84150D01*
G03X55700Y84503I-354J353*
G01Y93547*
G03X55516Y93935I-500J0*
G01X63529Y101082D02*
G03X55516Y93935I-4579J-2932D01*
G01X63529Y101082D02*
G03X64371I421J269D01*
G01X73529D02*
G03X64371I-4579J-2932D01*
G01X73529D02*
G03X74371I421J269D01*
G01Y95218D02*
G03Y101082I4579J2932D01*
G01Y95218D02*
G03X73529I-421J-269D01*
G01X64371D02*
G03X73529I4579J2932D01*
G01X64371D02*
G03X63529I-421J-269D01*
G01X62384Y93935D02*
G03X63529Y95218I-3434J4215D01*
G01X62384Y93935D02*
G03X62200Y93547I316J-388D01*
G01Y82950*
X61420Y80837D02*
G03X62200Y82950I-2470J2113D01*
G01X61420Y80837D02*
G03X61300Y80512I380J-325D01*
G01Y74881*
X59800Y73381D02*
G03X61300Y74881I-0J1500D01*
G01X59800Y73381D02*
X53500D01*
X52193Y74145D02*
G03X53500Y73381I1307J736D01*
G01X52193Y74145D02*
G03X51757Y74400I-436J-245D01*
G01X50803*
G03X50450Y74254I0J-500*
G01X50046Y73850*
G03X49900Y73497I354J-353*
G01Y62003*
G03X50046Y61650I500J0*
G01X51147Y60549*
G03X52000Y60903I353J354*
G01Y66219*
X53500Y67719D02*
G03X52000Y66219I0J-1500D01*
G01X53500Y67719D02*
X59800D01*
X61276Y66482D02*
G03X59800Y67719I-1476J-263D01*
G01X61276Y66482D02*
G03X61769Y66070I493J88D01*
G01X67633*
G03X68112Y66427I-0J500*
G01X69550Y67500D02*
G03X68112Y66427I0J-1500D01*
G01X69550Y67500D02*
X83118D01*
G03X83409Y67593I0J500*
G01X85666Y68105D02*
G03X83409Y67593I-516J-2955D01*
G01X85666Y68105D02*
G03X86106Y68951I86J493D01*
G01X84429Y70629*
Y74871D02*
G03Y70629I2121J-2121D01*
G01Y74871D02*
X86029Y76471D01*
X88150Y77350D02*
G03X86029Y76471I0J-3000D01*
G01X88150Y77350D02*
X92275D01*
G03X92775Y77836I0J500*
G01X93200Y78841D02*
G03X92775Y77836I1074J-1046D01*
G01X93200Y78841D02*
G03X93341Y79190I-359J349D01*
G01Y79410*
G03X93200Y79759I-500J0*
G01X92774Y80805D02*
G03X93200Y79759I1500J0D01*
G01X92774Y80805D02*
Y81650D01*
G03X92274Y82150I-500J-0*
G01X85350*
G03X84850Y81650I0J-500*
G01Y80500*
X83350Y79000D02*
G03X84850Y80500I0J1500D01*
G01X83350Y79000D02*
X69550D01*
X68050Y80500D02*
G03X69550Y79000I1500J0D01*
G01X68050Y80500D02*
Y89800D01*
X69550Y91300D02*
G03X68050Y89800I0J-1500D01*
G01X69550Y91300D02*
X83350D01*
X84850Y89800D02*
G03X83350Y91300I-1500J0D01*
G01X84850Y89800D02*
Y88650D01*
G03X85350Y88150I500J0*
G01X92517*
G03X92956Y88411I0J500*
G01X94274Y89195D02*
G03X92956Y88411I0J-1500D01*
G01X94274Y89195D02*
X98408D01*
X99908Y87695D02*
G03X98408Y89195I-1500J-0D01*
G01X99908Y87695D02*
Y80805D01*
X99483Y79759D02*
G03X99908Y80805I-1075J1046D01*
G01X99483Y79759D02*
G03X99341Y79410I358J-349D01*
G01Y79190*
G03X99483Y78841I500J-0*
G01X99908Y77795D02*
G03X99483Y78841I-1500J-0D01*
G01X99908Y77795D02*
Y70905D01*
X99755Y70245D02*
G03X99908Y70905I-1347J660D01*
G01X99755Y70245D02*
G03X100204Y69525I449J-220D01*
G01X100272*
X101306Y69112D02*
G03X100272Y69525I-1034J-1087D01*
G01X101306Y69112D02*
G03X101994I344J362D01*
G01X103028Y69525D02*
G03X101994Y69112I-0J-1500D01*
G01X103028Y69525D02*
X103896D01*
G03X104345Y70245I-0J500*
G01X104192Y70905D02*
G03X104345Y70245I1500J0D01*
G01X104192Y70905D02*
Y77795D01*
X104704Y78924D02*
G03X104192Y77795I988J-1129D01*
G01X104704Y78924D02*
G03Y79676I-329J376D01*
G01X104192Y80805D02*
G03X104704Y79676I1500J0D01*
G01X104192Y80805D02*
Y87695D01*
X104760Y88871D02*
G03X104192Y87695I932J-1176D01*
G01X104760Y88871D02*
G03X104950Y89263I-310J392D01*
G01Y89875*
G03X104450Y90375I-500J0*
G01X102328*
X101294Y90788D02*
G03X102328Y90375I1034J1087D01*
G01X101294Y90788D02*
G03X100606I-344J-362D01*
G01X99572Y90375D02*
G03X100606Y90788I0J1500D01*
G01X99572Y90375D02*
X96422D01*
X94922Y91875D02*
G03X96422Y90375I1500J0D01*
G01X94922Y91875D02*
Y95025D01*
X95093Y95719D02*
G03X94922Y95025I1329J-694D01*
G01X95093Y95719D02*
G03X94649Y96450I-444J231D01*
G01X92664*
X90551Y97320D02*
G03X92664Y96450I2113J2130D01*
G01X90551Y97320D02*
X79852Y107937D01*
X79465Y108408D02*
G03X79852Y107937I2500J1659D01*
G01X79465Y108408D02*
G03X79322Y108550I-416J-277D01*
G01X78848Y108933D02*
G03X79322Y108550I2114J2129D01*
G01X78848Y108933D02*
X76760Y111005D01*
G03X76408Y111150I-352J-355*
G01X64850*
Y117150D02*
G03Y111150I0J-3000D01*
G01Y117150D02*
X77350D01*
G03X77850Y117650I-0J500*
G01Y135947*
G03X76921Y136205I-500J0*
G01X72874Y135138D02*
G03X76921Y136205I1476J2612D01*
G01X72874Y135138D02*
G03X72628Y135203I-246J-435D01*
G01X64918*
G03X64545Y134370I-0J-500*
G01X64925Y133372D02*
G03X64545Y134370I-1500J0D01*
G01X64925Y133372D02*
Y130222D01*
X63425Y128722D02*
G03X64925Y130222I-0J1500D01*
G01X63425Y128722D02*
X60275D01*
X58981Y129464D02*
G03X60275Y128722I1294J758D01*
G01X58981Y129464D02*
G03X58119I-431J-253D01*
G01X56825Y128722D02*
G03X58119Y129464I-0J1500D01*
G01X56825Y128722D02*
X53675D01*
X52569Y129210D02*
G03X53675Y128722I1106J1012D01*
G01X52569Y129210D02*
G03X51831I-369J-338D01*
G01X50725Y128722D02*
G03X51831Y129210I-0J1500D01*
G01X50725Y128722D02*
X47575D01*
X46118Y129868D02*
G03X47575Y128722I1457J354D01*
G01X46118Y129868D02*
G03X45632Y130250I-486J-118D01*
G01X43388*
G03X43011Y130079I0J-500*
G01Y134021D02*
G03Y130079I-2261J-1971D01*
G01Y134021D02*
G03X43388Y133850I377J329D01*
G01X45831*
G03X46267Y134106I-0J500*
G01X46488Y134406D02*
G03X46267Y134106I1087J-1034D01*
G01X46488Y134406D02*
G03Y135094I-362J344D01*
G01X46075Y136128D02*
G03X46488Y135094I1500J-0D01*
G01X46075Y136128D02*
Y139278D01*
X47575Y140778D02*
G03X46075Y139278I0J-1500D01*
G01X47575Y140778D02*
X50725D01*
X51759Y140364D02*
G03X50725Y140778I-1034J-1086D01*
G01X51759Y140364D02*
G03X52539Y140972I345J362D01*
G01X52579Y143995D02*
G03X52539Y140972I2571J-1545D01*
G01X52579Y143995D02*
G03X52650Y144253I-429J258D01*
G01Y149247*
G03X52579Y149505I-500J0*
G01X57721D02*
G03X52579I-2571J1545D01*
G01X57721D02*
G03X57650Y149247I429J-258D01*
G01Y144253*
G03X57721Y143995I500J-0*
G01X57807Y141057D02*
G03X57721Y143995I-2657J1393D01*
G01X57807Y141057D02*
G03X57750Y140825I443J-232D01*
G01Y140703*
G03X58250Y140203I500J-0*
G01X58872*
G03X59223Y140346I0J500*
G01X60275Y140778D02*
G03X59223Y140346I0J-1500D01*
G01X60275Y140778D02*
X63425D01*
X64477Y140346D02*
G03X63425Y140778I-1052J-1068D01*
G01X64477Y140346D02*
G03X64828Y140203I351J357D01*
G01X72471*
G03X72739Y140281I-0J500*
G01X76921Y139295D02*
G03X72739Y140281I-2571J-1545D01*
G01X76921Y139295D02*
G03X77850Y139553I429J258D01*
G01Y139700*
G03X77704Y140054I-500J0*
G01X47129Y170629*
X46250Y172750D02*
G03X47129Y170629I3000J0D01*
G01X46250Y172750D02*
Y181550D01*
X52250D02*
G03X46250I-3000J0D01*
G01X52250D02*
Y174200D01*
G03X52396Y173846I500J-0*
G01X82971Y143271*
X83850Y141150D02*
G03X82971Y143271I-3000J0D01*
G01X83850Y141150D02*
Y117327D01*
G03X83866Y117201I500J-0*
G01X83962Y116450D02*
G03X83866Y117201I-3000J0D01*
G01X83962Y116450D02*
Y113515D01*
G03X84105Y113165I500J0*
G01X84934Y111489D02*
G03X84105Y113165I-2969J-427D01*
G01X84934Y111489D02*
G03X85077Y111205I495J71D01*
G01X93754Y102595*
G03X94106Y102450I352J355*
G01X98700*
G03X99054Y103304I0J500*
G01X98027Y104330*
G03X97885Y104430I-353J-353*
G01X96478Y105787D02*
G03X97885Y104430I2672J1363D01*
G01X96478Y105787D02*
G03X95834Y106019I-446J-227D01*
G01X95715Y114331D02*
G03X95834Y106019I-1665J-4181D01*
G01X95715Y114331D02*
G03X96400Y114795I185J464D01*
G01Y160350*
G03X95900Y160850I-500J-0*
G01X85950*
X85350Y160911D02*
G03X85950Y160850I600J2939D01*
G01X85350Y160911D02*
G03X84750Y160421I-100J-490D01*
G01Y159550*
X78750D02*
G03X84750I3000J0D01*
G01X78750D02*
Y181050D01*
X80096Y183553D02*
G03X78750Y181050I1654J-2503D01*
G01X80096Y183553D02*
G03X80174Y183616I-276J417D01*
G01X80895Y184338*
G03X80757Y185143I-353J354*
G01X79843Y185818D02*
G03X80757Y185143I2207J2032D01*
G01X79843Y185818D02*
G03X79475Y185979I-368J-339D01*
G01X68050*
X66777Y186506D02*
G03X68050Y185979I1273J1273D01*
G01X66777Y186506D02*
X65179Y188104D01*
G03X64826Y188250I-353J-354*
G01X62142*
X60921Y188878D02*
G03X62142Y188250I1221J873D01*
G01X60921Y188878D02*
G03X60279Y189028I-406J-291D01*
G01X59571Y188851D02*
G03X60279Y189028I0J1500D01*
G01X59571Y188851D02*
X56422D01*
X55093Y189655D02*
G03X56422Y188851I1329J696D01*
G01X55093Y189655D02*
G03X54207I-443J-232D01*
G01X52878Y188851D02*
G03X54207Y189655I0J1500D01*
G01X52878Y188851D02*
X49729D01*
X48259Y190050D02*
G03X49729Y188851I1470J301D01*
G01X48259Y190050D02*
G03X47769Y190450I-490J-100D01*
G01X45350*
X44077Y190977D02*
G03X45350Y190450I1273J1273D01*
G01X44077Y190977D02*
X43077Y191977D01*
X42550Y193250D02*
G03X43077Y191977I1800J0D01*
G01X42550Y193250D02*
Y193659D01*
G03X42231Y194125I-500J-0*
G01X41275Y195522D02*
G03X42231Y194125I1500J0D01*
G01X41275Y195522D02*
Y198672D01*
X41688Y199706D02*
G03X41275Y198672I1087J-1034D01*
G01X41688Y199706D02*
G03Y200394I-362J344D01*
G01X41275Y201428D02*
G03X41688Y200394I1500J-0D01*
G01X41275Y201428D02*
Y204578D01*
X42306Y206002D02*
G03X41275Y204578I469J-1424D01*
G01X42306Y206002D02*
G03X42650Y206477I-156J475D01*
G01Y206550*
X43177Y207823D02*
G03X42650Y206550I1273J-1273D01*
G01X43177Y207823D02*
X44604Y209249D01*
G03X44750Y209603I-354J354*
G01Y217677*
G03X44537Y218086I-500J0*
G01X43818Y223137D02*
G03X44537Y218086I2732J-2187D01*
G01X43818Y223138D02*
G03Y223762I-391J312D01*
G01X44537Y228814D02*
G03X43818Y223763I2013J-2864D01*
G01X44537Y228814D02*
G03X44750Y229223I-287J409D01*
G01Y234697*
G03X44604Y235051I-500J0*
G01X43624Y236030*
X43097Y237303D02*
G03X43624Y236030I1800J-0D01*
G01X43097Y237303D02*
Y238811D01*
G03X42779Y239277I-500J0*
G01X41822Y240675D02*
G03X42779Y239277I1500J0D01*
G01X41822Y240675D02*
Y242926D01*
G03X40960Y243271I-500J-0*
X8175Y187686I103690J-98621*
X8665Y187036I477J-150*
G01X9438Y186978D02*
G03X8665Y187036I-674J-3803D01*
G01X9438Y186978D02*
X13315Y186291D01*
X11967Y178685D02*
G03X13315Y186291I674J3803D01*
G01X11967Y178685D02*
X8090Y179372D01*
X6653Y179941D02*
G03X8090Y179372I2111J3234D01*
G01X6653Y179941D02*
G03X5895Y179644I-273J-419D01*
X2214Y158418I138755J-34994*
X2815Y157880I498J-49*
G01X4284Y157904D02*
G03X2815Y157880I-674J-3803D01*
G01X4284Y157904D02*
X8161Y157216D01*
X6812Y149611D02*
G03X8161Y157216I675J3803D01*
G01X6812Y149611D02*
X2936Y150298D01*
X2317Y150461D02*
G03X2936Y150298I1293J3640D01*
G01X2317Y150461D02*
G03X1650Y150009I-167J-471D01*
X124861Y2925I143000J-5359*
X125284Y3774I69J495*
G01X121854Y7204*
G03X121500Y7350I-354J-354*
G01X114450*
X112329Y8229D02*
G03X114450Y7350I2121J2121D01*
G01X112329Y8229D02*
X107036Y13521D01*
G03X106750Y13663I-353J-353*
G01X102901Y16119D02*
G03X106750Y13663I4579J2932D01*
G01X102901Y16119D02*
G03X102059I-421J-269D01*
G01Y21983D02*
G03Y16119I-4579J-2932D01*
G01Y21983D02*
G03X102901I421J269D01*
G01X106122Y24316D02*
G03X102901Y21983I1358J-5265D01*
G01X106122Y24316D02*
G03X106497Y24800I-125J484D01*
G01Y26733*
G03X106479Y26869I-500J0*
G01X106422Y27275D02*
G03X106479Y26869I1500J0D01*
G01X106422Y27275D02*
Y30425D01*
X106479Y30831D02*
G03X106422Y30425I1443J-406D01*
G01X106479Y30831D02*
G03X106497Y30967I-482J136D01*
G01Y33033*
G03X106479Y33169I-500J0*
G01X106422Y33575D02*
G03X106479Y33169I1500J0D01*
G01X106422Y33575D02*
Y36725D01*
X107922Y38225D02*
G03X106422Y36725I0J-1500D01*
G01X107922Y38225D02*
X111072D01*
X112106Y37812D02*
G03X111072Y38225I-1034J-1087D01*
G01X112106Y37812D02*
G03X112794I344J362D01*
G01X113828Y38225D02*
G03X112794Y37812I-0J-1500D01*
G01X113828Y38225D02*
X116978D01*
X118478Y36725D02*
G03X116978Y38225I-1500J-0D01*
G01X118478Y36725D02*
Y33575D01*
X117902Y32394D02*
G03X118478Y33575I-924J1181D01*
G01X117902Y32394D02*
G03Y31606I308J-394D01*
G01X118478Y30425D02*
G03X117902Y31606I-1500J-0D01*
G01X118478Y30425D02*
Y27275D01*
X116978Y25775D02*
G03X118478Y27275I-0J1500D01*
G01X116978Y25775D02*
X113828D01*
X113205Y25911D02*
G03X113828Y25775I623J1364D01*
G01X113205Y25911D02*
G03X112497Y25456I-208J-455D01*
G01Y22944*
G03X113375Y22616I500J-0*
G01X120102Y14288D02*
G03X113375Y22616I-2622J4763D01*
G01X120102Y14288D02*
G03X120343Y13350I241J-438D01*
G01X122950*
X125071Y12471D02*
G03X122950Y13350I-2121J-2121D01*
G01X125071Y12471D02*
X128344Y9199D01*
G03X129190Y9636I353J353*
G01X139129Y13482D02*
G03X129190Y9636I-4579J-2932D01*
G01X139129Y13482D02*
G03X139971I421J269D01*
G01X142395Y15542D02*
G03X139971Y13482I2155J-4992D01*
G01X142395Y15542D02*
G03X142697Y16001I-198J459D01*
G01Y19033*
G03X142679Y19169I-500J0*
G01X142622Y19575D02*
G03X142679Y19169I1500J0D01*
G01X142622Y19575D02*
Y22725D01*
X142679Y23131D02*
G03X142622Y22725I1443J-406D01*
G01X142679Y23131D02*
G03X142697Y23267I-482J136D01*
G01Y25333*
G03X142679Y25469I-500J0*
G01X142622Y25875D02*
G03X142679Y25469I1500J0D01*
G01X142622Y25875D02*
Y29025D01*
X142643Y29273D02*
G03X142622Y29025I1479J-248D01*
G01X142643Y29273D02*
G03X142650Y29356I-493J83D01*
G01Y32150*
X143529Y34271D02*
G03X142650Y32150I2121J-2121D01*
G01X143529Y34271D02*
X145004Y35746D01*
G03X145150Y36100I-354J354*
G01Y50097*
G03X144650Y50597I-500J0*
G01X138967*
G03X138831Y50579I-0J-500*
G01X138425Y50522D02*
G03X138831Y50579I-0J1500D01*
G01X138425Y50522D02*
X135275D01*
X134869Y50579D02*
G03X135275Y50522I406J1443D01*
G01X134869Y50579D02*
G03X134733Y50597I-136J-482D01*
G01X132167*
G03X132031Y50579I-0J-500*
G01X131625Y50522D02*
G03X132031Y50579I-0J1500D01*
G01X131625Y50522D02*
X128475D01*
X126975Y52022D02*
G03X128475Y50522I1500J0D01*
G01X126975Y52022D02*
Y55172D01*
X127388Y56206D02*
G03X126975Y55172I1087J-1034D01*
G01X127388Y56206D02*
G03Y56894I-362J344D01*
G01X126975Y57928D02*
G03X127388Y56894I1500J-0D01*
G01X126975Y57928D02*
Y61078D01*
X128475Y62578D02*
G03X126975Y61078I0J-1500D01*
G01X128475Y62578D02*
X131625D01*
X132994Y61691D02*
G03X131625Y62578I-1369J-613D01*
G01X132994Y61691D02*
G03X133906I456J204D01*
G01X135275Y62578D02*
G03X133906Y61691I0J-1500D01*
G01X135275Y62578D02*
X138425D01*
X139925Y61078D02*
G03X138425Y62578I-1500J-0D01*
G01X139925Y61078D02*
Y57928D01*
X139789Y57305D02*
G03X139925Y57928I-1364J623D01*
G01X139789Y57305D02*
G03X140244Y56597I455J-208D01*
G01X148103*
X148369Y56585D02*
G03X148103Y56597I-266J-2988D01*
G01X148369Y56585D02*
G03X148767Y57437I44J498D01*
G01X144552Y61652*
X143600Y63950D02*
G03X144552Y61652I3250J0D01*
G01X143600Y63950D02*
Y79497D01*
G03X143454Y79850I-500J-0*
G01X137050Y86254*
G03X136697Y86400I-353J-354*
G01X133919*
G03X133452Y85721I0J-500*
G01X130650Y81650D02*
G03X133452Y85721I0J3000D01*
G01X130650Y81650D02*
X129897D01*
X127776Y82529D02*
G03X129897Y81650I2121J2121D01*
G01X127776Y82529D02*
X127402Y82902D01*
G03X126968Y83042I-353J-353*
G01X126725Y83022D02*
G03X126968Y83042I-0J1500D01*
G01X126725Y83022D02*
X126515D01*
G03X126185Y82898I-0J-500*
G01X125443Y82418D02*
G03X126185Y82898I-1240J2732D01*
G01X125443Y82418D02*
G03X125150Y81963I207J-455D01*
G01Y69750*
X119150D02*
G03X125150I3000J0D01*
G01X119150D02*
Y84150D01*
X120029Y86271D02*
G03X119150Y84150I2121J-2121D01*
G01X120029Y86271D02*
X121029Y87271D01*
X121895Y87875D02*
G03X121029Y87271I1255J-2725D01*
G01X121895Y87875D02*
G03X122158Y88165I-209J454D01*
G01X122488Y88706D02*
G03X122158Y88165I1087J-1034D01*
G01X122488Y88706D02*
G03Y89394I-362J344D01*
G01X122075Y90428D02*
G03X122488Y89394I1500J-0D01*
G01X122075Y90428D02*
Y93578D01*
X123575Y95078D02*
G03X122075Y93578I0J-1500D01*
G01X123575Y95078D02*
X125472D01*
G03X125826Y95224I0J500*
G01X126924Y96323*
X128047Y96844D02*
G03X126924Y96323I150J-1794D01*
G01X128047Y96844D02*
G03X128383Y97015I-42J498D01*
G01X133296Y93636D02*
G03X128383Y97015I-2646J1414D01*
G01X133296Y93636D02*
G03X133737Y92900I441J-236D01*
G01X138250*
X140548Y91948D02*
G03X138250Y92900I-2298J-2298D01*
G01X140548Y91948D02*
X149148Y83348D01*
X150100Y81050D02*
G03X149148Y83348I-3250J0D01*
G01X150100Y81050D02*
Y78537D01*
G03X150836Y78096I500J-0*
G01X154511Y77421D02*
G03X150836Y78096I-2261J-1971D01*
G01X154511Y77421D02*
G03X154888Y77250I377J329D01*
G01X204350*
X205623Y76723D02*
G03X204350Y77250I-1273J-1273D01*
G01X205623Y76723D02*
X207749Y74596D01*
G03X208103Y74450I354J354*
G01X216312*
G03X216689Y74621I-0J500*
G01Y70679D02*
G03Y74621I2261J1971D01*
G01Y70679D02*
G03X216312Y70850I-377J-329D01*
G01X212679*
G03X212189Y70250I0J-500*
G01X212124Y68790D02*
G03X212189Y70250I-2874J860D01*
G01X212124Y68790D02*
G03X212624Y68147I479J-143D01*
G01X215094Y63277D02*
G03X212624Y68147I-2344J1873D01*
G01X215094Y63277D02*
G03X215594Y62477I390J-312D01*
G01X218221Y57289D02*
G03X215594Y62477I-1971J2261D01*
G01X218221Y57289D02*
G03X218050Y56912I329J-377D01*
G01Y24750*
X217396Y23362D02*
G03X218050Y24750I-1146J1388D01*
G01X217396Y23362D02*
X214211Y20731D01*
G03X214775Y19910I319J-385*
X263942Y65611I-70125J124740*
X263418Y66376I-417J276*
G01X258482Y72883D02*
G03X263418Y66376I3974J-2111D01*
G01X258482Y72883D02*
G03X258488Y72895I-441J235D01*
X258495Y72907I-433J249*
G01X264568Y74746D02*
G03X258495Y72907I-2112J-3974D01*
G01X264568Y74746D02*
G03X264580Y74740I234J441D01*
X264591Y74733I249J433*
G01X266832Y71820D02*
G03X264591Y74733I-4376J-1048D01*
G01X266832Y71820D02*
G03X267749Y71682I486J117D01*
X269495Y74713I-123099J72968*
X268871Y75420I-436J244*
G01X265063Y75615D02*
G03X268871Y75420I2112J3973D01*
G01X265063Y75615D02*
G03X265051Y75621I-234J-442D01*
X265040Y75627I-249J-434*
G01X263201Y81700D02*
G03X265040Y75627I3974J-2112D01*
G01X263201Y81700D02*
G03X263207Y81712I-441J235D01*
X263214Y81724I-434J249*
G01X269287Y83562D02*
G03X263214Y81724I-2112J-3974D01*
G01X269287Y83562D02*
G03X269298Y83556I234J442D01*
X269310Y83550I249J434*
G01X271578Y80518D02*
G03X269310Y83550I-4403J-930D01*
G01X271578Y80518D02*
G03X272514Y80397I489J103D01*
X274017Y83479I-127864J64253*
G01X274017D02*
G03X273397Y84164I-453J214D01*
G01X269782Y84431D02*
G03X273397Y84164I2112J3974D01*
G01X269782Y84431D02*
G03X269770Y84437I-235J-441D01*
X269759Y84444I-249J-433*
G01X267920Y90517D02*
G03X269759Y84444I3974J-2112D01*
G01X267920Y90517D02*
G03X267926Y90529I-442J235D01*
X267932Y90540I-434J248*
G01X276042Y90148D02*
G03X267932Y90540I-4148J-1743D01*
G01X276042Y90148D02*
G03X276966Y90151I461J193D01*
X281617Y103205I-132316J54499*
G01X248650Y180550D02*
Y181323D01*
G03X248144Y181823I-500J-0*
G01X248125Y181822D02*
G03X248144Y181823I-0J1500D01*
G01X248125Y181822D02*
X244975D01*
X243963Y182215D02*
G03X244975Y181822I1012J1107D01*
G01X243963Y182215D02*
G03X243209Y182122I-337J-369D01*
G01X241959Y181450D02*
G03X243209Y182122I-0J1501D01*
G01X241959Y181450D02*
X238022D01*
X236693Y182254D02*
G03X238022Y181450I1329J697D01*
G01X236693Y182254D02*
G03X235807I-443J-232D01*
G01X235367Y181742D02*
G03X235807Y182254I-888J1209D01*
G01X235367Y181742D02*
G03X235204Y181140I296J-403D01*
G01X235161Y178664D02*
G03X235204Y181140I-2711J1286D01*
G01X235161Y178664D02*
G03X235612Y177950I451J-214D01*
G01X246050*
G03X246403Y178096I-0J500*
G01X248504Y180197*
G03X248650Y180550I-354J353*
G01X226871Y181636D02*
G03X226592Y182551I-279J415D01*
G01X224622*
X223293Y183355D02*
G03X224622Y182551I1329J696D01*
G01X223293Y183355D02*
G03X222407I-443J-232D01*
G01X221078Y182551D02*
G03X222407Y183355I0J1500D01*
G01X221078Y182551D02*
X221072D01*
G03X220598Y181894I0J-500*
G01Y180007D02*
G03Y181894I-2848J943D01*
G01Y180007D02*
G03X221073Y179350I475J-157D01*
G01X225121*
G03X225611Y179750I-0J500*
G01X226871Y181636D02*
G03X225611Y179750I1679J-2486D01*
G01X248831Y196777D02*
G03X248674Y197590I-353J353D01*
G01X246857Y200555D02*
G03X248674Y197590I2993J-205D01*
G01X246857Y200555D02*
G03X246712Y200943I-499J34D01*
G01X243577Y204077*
X243050Y205350D02*
G03X243577Y204077I1800J0D01*
G01X243050Y205350D02*
Y207877D01*
G03X242837Y208286I-500J0*
G01X242663Y208418D02*
G03X242837Y208286I2187J2732D01*
G01X242662Y208418D02*
G03X242038I-312J-391D01*
G01X237663D02*
G03X242037I2187J2732D01*
G01X237662D02*
G03X237038I-312J-391D01*
G01X235511Y207713D02*
G03X237037Y208418I-661J3437D01*
G01X235511Y207713D02*
G03X235277Y206845I94J-491D01*
G01X235388Y206741D02*
G03X235277Y206845I-1591J-1591D01*
G01X235388Y206741D02*
X235788Y206341D01*
X236447Y204750D02*
G03X235788Y206341I-2250J0D01*
G01X236447Y204750D02*
Y203743D01*
G03X236653Y203339I500J0*
G01X236806Y203212D02*
G03X236653Y203339I-1034J-1087D01*
G01X236806Y203212D02*
G03X237494I344J362D01*
G01X238528Y203625D02*
G03X237494Y203212I-0J-1500D01*
G01X238528Y203625D02*
X241678D01*
X243178Y202125D02*
G03X241678Y203625I-1500J-0D01*
G01X243178Y202125D02*
Y198975D01*
X241678Y197475D02*
G03X243178Y198975I-0J1500D01*
G01X241678Y197475D02*
X239621D01*
G03X239271Y196619I0J-500*
G01X239719Y195550D02*
G03X239271Y196619I-1500J-0D01*
G01X239719Y195550D02*
Y191613D01*
X238219Y190112D02*
G03X239719Y191613I-0J1501D01*
G01X238219Y190112D02*
X234282D01*
X232781Y191613D02*
G03X234282Y190112I1501J-0D01*
G01X232781Y191613D02*
Y195077D01*
G03X232635Y195430I-500J-0*
G01X232606Y195459*
X231947Y197050D02*
G03X232606Y195459I2250J0D01*
G01X231947Y197050D02*
Y197357D01*
G03X231741Y197761I-500J-0*
G01X231122Y198975D02*
G03X231741Y197761I1500J0D01*
G01X231122Y198975D02*
Y202125D01*
X231137Y202331D02*
G03X231122Y202125I1485J-206D01*
G01X231137Y202331D02*
G03X230641Y202900I-496J69D01*
G01X229559*
G03X229063Y202331I-0J-500*
G01X229078Y202125D02*
G03X229063Y202331I-1500J-0D01*
G01X229078Y202125D02*
Y198975D01*
X228864Y198204D02*
G03X229078Y198975I-1286J771D01*
G01X228864Y198204D02*
G03X228913Y197623I429J-257D01*
G01X229271Y196649D02*
G03X228913Y197623I-1500J0D01*
G01X229271Y196649D02*
Y192712D01*
X227771Y191212D02*
G03X229271Y192712I0J1500D01*
G01X227771Y191212D02*
X224622D01*
X223293Y192016D02*
G03X224622Y191212I1329J696D01*
G01X223293Y192016D02*
G03X222407I-443J-232D01*
G01X221078Y191212D02*
G03X222407Y192016I0J1500D01*
G01X221078Y191212D02*
X217929D01*
X216429Y192712D02*
G03X217929Y191212I1500J0D01*
G01X216429Y192712D02*
Y196649D01*
X216989Y197818D02*
G03X216429Y196649I940J-1169D01*
G01X216989Y197818D02*
G03X217137Y198400I-314J390D01*
G01X217022Y198975D02*
G03X217137Y198400I1500J0D01*
G01X217022Y198975D02*
Y202125D01*
X217641Y203339D02*
G03X217022Y202125I881J-1214D01*
G01X217641Y203339D02*
G03X217847Y203743I-294J404D01*
G01Y205200*
G03X217347Y205700I-500J-0*
G01X214650*
X212635Y206949D02*
G03X214650Y205700I2015J1001D01*
G01X212635Y206949D02*
G03X212439Y207158I-448J-223D01*
G01X211102Y210693D02*
G03X212439Y207158I2848J-943D01*
G01X211102Y210693D02*
G03X210627Y211350I-475J157D01*
G01X210003*
G03X209649Y211204I-0J-500*
G01X209096Y210651*
G03X208950Y210297I354J-354*
G01Y206903*
G03X209096Y206549I500J-0*
G01X213423Y202223*
X213742Y201791D02*
G03X213423Y202223I-1592J-841D01*
G01X213742Y201791D02*
G03X214069Y201538I442J233D01*
G01X215225Y200078D02*
G03X214069Y201538I-1500J-0D01*
G01X215225Y200078D02*
Y196928D01*
X214812Y195894D02*
G03X215225Y196928I-1087J1034D01*
G01X214812Y195894D02*
G03Y195206I362J-344D01*
G01X215225Y194172D02*
G03X214812Y195206I-1500J0D01*
G01X215225Y194172D02*
Y191022D01*
X214627Y189824D02*
G03X215225Y191022I-902J1198D01*
G01X214627Y189824D02*
G03X214574Y189071I301J-399D01*
G01X215449Y188196*
G03X215803Y188050I354J354*
G01X216009*
G03X216489Y188409I0J500*
G01X217929Y189488D02*
G03X216489Y188409I-0J-1500D01*
G01X217929Y189488D02*
X221078D01*
X222407Y188684D02*
G03X221078Y189488I-1329J-696D01*
G01X222407Y188684D02*
G03X223293I443J232D01*
G01X224622Y189488D02*
G03X223293Y188684I-0J-1500D01*
G01X224622Y189488D02*
X227771D01*
X229179Y188505D02*
G03X227771Y189488I-1408J-517D01*
G01X229179Y188505D02*
G03X229872Y188230I470J172D01*
G01X230542Y188388D02*
G03X229872Y188230I-0J-1500D01*
G01X230542Y188388D02*
X234479D01*
X235807Y187584D02*
G03X234479Y188388I-1328J-696D01*
G01X235807Y187584D02*
G03X236693I443J232D01*
G01X238022Y188388D02*
G03X236693Y187584I-0J-1500D01*
G01X238022Y188388D02*
X241959D01*
X242816Y188119D02*
G03X241959Y188388I-857J-1231D01*
G01X242816Y188119D02*
G03X243570Y188704I285J410D01*
G01X243475Y189228D02*
G03X243570Y188704I1500J-0D01*
G01X243475Y189228D02*
Y192378D01*
X244975Y193878D02*
G03X243475Y192378I0J-1500D01*
G01X244975Y193878D02*
X245725D01*
G03X246078Y194024I-0J500*
G01X248831Y196777*
X243922Y234225D02*
G03X244276Y235078I0J500D01*
G01X226151Y253204*
G03X225797Y253350I-354J-354*
G01X203453*
G03X203359Y252359I-0J-500*
G01X199802Y235561D02*
G03X203359Y252359I1935J8366D01*
G01X199802Y235561D02*
G03X199203Y234960I-112J-487D01*
G01X199250Y234550D02*
G03X199203Y234960I-1800J0D01*
G01X199250Y234550D02*
Y185903D01*
G03X199396Y185549I500J-0*
G01X199969Y184977*
G03X200822Y185330I353J353*
G01Y187625*
X202322Y189125D02*
G03X200822Y187625I0J-1500D01*
G01X202322Y189125D02*
X205472D01*
X206506Y188712D02*
G03X205472Y189125I-1034J-1087D01*
G01X206506Y188712D02*
G03X207194I344J362D01*
G01X208228Y189125D02*
G03X207194Y188712I-0J-1500D01*
G01X208228Y189125D02*
X209145D01*
G03X209502Y189974I-0J500*
G01X209075Y191022D02*
G03X209502Y189974I1500J0D01*
G01X209075Y191022D02*
Y194172D01*
X209488Y195206D02*
G03X209075Y194172I1087J-1034D01*
G01X209488Y195206D02*
G03Y195894I-362J344D01*
G01X209075Y196928D02*
G03X209488Y195894I1500J-0D01*
G01X209075Y196928D02*
Y200078D01*
X209256Y200792D02*
G03X209075Y200078I1319J-714D01*
G01X209256Y200792D02*
G03X209170Y201384I-439J238D01*
G01X205877Y204677*
X205350Y205950D02*
G03X205877Y204677I1800J0D01*
G01X205350Y205950D02*
Y211250D01*
X205877Y212523D02*
G03X205350Y211250I1273J-1273D01*
G01X205877Y212523D02*
X207777Y214423D01*
X209050Y214950D02*
G03X207777Y214423I0J-1800D01*
G01X209050Y214950D02*
X218350D01*
X219623Y214423D02*
G03X218350Y214950I-1273J-1273D01*
G01X219623Y214423D02*
X220949Y213096D01*
G03X221303Y212950I354J354*
G01X226577*
G03X226986Y213163I0J500*
G01X227118Y213337D02*
G03X226986Y213163I2732J-2187D01*
G01X227118Y213338D02*
G03Y213962I-391J312D01*
G01X226420Y216844D02*
G03X227118Y213963I3430J-694D01*
G01X226420Y216844D02*
G03X226283Y217297I-490J100D01*
G01X223224Y220356*
X222697Y221615D02*
G03X223224Y220356I1800J14D01*
G01X222697Y221615D02*
G03X222379Y222077I-500J-4D01*
G01X221422Y223475D02*
G03X222379Y222077I1500J0D01*
G01X221422Y223475D02*
Y226625D01*
X221424Y226683D02*
G03X221422Y226625I1498J-58D01*
G01X221424Y226683D02*
G03X220568Y227053I-500J19D01*
G01X217072Y223511*
G03X216931Y223215I356J-352*
G01X213576Y226527D02*
G03X216931Y223215I374J-2977D01*
G01X213576Y226527D02*
G03X213869Y226671I-63J496D01*
G01X219848Y232730*
X221450Y233400D02*
G03X219848Y232730I0J-2250D01*
G01X221450Y233400D02*
X234304D01*
G03X234709Y233606I0J500*
G01X235922Y234225D02*
G03X234709Y233606I0J-1500D01*
G01X235922Y234225D02*
X239072D01*
X240106Y233812D02*
G03X239072Y234225I-1034J-1087D01*
G01X240106Y233812D02*
G03X240794I344J362D01*
G01X241828Y234225D02*
G03X240794Y233812I-0J-1500D01*
G01X241828Y234225D02*
X243922D01*
X228126Y259760D02*
G03X228424Y260665I5J500D01*
X156906Y287224I-83774J-116015*
X156510Y286372I-43J-498*
G01X163136Y279746*
G03X163489Y279600I353J354*
G01X165556*
G03X165927Y279764I0J500*
G01X166842Y275050D02*
G03X165927Y279764I1308J2700D01*
G01X166842Y275050D02*
G03X166624Y275100I-218J-450D01*
G01X162350*
X160759Y275759D02*
G03X162350Y275100I1591J1591D01*
G01X160759Y275759D02*
X151864Y284654D01*
G03X151511Y284800I-353J-354*
G01X148878*
G03X148378Y284300I-0J-500*
G01Y281275*
X147752Y280056D02*
G03X148378Y281275I-874J1219D01*
G01X147752Y280056D02*
G03Y279244I291J-406D01*
G01X148378Y278025D02*
G03X147752Y279244I-1500J-0D01*
G01X148378Y278025D02*
Y274875D01*
X146878Y273375D02*
G03X148378Y274875I-0J1500D01*
G01X146878Y273375D02*
X143728D01*
X142694Y273788D02*
G03X143728Y273375I1034J1087D01*
G01X142694Y273788D02*
G03X142006I-344J-362D01*
G01X141853Y273661D02*
G03X142006Y273788I-881J1214D01*
G01X141853Y273661D02*
G03X141647Y273257I294J-404D01*
G01Y270953*
G03X142410Y270527I500J-0*
G01X146437Y270282D02*
G03X142410Y270527I-2187J-2732D01*
G01X146438Y270282D02*
G03X147062I312J391D01*
G01X151437D02*
G03X147063I-2187J-2732D01*
G01X151438D02*
G03X152062I312J391D01*
G01X156982Y265363D02*
G03X152063Y270282I-2732J2187D01*
G01X156982Y265362D02*
G03Y264738I391J-312D01*
G01X157114Y264563D02*
G03X156982Y264737I-2864J-2013D01*
G01X157114Y264563D02*
G03X157523Y264350I409J287D01*
G01X168600*
G03X169065Y265036I0J500*
G01X169879Y268411D02*
G03X169065Y265036I1971J-2261D01*
G01X169879Y268411D02*
G03X170050Y268788I-329J377D01*
G01Y271950*
X170577Y273223D02*
G03X170050Y271950I1273J-1273D01*
G01X170577Y273223D02*
X174277Y276923D01*
X175550Y277450D02*
G03X174277Y276923I0J-1800D01*
G01X175550Y277450D02*
X178812D01*
G03X179189Y277621I-0J500*
G01X183561Y273519D02*
G03X179189Y277621I-2111J2131D01*
G01X183561Y273519D02*
G03X184120Y272708I352J-356D01*
G01X192312Y260623D02*
G03X184120Y272708I-5127J5344D01*
G01X192312Y260623D02*
G03X192658Y259762I346J-361D01*
G01X227950*
X227970D02*
G03X227950I-20J-1800D01*
G01X227970D02*
X228126Y259760D01*
X61204Y245006D02*
G03Y245794I-308J394D01*
G01X61094Y245888D02*
G03X61204Y245794I1034J1087D01*
G01X61094Y245888D02*
G03X60406I-344J-362D01*
G01X60296Y245794D02*
G03X60406Y245888I-924J1181D01*
G01X60296Y245794D02*
G03Y245006I308J-394D01*
G01X60406Y244912D02*
G03X60296Y245006I-1034J-1087D01*
G01X60406Y244912D02*
G03X61094I344J362D01*
G01X61204Y245006D02*
G03X61094Y244912I924J-1181D01*
G01X55600Y238289D02*
Y239020D01*
G03X55381Y239434I-500J-0*
G01X55009Y239794D02*
G03X55381Y239434I1213J881D01*
G01X55009Y239794D02*
G03X54604Y240000I-405J-294D01*
G01X53996*
G03X53591Y239794I-0J-500*
G01X52378Y239175D02*
G03X53591Y239794I-0J1500D01*
G01X52378Y239175D02*
X49228D01*
X48194Y239588D02*
G03X49228Y239175I1034J1087D01*
G01X48194Y239588D02*
G03X47506I-344J-362D01*
G01X47016Y239277D02*
G03X47506Y239588I-544J1398D01*
G01X47016Y239277D02*
G03X46697Y238811I181J-466D01*
G01Y238255*
G03X46844Y237902I500J0*
G01X47823Y236923*
X48350Y235650D02*
G03X47823Y236923I-1800J0D01*
G01X48350Y235650D02*
Y229223D01*
G03X48563Y228814I500J-0*
G01X48737Y228682D02*
G03X48563Y228814I-2187J-2732D01*
G01X48738Y228682D02*
G03X49362I312J391D01*
G01X53519Y228844D02*
G03X49363Y228682I-1969J-2894D01*
G01X53519Y228844D02*
G03X54300Y229257I281J413D01*
G01Y235850*
X54959Y237441D02*
G03X54300Y235850I1591J-1591D01*
G01X54959Y237441D02*
X55454Y237936D01*
G03X55600Y238289I-354J353*
G01X48229Y199536D02*
Y200564D01*
G03X47278Y200780I-500J0*
G01X47012Y200394D02*
G03X47278Y200780I-1087J1034D01*
G01X47012Y200394D02*
G03Y199706I362J-344D01*
G01X47278Y199320D02*
G03X47012Y199706I-1353J-648D01*
G01X47278Y199320D02*
G03X48229Y199536I451J216D01*
G01X71026Y214672D02*
G03X71108Y215446I-271J420D01*
G01X71051Y215504*
G03X70697Y215650I-354J-354*
G01X70050*
X68777Y216177D02*
G03X70050Y215650I1273J1273D01*
G01X68777Y216177D02*
X67591Y217363D01*
G03X67152Y217502I-353J-353*
G01X64363Y218218D02*
G03X67152Y217502I2187J2732D01*
G01X64362Y218218D02*
G03X63738I-312J-391D01*
G01X59363D02*
G03X63737I2187J2732D01*
G01X59362D02*
G03X58738I-312J-391D01*
G01X54363D02*
G03X58737I2187J2732D01*
G01X54362D02*
G03X53738I-312J-391D01*
G01X49363D02*
G03X53737I2187J2732D01*
G01X49362D02*
G03X48738I-312J-391D01*
G01X48563Y218086D02*
G03X48737Y218218I-2013J2864D01*
G01X48563Y218086D02*
G03X48350Y217677I287J-409D01*
G01Y214077*
G03X49236Y213759I500J0*
G01X51867Y214833D02*
G03X49236Y213759I-317J-2983D01*
G01X51867Y214833D02*
G03X52171Y214898I53J497D01*
G01X53297Y215200D02*
G03X52171Y214898I0J-2250D01*
G01X53297Y215200D02*
X63650D01*
X65241Y214541D02*
G03X63650Y215200I-1591J-1591D01*
G01X65241Y214541D02*
X66188Y213594D01*
X66847Y212003D02*
G03X66188Y213594I-2250J-0D01*
G01X66847Y212003D02*
Y210343D01*
G03X67053Y209939I500J0*
G01X67206Y209812D02*
G03X67053Y209939I-1034J-1087D01*
G01X67206Y209812D02*
G03X67894I344J362D01*
G01X68928Y210225D02*
G03X67894Y209812I-0J-1500D01*
G01X68928Y210225D02*
X69453D01*
G03X69910Y210928I0J500*
G01X71026Y214672D02*
G03X69910Y210928I1624J-2522D01*
G01X80355Y190325D02*
G03X80011Y191234I-283J413D01*
G01X79825Y191222D02*
G03X80011Y191234I-0J1500D01*
G01X79825Y191222D02*
X76675D01*
X75838Y191478D02*
G03X76675Y191222I837J1244D01*
G01X75838Y191478D02*
G03X75059Y191063I-279J-415D01*
G01Y190079*
G03X75559Y189579I500J0*
G01X79352*
G03X79737Y189761I-0J500*
G01X80355Y190325D02*
G03X79737Y189761I1695J-2475D01*
G01X76424Y206831D02*
G03X76474Y207581I-304J396D01*
G01X74643Y209411*
G03X74055Y209499I-353J-353*
G01X73863Y209406D02*
G03X74055Y209499I-1213J2744D01*
G01X73863Y209406D02*
G03X73568Y208893I202J-457D01*
G01X73578Y208725D02*
G03X73568Y208893I-1500J-0D01*
G01X73578Y208725D02*
Y205575D01*
X72078Y204075D02*
G03X73578Y205575I-0J1500D01*
G01X72078Y204075D02*
X71399D01*
G03X71004Y203269I-0J-500*
G01X71319Y202350D02*
G03X71004Y203269I-1500J-0D01*
G01X71319Y202350D02*
Y198413D01*
X69819Y196912D02*
G03X71319Y198413I-0J1501D01*
G01X69819Y196912D02*
X65882D01*
X64381Y198413D02*
G03X65882Y196912I1501J-0D01*
G01X64381Y198413D02*
Y199877D01*
G03X64235Y200230I-500J-0*
G01X63006Y201459*
X62347Y203050D02*
G03X63006Y201459I2250J0D01*
G01X62347Y203050D02*
Y203957D01*
G03X62141Y204361I-500J-0*
G01X61543Y205327D02*
G03X62141Y204361I1479J248D01*
G01X61543Y205327D02*
G03X60557I-493J-83D01*
G01X60360Y204797D02*
G03X60557Y205327I-1282J778D01*
G01X60360Y204797D02*
G03X60483Y204140I427J-260D01*
G01X61071Y202949D02*
G03X60483Y204140I-1500J0D01*
G01X61071Y202949D02*
Y199012D01*
X59571Y197512D02*
G03X61071Y199012I0J1500D01*
G01X59571Y197512D02*
X56422D01*
X55093Y198316D02*
G03X56422Y197512I1329J696D01*
G01X55093Y198316D02*
G03X54207I-443J-232D01*
G01X52878Y197512D02*
G03X54207Y198316I0J1500D01*
G01X52878Y197512D02*
X49729D01*
X48376Y198364D02*
G03X49729Y197512I1353J648D01*
G01X48376Y198364D02*
G03X47425Y198149I-451J-215D01*
G01Y195522*
X47360Y195087D02*
G03X47425Y195522I-1435J435D01*
G01X47360Y195087D02*
G03X47353Y195059I479J-145D01*
X47342Y195032I462J-191*
G01X47236Y194793D02*
G03X47342Y195032I-1311J729D01*
G01X47236Y194793D02*
G03X47673Y194050I437J-243D01*
G01X47746*
G03X48242Y194484I-0J500*
G01X48293Y194723D02*
G03X48242Y194484I1436J-435D01*
G01X48293Y194723D02*
G03X48301Y194751I-478J145D01*
X48311Y194779I-462J191*
G01X49729Y195788D02*
G03X48311Y194779I-0J-1500D01*
G01X49729Y195788D02*
X52878D01*
X54207Y194984D02*
G03X52878Y195788I-1329J-696D01*
G01X54207Y194984D02*
G03X55093I443J232D01*
G01X56422Y195788D02*
G03X55093Y194984I-0J-1500D01*
G01X56422Y195788D02*
X59571D01*
X60791Y195160D02*
G03X59571Y195788I-1220J-872D01*
G01X60791Y195160D02*
G03X61434Y195010I407J291D01*
G01X62142Y195188D02*
G03X61434Y195010I-0J-1500D01*
G01X62142Y195188D02*
X66079D01*
X67407Y194384D02*
G03X66079Y195188I-1328J-696D01*
G01X67407Y194384D02*
G03X68293I443J232D01*
G01X69622Y195188D02*
G03X68293Y194384I-0J-1500D01*
G01X69622Y195188D02*
X72306D01*
G03X72659Y195334I-0J500*
G01X72948Y195623*
X74221Y196150D02*
G03X72948Y195623I0J-1800D01*
G01X74221Y196150D02*
X74833D01*
G03X75293Y196456I-0J500*
G01X75588Y196906D02*
G03X75293Y196456I1087J-1034D01*
G01X75588Y196906D02*
G03Y197594I-362J344D01*
G01X75175Y198628D02*
G03X75588Y197594I1500J-0D01*
G01X75175Y198628D02*
Y201778D01*
X75475Y202677D02*
G03X75175Y201778I1200J-899D01*
G01X75475Y202677D02*
G03X75529Y203188I-400J300D01*
G01X76424Y206831D02*
G03X75529Y203188I1826J-2381D01*
G01X59155Y134370D02*
G03X58782Y135203I-373J333D01*
G01X58318*
G03X57945Y134370I-0J-500*
G01X58119Y134131D02*
G03X57945Y134370I-1294J-759D01*
G01X58119Y134131D02*
G03X58981I431J253D01*
G01X59155Y134370D02*
G03X58981Y134131I1120J-998D01*
G01X52588Y134406D02*
G03Y135094I-362J344D01*
G01X52569Y135115D02*
G03X52588Y135094I1106J1013D01*
G01X52569Y135115D02*
G03X51831I-369J-338D01*
G01X51812Y135094D02*
G03X51831Y135115I-1087J1034D01*
G01X51812Y135094D02*
G03Y134406I362J-344D01*
G01X51831Y134385D02*
G03X51812Y134406I-1106J-1013D01*
G01X51831Y134385D02*
G03X52569I369J338D01*
G01X52588Y134406D02*
G03X52569Y134385I1087J-1034D01*
G01X133456Y56597D02*
G03X133911Y57305I-0J500D01*
G01X133906Y57315D02*
G03X133911Y57305I1369J613D01*
G01X133906Y57315D02*
G03X132994I-456J-205D01*
G01X132989Y57305D02*
G03X132994Y57315I-1364J623D01*
G01X132989Y57305D02*
G03X133444Y56597I455J-208D01*
G01X133456*
X147500Y242640D02*
Y244304D01*
G03X147294Y244709I-500J0*
G01X146972Y245026D02*
G03X147294Y244709I1203J896D01*
G01X146972Y245026D02*
G03X146071Y244728I-401J-298D01*
G01Y243951*
X145755Y243029D02*
G03X146071Y243951I-1184J922D01*
G01X145755Y243029D02*
G03X145930Y242273I394J-307D01*
G01X146306Y242012D02*
G03X145930Y242273I-1034J-1087D01*
G01X146306Y242012D02*
G03X146994I344J362D01*
G01X147257Y242212D02*
G03X146994Y242012I771J-1287D01*
G01X147257Y242212D02*
G03X147500Y242640I-257J428D01*
G01X140939Y241846D02*
G03X140764Y242603I-395J307D01*
G01X140093Y243255D02*
G03X140764Y242603I1329J696D01*
G01X140093Y243255D02*
G03X139207I-443J-232D01*
G01X137878Y242451D02*
G03X139207Y243255I0J1500D01*
G01X137878Y242451D02*
X134729D01*
X133229Y243951D02*
G03X134729Y242451I1500J-0D01*
G01X133229Y243951D02*
Y244797D01*
G03X132729Y245297I-500J0*
G01X129789*
G03X129323Y244979I-0J-500*
G01X127925Y244022D02*
G03X129323Y244979I-0J1500D01*
G01X127925Y244022D02*
X124775D01*
X123275Y245522D02*
G03X124775Y244022I1500J0D01*
G01X123275Y245522D02*
Y248672D01*
X123688Y249706D02*
G03X123275Y248672I1087J-1034D01*
G01X123688Y249706D02*
G03Y250394I-362J344D01*
G01X123275Y251428D02*
G03X123688Y250394I1500J-0D01*
G01X123275Y251428D02*
Y254578D01*
X124231Y255975D02*
G03X123275Y254578I544J-1397D01*
G01X124231Y255975D02*
G03X124550Y256441I-181J466D01*
G01Y259250*
X125077Y260523D02*
G03X124550Y259250I1273J-1273D01*
G01X125077Y260523D02*
X125735Y261180D01*
G03X125865Y261661I-354J354*
G01X126518Y264737D02*
G03X125865Y261661I2732J-2187D01*
G01X126518Y264738D02*
G03Y265362I-391J312D01*
G01X125874Y268472D02*
G03X126518Y265363I3376J-922D01*
G01X125874Y268472D02*
G03X125745Y268957I-483J131D01*
G01X125224Y269477*
X124697Y270750D02*
G03X125224Y269477I1800J0D01*
G01X124697Y270750D02*
Y273011D01*
G03X124379Y273477I-500J0*
G01X123422Y274875D02*
G03X124379Y273477I1500J0D01*
G01X123422Y274875D02*
Y278025D01*
X124922Y279525D02*
G03X123422Y278025I0J-1500D01*
G01X124922Y279525D02*
X128072D01*
X129106Y279112D02*
G03X128072Y279525I-1034J-1087D01*
G01X129106Y279112D02*
G03X129794I344J362D01*
G01X130828Y279525D02*
G03X129794Y279112I-0J-1500D01*
G01X130828Y279525D02*
X133978D01*
X135191Y278906D02*
G03X133978Y279525I-1213J-881D01*
G01X135191Y278906D02*
G03X135596Y278700I405J294D01*
G01X136204*
G03X136609Y278906I0J500*
G01X136941Y279239D02*
G03X136609Y278906I881J-1214D01*
G01X136941Y279239D02*
G03X137147Y279643I-294J404D01*
G01Y279657*
G03X136941Y280061I-500J-0*
G01X136322Y281275D02*
G03X136941Y280061I1500J0D01*
G01X136322Y281275D02*
Y284425D01*
X136942Y285639D02*
G03X136322Y284425I880J-1214D01*
G01X136942Y285639D02*
G03X137149Y286027I-293J405D01*
G01X137331Y286840D02*
G03X137149Y286027I2066J-890D01*
G01X137331Y286840D02*
G03X136844Y287537I-460J198D01*
X43807Y246180I7806J-142887*
X44159Y245325I352J-355*
G01X46472*
X47506Y244912D02*
G03X46472Y245325I-1034J-1087D01*
G01X47506Y244912D02*
G03X48194I344J362D01*
G01X49228Y245325D02*
G03X48194Y244912I-0J-1500D01*
G01X49228Y245325D02*
X52378D01*
X53591Y244706D02*
G03X52378Y245325I-1213J-881D01*
G01X53591Y244706D02*
G03X53996Y244500I405J294D01*
G01X54604*
G03X55009Y244706I0J500*
G01X55298Y245006D02*
G03X55009Y244706I924J-1181D01*
G01X55298Y245006D02*
G03Y245794I-308J394D01*
G01X54722Y246975D02*
G03X55298Y245794I1500J0D01*
G01X54722Y246975D02*
Y250125D01*
X56222Y251625D02*
G03X54722Y250125I0J-1500D01*
G01X56222Y251625D02*
X59372D01*
X60406Y251212D02*
G03X59372Y251625I-1034J-1087D01*
G01X60406Y251212D02*
G03X61094I344J362D01*
G01X62128Y251625D02*
G03X61094Y251212I-0J-1500D01*
G01X62128Y251625D02*
X65278D01*
X66778Y250125D02*
G03X65278Y251625I-1500J-0D01*
G01X66778Y250125D02*
Y246975D01*
X66202Y245794D02*
G03X66778Y246975I-924J1181D01*
G01X66202Y245794D02*
G03Y245006I308J-394D01*
G01X66778Y243825D02*
G03X66202Y245006I-1500J-0D01*
G01X66778Y243825D02*
Y240675D01*
X65278Y239175D02*
G03X66778Y240675I-0J1500D01*
G01X65278Y239175D02*
X62128D01*
X61094Y239588D02*
G03X62128Y239175I1034J1087D01*
G01X61094Y239588D02*
G03X60406I-344J-362D01*
G01X60293Y239491D02*
G03X60406Y239588I-921J1184D01*
G01X60293Y239491D02*
G03X60100Y239097I307J-394D01*
G01Y237150*
X59441Y235559D02*
G03X60100Y237150I-1591J1591D01*
G01X59441Y235559D02*
X58946Y235064D01*
G03X58800Y234711I354J-353*
G01Y229257*
G03X59581Y228844I500J0*
G01X63737Y228682D02*
G03X59581Y228844I-2187J-2732D01*
G01X63738Y228682D02*
G03X64362I312J391D01*
G01X68737D02*
G03X64363I-2187J-2732D01*
G01X68738D02*
G03X69362I312J391D01*
G01X74282Y223763D02*
G03X69363Y228682I-2732J2187D01*
G01X74282Y223762D02*
G03Y223138I391J-312D01*
G01X74998Y220348D02*
G03X74282Y223137I-3448J602D01*
G01X74998Y220348D02*
G03X75137Y219909I492J-86D01*
G01X82802Y212244*
G03X83640Y212719I353J353*
G01X86755Y216443D02*
G03X83640Y212719I-205J-2993D01*
G01X86755Y216443D02*
G03X87143Y216588I34J499D01*
G01X90404Y219849*
G03X90550Y220203I-354J354*
G01Y242550*
G03X90350Y242950I-500J-0*
G01X94293Y243250D02*
G03X90350Y242950I-2143J2100D01*
G01X94293Y243250D02*
G03X94150Y242901I357J-349D01*
G01X94150D02*
Y219250D01*
X93623Y217977D02*
G03X94150Y219250I-1273J1273D01*
G01X93623Y217977D02*
X89688Y214043D01*
G03X89543Y213655I354J-354*
G01X88230Y210964D02*
G03X89543Y213655I-1680J2486D01*
G01X88230Y210964D02*
G03X88510Y210050I280J-414D01*
G01X123651*
G03X124151Y210564I0J500*
G01X125219Y212946D02*
G03X124151Y210564I1931J-2296D01*
G01X125219Y212946D02*
G03X125397Y213329I-322J383D01*
G01Y213811*
G03X125079Y214277I-500J0*
G01X124122Y215675D02*
G03X125079Y214277I1500J0D01*
G01X124122Y215675D02*
Y218825D01*
X124570Y219894D02*
G03X124122Y218825I1052J-1069D01*
G01X124570Y219894D02*
G03Y220606I-351J356D01*
G01X124122Y221675D02*
G03X124570Y220606I1500J0D01*
G01X124122Y221675D02*
Y224825D01*
X124652Y225969D02*
G03X124122Y224825I970J-1144D01*
G01X124652Y225969D02*
G03Y226731I-323J381D01*
G01X124122Y227875D02*
G03X124652Y226731I1500J0D01*
G01X124122Y227875D02*
Y231025D01*
X124499Y232019D02*
G03X124122Y231025I1123J-994D01*
G01X124499Y232019D02*
G03X124124Y232850I-375J331D01*
G01X120750*
X119477Y233377D02*
G03X120750Y232850I1273J1273D01*
G01X119477Y233377D02*
X115177Y237677D01*
X114650Y238950D02*
G03X115177Y237677I1800J0D01*
G01X114650Y238950D02*
Y248912D01*
G03X114479Y249289I-500J-0*
G01X118421D02*
G03X114479I-1971J2261D01*
G01X118421D02*
G03X118250Y248912I329J-377D01*
G01Y239903*
G03X118396Y239549I500J-0*
G01X121349Y236596*
G03X121703Y236450I354J354*
G01X140301*
G03X140756Y237156I-0J500*
G01X140622Y237775D02*
G03X140756Y237156I1500J0D01*
G01X140622Y237775D02*
Y240925D01*
X140939Y241846D02*
G03X140622Y240925I1183J-921D01*
G01X170221Y147341D02*
G03X170184Y148116I-334J373D01*
G01X169677Y148779D02*
G03X170184Y148116I1398J543D01*
G01X169677Y148779D02*
G03X169211Y149097I-466J-182D01*
G01X168521*
G03X168025Y148662I-0J-500*
G01X167621Y147505D02*
G03X168025Y148662I-2571J1545D01*
G01X167621Y147505D02*
G03X167550Y147247I429J-258D01*
G01Y143293*
G03X167696Y142939I500J-0*
G01X167718Y142918*
X168450Y141150D02*
G03X167718Y142918I-2500J0D01*
G01X168450Y141150D02*
Y140353D01*
G03X168521Y140095I500J-0*
G01X168669Y139817D02*
G03X168521Y140095I-2719J-1267D01*
G01X168669Y139817D02*
G03X169622Y140028I453J211D01*
G01Y140225*
X170109Y141331D02*
G03X169622Y140225I1013J-1106D01*
G01X170109Y141331D02*
G03X170134Y142043I-338J368D01*
G01X169722Y143075D02*
G03X170134Y142043I1500J0D01*
G01X169722Y143075D02*
Y146225D01*
X170221Y147341D02*
G03X169722Y146225I1001J-1116D01*
G01X163513Y151627D02*
G03X163734Y152207I-256J429D01*
G01X163650Y152750D02*
G03X163734Y152207I1800J0D01*
G01X163650Y152750D02*
Y154197D01*
G03X163504Y154551I-500J0*
G01X161777Y156277*
X161250Y157550D02*
G03X161777Y156277I1800J0D01*
G01X161250Y157550D02*
Y169000D01*
G03X160396Y169354I-500J0*
G01X157321Y166279*
X156400Y165650D02*
G03X157321Y166279I-1200J2750D01*
G01X156400Y165650D02*
G03X156342Y164764I200J-458D01*
G01X156635Y160341D02*
G03X156342Y164764I-1685J2109D01*
G01X156635Y160341D02*
G03Y159559I313J-391D01*
G01Y155341D02*
G03Y159559I-1685J2109D01*
G01Y155341D02*
G03Y154559I313J-391D01*
G01X157431Y151385D02*
G03X156635Y154559I-2481J1065D01*
G01X157431Y151385D02*
G03X157480Y150903I460J-197D01*
G01X159163Y148480*
G03X159413Y148291I410J285*
G01X158161Y142464D02*
G03X159413Y148291I289J2986D01*
G01X158161Y142464D02*
G03X157619Y142042I-48J-498D01*
G01X156635Y140341D02*
G03X157619Y142042I-1685J2109D01*
G01X156635Y140341D02*
G03Y139559I313J-391D01*
G01Y135341D02*
G03Y139559I-1685J2109D01*
G01Y135341D02*
G03Y134559I313J-391D01*
G01X157058Y130763D02*
G03X156635Y134559I-2108J1687D01*
G01X157058Y130763D02*
G03X157448Y129950I390J-313D01*
G01X162550*
X162950*
G03X163450Y130450I-0J500*
G01Y136747*
G03X163379Y137005I-500J0*
G01X163247Y139852D02*
G03X163379Y137005I2703J-1302D01*
G01X163247Y139852D02*
G03X163172Y140399I-450J217D01*
G01X162550Y142050D02*
G03X163172Y140399I2500J0D01*
G01X162550Y142050D02*
Y147247D01*
G03X162479Y147505I-500J0*
G01X163513Y151627D02*
G03X162479Y147505I1537J-2577D01*
G01X182746Y271895D02*
G03X182304Y272774I-299J400D01*
G01X179189Y273679D02*
G03X182304Y272774I2261J1971D01*
G01X179189Y273679D02*
G03X178812Y273850I-377J-329D01*
G01X176503*
G03X176149Y273704I-0J-500*
G01X173796Y271351*
G03X173650Y270997I354J-354*
G01Y268788*
G03X173821Y268411I500J0*
G01X174635Y265036D02*
G03X173821Y268411I-2785J1114D01*
G01X174635Y265036D02*
G03X175100Y264350I465J-186D01*
G01X178950*
X179274Y264321D02*
G03X178950Y264350I-324J-1771D01*
G01X179274Y264321D02*
G03X179859Y264885I90J491D01*
G01X182746Y271895D02*
G03X179859Y264885I4439J-5928D01*
G01X161315Y215331D02*
G03Y216069I-338J369D01*
G01X161294Y216088D02*
G03X161315Y216069I1034J1087D01*
G01X161294Y216088D02*
G03X160606I-344J-362D01*
G01X160585Y216069D02*
G03X160606Y216088I-1013J1106D01*
G01X160585Y216069D02*
G03Y215331I338J-369D01*
G01X160606Y215312D02*
G03X160585Y215331I-1034J-1087D01*
G01X160606Y215312D02*
G03X161294I344J362D01*
G01X161315Y215331D02*
G03X161294Y215312I1013J-1106D01*
G01X147665Y144559D02*
G03Y145341I-313J391D01*
G01X146655Y147619D02*
G03X147665Y145341I2695J-169D01*
G01X146655Y147619D02*
G03X146156Y148150I-499J31D01*
G01X142650*
X141377Y148677D02*
G03X142650Y148150I1273J1273D01*
G01X141377Y148677D02*
X136384Y153670D01*
G03X135549Y153181I-354J-353*
G01X134635Y150341D02*
G03X135549Y153181I-1685J2109D01*
G01X134635Y150341D02*
G03Y149559I313J-391D01*
G01Y145341D02*
G03Y149559I-1685J2109D01*
G01Y145341D02*
G03Y144559I313J-391D01*
G01Y140341D02*
G03Y144559I-1685J2109D01*
G01Y140341D02*
G03Y139559I313J-391D01*
G01Y135341D02*
G03Y139559I-1685J2109D01*
G01Y135341D02*
G03Y134559I313J-391D01*
G01Y130341D02*
G03Y134559I-1685J2109D01*
G01Y130341D02*
G03Y129559I313J-391D01*
G01X135629Y127113D02*
G03X134635Y129559I-2679J337D01*
G01X135629Y127113D02*
G03X136125Y126550I496J-63D01*
G01X146175*
G03X146671Y127113I0J500*
G01X147665Y129559D02*
G03X146671Y127113I1685J-2109D01*
G01X147665Y129559D02*
G03Y130341I-313J391D01*
G01Y134559D02*
G03Y130341I1685J-2109D01*
G01Y134559D02*
G03Y135341I-313J391D01*
G01Y139559D02*
G03Y135341I1685J-2109D01*
G01Y139559D02*
G03Y140341I-313J391D01*
G01Y144559D02*
G03Y140341I1685J-2109D01*
G01X125665Y129559D02*
G03Y130341I-313J391D01*
G01X125590Y130402D02*
G03X125665Y130341I1760J2048D01*
G01X125590Y130402D02*
G03X124891Y130355I-326J-379D01*
G01X121964Y129429D02*
G03X124891Y130355I686J2921D01*
G01X121964Y129429D02*
G03X121350Y128943I-114J-486D01*
G01Y127593*
G03X121496Y127239I500J-0*
G01X122039Y126696*
G03X122393Y126550I354J354*
G01X124175*
G03X124671Y127113I0J500*
G01X125665Y129559D02*
G03X124671Y127113I1685J-2109D01*
G01X154850Y183244D02*
Y189050D01*
G03X154350Y189550I-500J-0*
G01X149679*
G03X149189Y188950I0J-500*
G01X146126Y185353D02*
G03X149189Y188950I124J2997D01*
G01X146126Y185353D02*
G03X145752Y185207I-20J-500D01*
G01X145023Y184477*
X143750Y183950D02*
G03X145023Y184477I0J1800D01*
G01X143750Y183950D02*
X130088D01*
G03X129711Y183779I0J-500*
G01X126450Y188579D02*
G03X129711Y183779I1000J-2829D01*
G01X126450Y188579D02*
G03X126284Y189550I-166J471D01*
G01X125150*
X123877Y190077D02*
G03X125150Y189550I1273J1273D01*
G01X123877Y190077D02*
X111751Y202204D01*
G03X111397Y202350I-354J-354*
G01X82450*
X81956Y202419D02*
G03X82450Y202350I494J1731D01*
G01X81956Y202419D02*
G03X81320Y201898I-138J-481D01*
G01X81325Y201778D02*
G03X81320Y201898I-1500J-0D01*
G01X81325Y201778D02*
Y198628D01*
X80912Y197594D02*
G03X81325Y198628I-1087J1034D01*
G01X80912Y197594D02*
G03Y196906I362J-344D01*
G01X81325Y195872D02*
G03X80912Y196906I-1500J0D01*
G01X81325Y195872D02*
Y192722D01*
X80828Y191607D02*
G03X81325Y192722I-1003J1115D01*
G01X80828Y191607D02*
G03X81289Y190752I335J-371D01*
G01X84757Y189143D02*
G03X81289Y190752I-2707J-1293D01*
G01X84757Y189143D02*
G03X85562Y189005I451J215D01*
G01X85929Y189371*
X90171Y185129D02*
G03X85929Y189371I-2121J2121D01*
G01X90171Y185129D02*
X84896Y179854D01*
G03X84750Y179500I354J-354*
G01Y167279*
G03X85350Y166789I500J0*
G01X85950Y166850D02*
G03X85350Y166789I0J-3000D01*
G01X85950Y166850D02*
X97850D01*
X99971Y165971D02*
G03X97850Y166850I-2121J-2121D01*
G01X99971Y165971D02*
X101271Y164671D01*
X101936Y161437D02*
G03X101271Y164671I-2786J1113D01*
G01X101936Y161437D02*
G03X101900Y161251I464J-186D01*
G01Y114870*
G03X102565Y114398I500J-0*
G01X105597Y114376D02*
G03X102565Y114398I-1547J-4226D01*
G01X105597Y114376D02*
G03X106252Y114975I172J469D01*
G01X107029Y117871D02*
G03X106252Y114975I2121J-2121D01*
G01X107029Y117871D02*
X109504Y120346D01*
G03X109650Y120700I-354J354*
G01Y163050*
X110529Y165171D02*
G03X109650Y163050I2121J-2121D01*
G01X110529Y165171D02*
X115829Y170471D01*
X117950Y171350D02*
G03X115829Y170471I0J-3000D01*
G01X117950Y171350D02*
X139356D01*
G03X139855Y171879I-0J500*
G01X144706Y174407D02*
G03X139855Y171879I-1856J-2357D01*
G01X144706Y174407D02*
G03X145015Y174300I309J393D01*
G01X146634*
G03X147023Y174486I-0J500*
G01X151040Y179475*
G03X151150Y179783I-390J313*
G01X154321Y182745D02*
G03X151150Y179783I-171J-2995D01*
G01X154321Y182745D02*
G03X154850Y183244I29J499D01*
G01X179450Y221995D02*
Y227197D01*
G03X179304Y227551I-500J0*
G01X178947Y227907*
G03X178616Y228053I-353J-354*
G01X175965Y232164D02*
G03X178616Y228053I2785J-1114D01*
G01X175965Y232164D02*
G03X175500Y232850I-465J186D01*
G01X136176*
G03X135801Y232019I-0J-500*
G01X136075Y231569D02*
G03X135801Y232019I-1397J-544D01*
G01X136075Y231569D02*
G03X136541Y231250I466J181D01*
G01X147850*
X149123Y230723D02*
G03X147850Y231250I-1273J-1273D01*
G01X149123Y230723D02*
X149457Y230388D01*
G03X149845Y230243I354J354*
G01X147051Y227164D02*
G03X149845Y230243I2999J86D01*
G01X147051Y227164D02*
G03X146551Y227650I-500J-14D01*
G01X136541*
G03X136075Y227331I0J-500*
G01X135648Y226731D02*
G03X136075Y227331I-970J1144D01*
G01X135648Y226731D02*
G03Y225969I323J-381D01*
G01X136178Y224825D02*
G03X135648Y225969I-1500J-0D01*
G01X136178Y224825D02*
Y221675D01*
X135730Y220606D02*
G03X136178Y221675I-1052J1069D01*
G01X135730Y220606D02*
G03Y219894I351J-356D01*
G01X136178Y218825D02*
G03X135730Y219894I-1500J-0D01*
G01X136178Y218825D02*
Y215675D01*
X134678Y214175D02*
G03X136178Y215675I-0J1500D01*
G01X134678Y214175D02*
X131528D01*
X130494Y214588D02*
G03X131528Y214175I1034J1087D01*
G01X130494Y214588D02*
G03X129806I-344J-362D01*
G01X129316Y214277D02*
G03X129806Y214588I-544J1398D01*
G01X129316Y214277D02*
G03X128997Y213811I181J-466D01*
G01Y213246*
G03X129162Y212875I500J0*
G01X130149Y210564D02*
G03X129162Y212875I-2999J86D01*
G01X130149Y210564D02*
G03X130649Y210050I500J-14D01*
G01X151650*
X152923Y209523D02*
G03X151650Y210050I-1273J-1273D01*
G01X152923Y209523D02*
X155344Y207102D01*
G03X156197Y207455I353J353*
G01Y209211*
G03X155879Y209677I-500J0*
G01X154922Y211075D02*
G03X155879Y209677I1500J0D01*
G01X154922Y211075D02*
Y214225D01*
X155410Y215331D02*
G03X154922Y214225I1012J-1106D01*
G01X155410Y215331D02*
G03Y216069I-338J369D01*
G01X154922Y217175D02*
G03X155410Y216069I1500J0D01*
G01X154922Y217175D02*
Y220325D01*
X156422Y221825D02*
G03X154922Y220325I0J-1500D01*
G01X156422Y221825D02*
X159572D01*
X160606Y221412D02*
G03X159572Y221825I-1034J-1087D01*
G01X160606Y221412D02*
G03X161294I344J362D01*
G01X162328Y221825D02*
G03X161294Y221412I-0J-1500D01*
G01X162328Y221825D02*
X165478D01*
X166581Y221341D02*
G03X165478Y221825I-1103J-1016D01*
G01X166581Y221341D02*
G03X167305Y221329I368J339D01*
G01X168375Y221778D02*
G03X167305Y221329I0J-1500D01*
G01X168375Y221778D02*
X171525D01*
X172744Y221152D02*
G03X171525Y221778I-1219J-874D01*
G01X172744Y221152D02*
G03X173556I406J291D01*
G01X174775Y221778D02*
G03X173556Y221152I0J-1500D01*
G01X174775Y221778D02*
X177925D01*
X178694Y221566D02*
G03X177925Y221778I-769J-1288D01*
G01X178694Y221566D02*
G03X179450Y221995I256J429D01*
G01X193860Y25610D02*
G03X193677Y26575I-183J465D01*
G01X193328*
X192705Y26711D02*
G03X193328Y26575I623J1364D01*
G01X192705Y26711D02*
G03X191997Y26256I-208J-455D01*
G01Y25450*
G03X192780Y25037I500J-0*
G01X193860Y25610D02*
G03X192780Y25037I1990J-5060D01*
G01X207450Y33903D02*
Y67012D01*
G03X207279Y67389I-500J-0*
G01X206391Y70559D02*
G03X207279Y67389I2859J-909D01*
G01X206391Y70559D02*
G03X206183Y71132I-477J151D01*
G01X205877Y71377D02*
G03X206183Y71132I1273J1273D01*
G01X205877Y71377D02*
X203751Y73504D01*
G03X203397Y73650I-354J-354*
G01X202112*
G03X201826Y72740I-0J-500*
G01X194750Y69037D02*
G03X201826Y72740I4500J13D01*
G01X194750Y69037D02*
G03Y69050I-500J-1D01*
Y69063I-500J14*
G01X196674Y72740D02*
G03X194750Y69063I2576J-3690D01*
G01X196674Y72740D02*
G03X196388Y73650I-286J410D01*
G01X192112*
G03X191826Y72740I-0J-500*
G01X193750Y69063D02*
G03X191826Y72740I-4500J-13D01*
G01X193750Y69063D02*
G03Y69050I500J1D01*
Y69037I500J-14*
G01X186674Y72740D02*
G03X193750Y69037I2576J-3690D01*
G01X186674Y72740D02*
G03X186388Y73650I-286J410D01*
G01X154888*
G03X154511Y73479I0J-500*
G01X150836Y72804D02*
G03X154511Y73479I1414J2646D01*
G01X150836Y72804D02*
G03X150100Y72363I-236J-441D01*
G01Y65503*
G03X150246Y65150I500J0*
G01X166309Y49088*
G03X166709Y48943I353J353*
G01X166850Y48950D02*
G03X166709Y48943I0J-1500D01*
G01X166850Y48950D02*
X171850D01*
X173350Y47450D02*
G03X171850Y48950I-1500J0D01*
G01X173350Y47450D02*
Y41450D01*
X172842Y40325D02*
G03X173350Y41450I-992J1125D01*
G01X172842Y40325D02*
G03Y39575I331J-375D01*
G01X173302Y38825D02*
G03X172842Y39575I-1452J-375D01*
G01X173302Y38825D02*
G03X173787Y38450I485J125D01*
G01X174722*
G03X175012Y38542I0J500*
G01X176750Y39097D02*
G03X175012Y38542I0J-3000D01*
G01X176750Y39097D02*
X178156D01*
G03X178611Y39805I-0J500*
G01X178475Y40428D02*
G03X178611Y39805I1500J-0D01*
G01X178475Y40428D02*
Y43578D01*
X179975Y45078D02*
G03X178475Y43578I0J-1500D01*
G01X179975Y45078D02*
X183125D01*
X184625Y43578D02*
G03X183125Y45078I-1500J-0D01*
G01X184625Y43578D02*
Y40428D01*
X184212Y39394D02*
G03X184625Y40428I-1087J1034D01*
G01X184212Y39394D02*
G03Y38706I362J-344D01*
G01X184625Y37672D02*
G03X184212Y38706I-1500J0D01*
G01X184625Y37672D02*
Y34522D01*
X183125Y33022D02*
G03X184625Y34522I-0J1500D01*
G01X183125Y33022D02*
X179975D01*
X179569Y33079D02*
G03X179975Y33022I406J1443D01*
G01X179569Y33079D02*
G03X179433Y33097I-136J-482D01*
G01X178178*
G03X177888Y33005I-0J-500*
G01X176150Y32450D02*
G03X177888Y33005I0J3000D01*
G01X176150Y32450D02*
X173787D01*
G03X173302Y32075I-0J-500*
G01X171850Y30950D02*
G03X173302Y32075I0J1500D01*
G01X171850Y30950D02*
X166850D01*
X165350Y32450D02*
G03X166850Y30950I1500J0D01*
G01X165350Y32450D02*
Y38450D01*
X165858Y39575D02*
G03X165350Y38450I992J-1125D01*
G01X165858Y39575D02*
G03Y40325I-331J375D01*
G01X165370Y41205D02*
G03X165858Y40325I1480J245D01*
G01X165370Y41205D02*
G03X165047Y41593I-493J-82D01*
G01X163852Y42352D02*
G03X165047Y41593I2298J2298D01*
G01X163852Y42352D02*
X151990Y54214D01*
G03X151138Y53816I-354J-354*
G01X151150Y53550D02*
G03X151138Y53816I-3000J0D01*
G01X151150Y53550D02*
Y34650D01*
X150271Y32529D02*
G03X151150Y34650I-2121J2121D01*
G01X150271Y32529D02*
X149006Y31263D01*
G03X149527Y30439I354J-353*
G01X150028Y30525D02*
G03X149527Y30439I-0J-1500D01*
G01X150028Y30525D02*
X153178D01*
X154678Y29025D02*
G03X153178Y30525I-1500J-0D01*
G01X154678Y29025D02*
Y25875D01*
X154102Y24694D02*
G03X154678Y25875I-924J1181D01*
G01X154102Y24694D02*
G03Y23906I308J-394D01*
G01X154678Y22725D02*
G03X154102Y23906I-1500J-0D01*
G01X154678Y22725D02*
Y19575D01*
X153178Y18075D02*
G03X154678Y19575I-0J1500D01*
G01X153178Y18075D02*
X150028D01*
X149405Y18211D02*
G03X150028Y18075I623J1364D01*
G01X149405Y18211D02*
G03X148697Y17756I-208J-455D01*
G01Y14245*
G03X148806Y13934I500J-0*
G01X149129Y13482D02*
G03X148806Y13934I-4579J-2932D01*
G01X149129Y13482D02*
G03X149971I421J269D01*
G01X159294Y7894D02*
G03X149971Y13482I-4744J2656D01*
G01X159294Y7894D02*
G03X159731Y7150I437J-244D01*
G01X162000*
G03X162354Y7296I0J500*
G01X169129Y14071*
X171250Y14950D02*
G03X169129Y14071I0J-3000D01*
G01X171250Y14950D02*
X172811D01*
G03X173066Y15880I-0J500*
G01X180429Y23482D02*
G03X173066Y15880I-4579J-2932D01*
G01X180429Y23482D02*
G03X181271I421J269D01*
G01X185527Y25977D02*
G03X181271Y23482I323J-5427D01*
G01X185527Y25977D02*
G03X185997Y26477I-30J500D01*
G01Y27533*
G03X185979Y27669I-500J0*
G01X185922Y28075D02*
G03X185979Y27669I1500J0D01*
G01X185922Y28075D02*
Y31225D01*
X185979Y31631D02*
G03X185922Y31225I1443J-406D01*
G01X185979Y31631D02*
G03X185997Y31767I-482J136D01*
G01Y33633*
G03X185979Y33769I-500J0*
G01X185922Y34175D02*
G03X185979Y33769I1500J0D01*
G01X185922Y34175D02*
Y37325D01*
X187422Y38825D02*
G03X185922Y37325I0J-1500D01*
G01X187422Y38825D02*
X190572D01*
X191606Y38412D02*
G03X190572Y38825I-1034J-1087D01*
G01X191606Y38412D02*
G03X192294I344J362D01*
G01X193328Y38825D02*
G03X192294Y38412I-0J-1500D01*
G01X193328Y38825D02*
X196478D01*
X197978Y37325D02*
G03X196478Y38825I-1500J-0D01*
G01X197978Y37325D02*
Y34175D01*
X197490Y33069D02*
G03X197978Y34175I-1012J1106D01*
G01X197490Y33069D02*
G03Y32331I338J-369D01*
G01X197978Y31225D02*
G03X197490Y32331I-1500J-0D01*
G01X197978Y31225D02*
Y28075D01*
X197151Y26735D02*
G03X197978Y28075I-673J1340D01*
G01X197151Y26735D02*
G03X197247Y25805I224J-447D01*
G01X201193Y19543D02*
G03X197247Y25805I-5343J1007D01*
G01X201193Y19543D02*
G03X201684Y18950I491J-93D01*
G01X203378*
G03X203788Y19736I-0J500*
G01X204279Y23711D02*
G03X203788Y19736I1971J-2261D01*
G01X204279Y23711D02*
G03X204450Y24088I-329J377D01*
G01Y29950*
X204977Y31223D02*
G03X204450Y29950I1273J-1273D01*
G01X204977Y31223D02*
X207304Y33549D01*
G03X207450Y33903I-354J354*
G01X257613Y73379D02*
G03X255774Y79452I-3974J2112D01*
G01X257613Y73379D02*
G03X257607Y73367I442J-235D01*
X257601Y73355I434J-249*
G01X255751Y79464D02*
G03X257601Y73355I-2112J-3973D01*
G01X255751Y79464D02*
G03X255763Y79458I235J442D01*
X255774Y79452I249J434*
G01X262332Y82195D02*
G03X260494Y88268I-3974J2112D01*
G01X262332Y82195D02*
G03X262326Y82184I441J-234D01*
X262319Y82172I434J-249*
G01X256246Y80334D02*
G03X262319Y82172I2112J3973D01*
G01X256246Y80334D02*
G03X256235Y80340I-234J-442D01*
X256223Y80346I-249J-434*
G01X260470Y88281D02*
G03X256223Y80346I-2112J-3974D01*
G01X260470Y88281D02*
G03X260482Y88275I234J442D01*
X260494Y88268I249J433*
G01X267051Y91012D02*
G03X260942Y89163I-3974J2112D01*
G01X267051Y91012D02*
G03X267045Y91000I441J-235D01*
X267038Y90989I433J-248*
G01X260965Y89150D02*
G03X267038Y90989I2112J3974D01*
G01X260965Y89150D02*
G03X260953Y89156I-234J-442D01*
X260942Y89163I-249J-433*
G01X235505Y47755D02*
G03X235505I-7406J0D01*
G01X240698Y71661D02*
G03X240698I-8586J0D01*
G01X215378Y113325D02*
Y110175D01*
X214848Y109031D02*
G03X215378Y110175I-970J1144D01*
G01X214848Y109031D02*
G03Y108269I323J-381D01*
G01X215378Y107125D02*
G03X214848Y108269I-1500J-0D01*
G01X215378Y107125D02*
Y103975D01*
X215001Y102981D02*
G03X215378Y103975I-1123J994D01*
G01X215001Y102981D02*
G03Y102319I375J-331D01*
G01X215378Y101325D02*
G03X215001Y102319I-1500J-0D01*
G01X215378Y101325D02*
Y98175D01*
X214930Y97106D02*
G03X215378Y98175I-1052J1069D01*
G01X214930Y97106D02*
G03Y96394I351J-356D01*
G01X215378Y95325D02*
G03X214930Y96394I-1500J-0D01*
G01X215378Y95325D02*
Y92175D01*
X213878Y90675D02*
G03X215378Y92175I-0J1500D01*
G01X213878Y90675D02*
X210728D01*
X209694Y91088D02*
G03X210728Y90675I1034J1087D01*
G01X209694Y91088D02*
G03X209006I-344J-362D01*
G01X207972Y90675D02*
G03X209006Y91088I0J1500D01*
G01X207972Y90675D02*
X204822D01*
X204416Y90731D02*
G03X204822Y90675I406J1444D01*
G01X204416Y90731D02*
G03X204281Y90750I-135J-481D01*
G01X196798*
G03X196434Y90593I-0J-500*
G01X191250Y92650D02*
G03X196434Y90593I3000J0D01*
G01X191250Y92650D02*
Y92950D01*
X192129Y95071D02*
G03X191250Y92950I2121J-2121D01*
G01X192129Y95071D02*
X192929Y95871D01*
X195050Y96750D02*
G03X192929Y95871I0J-3000D01*
G01X195050Y96750D02*
X202897D01*
G03X203397Y97250I0J500*
G01Y97633*
G03X203379Y97769I-500J0*
G01X203322Y98175D02*
G03X203379Y97769I1500J0D01*
G01X203322Y98175D02*
Y101325D01*
X203557Y102131D02*
G03X203322Y101325I1265J-806D01*
G01X203557Y102131D02*
G03X203052Y102892I-421J268D01*
G01X202949Y108823D02*
G03X203052Y102892I-399J-2973D01*
G01X202949Y108823D02*
G03X203467Y109533I66J496D01*
G01X203322Y110175D02*
G03X203467Y109533I1500J0D01*
G01X203322Y110175D02*
Y113325D01*
X203754Y114377D02*
G03X203322Y113325I1068J-1052D01*
G01X203754Y114377D02*
G03X203897Y114728I-357J351D01*
G01Y119660*
G03X203751Y120014I-500J0*
G01X202957Y120807*
G03X202724Y120939I-354J-353*
G01X206361Y124576D02*
G03X202724Y120939I-2911J-726D01*
G01X206361Y124576D02*
G03X206493Y124343I485J121D01*
G01X207826Y123010*
G03X207882Y122961I353J353*
G01X208897Y120950D02*
G03X207882Y122961I-2500J0D01*
G01X208897Y120950D02*
Y114818D01*
G03X209730Y114445I500J-0*
G01X210728Y114825D02*
G03X209730Y114445I-0J-1500D01*
G01X210728Y114825D02*
X213878D01*
X215378Y113325D02*
G03X213878Y114825I-1500J-0D01*
G01X119550Y110137D02*
G03Y110163I4500J13D01*
G01Y110137D02*
G03Y110150I-500J-1D01*
Y110163I-500J14*
G01X36071Y123967D02*
G03X36071I-3862J0D01*
G01X26071Y121428D02*
G03X26071I-7405J0D01*
G01X20768Y147137D02*
G03X22116Y154742I674J3802D01*
G01X20768Y147137D02*
X16891Y147824D01*
X18240Y155430D02*
G03X16891Y147824I-674J-3803D01*
G01X18240Y155430D02*
X22116Y154742D01*
X25922Y176211D02*
G03X27271Y183817I674J3803D01*
G01X25922Y176211D02*
X22046Y176898D01*
X23394Y184504D02*
G03X22046Y176898I-674J-3803D01*
G01X23394Y184504D02*
X27271Y183817D01*
X32525Y206578D02*
Y203428D01*
X32112Y202394D02*
G03X32525Y203428I-1087J1034D01*
G01X32112Y202394D02*
G03Y201706I362J-344D01*
G01X32525Y200672D02*
G03X32112Y201706I-1500J0D01*
G01X32525Y200672D02*
Y197522D01*
X31025Y196022D02*
G03X32525Y197522I-0J1500D01*
G01X31025Y196022D02*
X27875D01*
X26533Y196853D02*
G03X27875Y196022I1342J669D01*
G01X26533Y196853D02*
G03X26085Y197130I-448J-223D01*
G01X22698*
G03X22341Y196980I-0J-500*
G01X20974Y204234D02*
G03X22341Y196980I-1847J-4104D01*
G01X20974Y204234D02*
G03X20987Y204228I206J456D01*
X20999Y204223I220J449*
G01X22341Y203280D02*
G03X20999Y204223I-3214J-3150D01*
G01X22341Y203280D02*
G03X22698Y203130I357J350D01*
G01X25875*
G03X26375Y203630I0J500*
G01Y204976*
G03X25614Y205402I-500J-0*
G01X21412Y205133D02*
G03X25614Y205402I1847J4104D01*
G01X21412Y205133D02*
G03X21400Y205138I-205J-456D01*
X21387Y205144I-220J-448*
G01X27720Y208643D02*
G03X21387Y205144I-4461J594D01*
G01X27720Y208643D02*
G03X28215Y208078I495J-65D01*
G01X31025*
X32525Y206578D02*
G03X31025Y208078I-1500J-0D01*
G01X45949Y106000D02*
G03X45949I-8587J0D01*
G01X87400Y33950D02*
G03X87400I-4250J0D01*
G01X202922Y66449D02*
X207450D01*
X202077Y65549D02*
X207450D01*
X200187Y64649D02*
X207450D01*
X151648Y63749D02*
X207450D01*
X152548Y62849D02*
X207450D01*
X153448Y61949D02*
X207450D01*
X154348Y61049D02*
X207450D01*
X155248Y60149D02*
X207450D01*
X156148Y59249D02*
X207450D01*
X157048Y58349D02*
X207450D01*
X157948Y57449D02*
X207450D01*
X158848Y56549D02*
X207450D01*
X159748Y55649D02*
X207450D01*
X160648Y54749D02*
X207450D01*
X161548Y53849D02*
X207450D01*
X162448Y52949D02*
X207450D01*
X163348Y52049D02*
X207450D01*
X164248Y51149D02*
X207450D01*
X165148Y50249D02*
X207450D01*
X166048Y49349D02*
X207450D01*
X172969Y48449D02*
X207450D01*
X173347Y47549D02*
X207450D01*
X173350Y46649D02*
X207450D01*
X173350Y45749D02*
X207450D01*
X183921Y44849D02*
X207450D01*
X184578Y43949D02*
X207450D01*
X184625Y43049D02*
X207450D01*
X184625Y42149D02*
X207450D01*
X184625Y41249D02*
X207450D01*
X184623Y40349D02*
X207450D01*
X184261Y39449D02*
X207450D01*
X197345Y38549D02*
X207450D01*
X197942Y37649D02*
X207450D01*
X197978Y36749D02*
X207450D01*
X197978Y35849D02*
X207450D01*
X197978Y34949D02*
X207450D01*
X197972Y34049D02*
X207450D01*
X203416Y67349D02*
X207319D01*
X197571Y33149D02*
X206903D01*
X203678Y68249D02*
X206597D01*
X203330Y70949D02*
X206354D01*
X203749Y69149D02*
X206292D01*
X203638Y70049D02*
X206277D01*
X197574Y32249D02*
X206003D01*
X202774Y71849D02*
X205406D01*
X197972Y31349D02*
X205103D01*
X197978Y30449D02*
X204520D01*
X201814Y72749D02*
X204506D01*
X197978Y29549D02*
X204450D01*
X197978Y28649D02*
X204450D01*
X197942Y27749D02*
X204450D01*
X197341Y26849D02*
X204450D01*
X197008Y25949D02*
X204450D01*
X198903Y25049D02*
X204450D01*
X199926Y24149D02*
X204450D01*
X200570Y23249D02*
X203849D01*
X201212Y19649D02*
X203837D01*
X202076Y73649D02*
X203433D01*
X201287Y20549D02*
X203389D01*
X200981Y22349D02*
X203388D01*
X201212Y21449D02*
X203250D01*
X190187Y64649D02*
X198313D01*
X191814Y72749D02*
X196686D01*
X192076Y73649D02*
X196424D01*
X192077Y65549D02*
X196423D01*
X192774Y71849D02*
X195726D01*
X192922Y66449D02*
X195578D01*
X193330Y70949D02*
X195170D01*
X193416Y67349D02*
X195084D01*
X193638Y70049D02*
X194862D01*
X193678Y68249D02*
X194822D01*
X193749Y69149D02*
X194751D01*
X191439Y38549D02*
X192461D01*
X150748Y64649D02*
X188313D01*
X153555Y72749D02*
X186686D01*
X184342Y38549D02*
X186555D01*
X154852Y73649D02*
X186424D01*
X150100Y65549D02*
X186423D01*
X183727Y33149D02*
X185997D01*
X173386Y32249D02*
X185997D01*
X154678Y26849D02*
X185997D01*
X154678Y27749D02*
X185958D01*
X184625Y37649D02*
X185958D01*
X184548Y34049D02*
X185928D01*
X172868Y31349D02*
X185928D01*
X184625Y36749D02*
X185922D01*
X184625Y35849D02*
X185922D01*
X184625Y34949D02*
X185922D01*
X153649Y30449D02*
X185922D01*
X154583Y29549D02*
X185922D01*
X154678Y28649D02*
X185922D01*
X150100Y71849D02*
X185726D01*
X150100Y66449D02*
X185578D01*
X176495Y25949D02*
X185205D01*
X150100Y70949D02*
X185170D01*
X150100Y67349D02*
X185084D01*
X150100Y70049D02*
X184862D01*
X150100Y68249D02*
X184822D01*
X150100Y69149D02*
X184751D01*
X178903Y25049D02*
X182797D01*
X179926Y24149D02*
X181774D01*
X173350Y44849D02*
X179179D01*
X172969Y39449D02*
X178633D01*
X173350Y43949D02*
X178522D01*
X172868Y40349D02*
X178477D01*
X173350Y43049D02*
X178475D01*
X173350Y42149D02*
X178475D01*
X173336Y41249D02*
X178475D01*
X154678Y25949D02*
X175205D01*
X173488Y38549D02*
X175021D01*
X157451Y15149D02*
X173210D01*
X148697Y16049D02*
X172800D01*
X154429Y25049D02*
X172797D01*
X148697Y16949D02*
X171777D01*
X153933Y24149D02*
X171774D01*
X148706Y17849D02*
X171132D01*
X154583Y23249D02*
X171130D01*
X154429Y18749D02*
X170720D01*
X154678Y22349D02*
X170719D01*
X154678Y19649D02*
X170488D01*
X154678Y21449D02*
X170488D01*
X154678Y20549D02*
X170413D01*
X158535Y14249D02*
X169322D01*
X159211Y13349D02*
X168406D01*
X159645Y12449D02*
X167506D01*
X159895Y11549D02*
X166606D01*
X151150Y40349D02*
X165832D01*
X149091Y31349D02*
X165832D01*
X151150Y39449D02*
X165731D01*
X159986Y10649D02*
X165706D01*
X149991Y32249D02*
X165364D01*
X151150Y41249D02*
X165361D01*
X151150Y38549D02*
X165353D01*
X151150Y37649D02*
X165350D01*
X151150Y36749D02*
X165350D01*
X151150Y35849D02*
X165350D01*
X151150Y34949D02*
X165350D01*
X151089Y34049D02*
X165350D01*
X150747Y33149D02*
X165350D01*
X159928Y9749D02*
X164806D01*
X151150Y42149D02*
X164075D01*
X159714Y8849D02*
X163906D01*
X151150Y43049D02*
X163155D01*
X159324Y7949D02*
X163006D01*
X151150Y43949D02*
X162255D01*
X151150Y44849D02*
X161355D01*
X151150Y45749D02*
X160455D01*
X151150Y46649D02*
X159555D01*
X151150Y47549D02*
X158655D01*
X151150Y48449D02*
X157755D01*
X151150Y49349D02*
X156855D01*
X151150Y50249D02*
X155955D01*
X151150Y51149D02*
X155055D01*
X151150Y52049D02*
X154155D01*
X151150Y52949D02*
X153255D01*
X151136Y53849D02*
X152355D01*
X148697Y15149D02*
X151649D01*
X150281Y72749D02*
X150945D01*
X148697Y14249D02*
X150565D01*
X149254Y13349D02*
X149846D01*
X149166Y30449D02*
X149556D01*
X191997Y25949D02*
X194161D01*
X192199Y25049D02*
X192797D01*
X152989Y226649D02*
X179450D01*
X152647Y225749D02*
X179450D01*
X151848Y224849D02*
X179450D01*
X136178Y223949D02*
X179450D01*
X136178Y223049D02*
X179450D01*
X136178Y222149D02*
X179450D01*
X153035Y227549D02*
X179306D01*
X152800Y228449D02*
X177256D01*
X152194Y229349D02*
X176279D01*
X135777Y232049D02*
X175921D01*
X150139Y230249D02*
X175859D01*
X148445Y231149D02*
X175752D01*
X172668Y221249D02*
X173632D01*
X166695D02*
X167203D01*
X153797Y208649D02*
X156197D01*
X154697Y207749D02*
X156197D01*
X152896Y209549D02*
X156066D01*
X136178Y215849D02*
X155549D01*
X136116Y221249D02*
X155241D01*
X135990Y214949D02*
X155109D01*
X130159Y210449D02*
X155060D01*
X136178Y216749D02*
X154984D01*
X135591Y220349D02*
X154923D01*
X136042Y219449D02*
X154922D01*
X136178Y218549D02*
X154922D01*
X136178Y217649D02*
X154922D01*
X129057Y214049D02*
X154922D01*
X129007Y213149D02*
X154922D01*
X129689Y212249D02*
X154922D01*
X130068Y211349D02*
X154922D01*
X149728Y230249D02*
X149961D01*
X136177Y224849D02*
X148252D01*
X135859Y225749D02*
X147453D01*
X135570Y226649D02*
X147111D01*
X136240Y227549D02*
X146853D01*
X149208Y188849D02*
X154850D01*
X149223Y187949D02*
X154850D01*
X148953Y187049D02*
X154850D01*
X148288Y186149D02*
X154850D01*
X145800Y185249D02*
X154850D01*
X144880Y184349D02*
X154850D01*
X129375Y183449D02*
X154850D01*
X87591Y182549D02*
X153070D01*
X86691Y181649D02*
X151827D01*
X85791Y180749D02*
X151321D01*
X84891Y179849D02*
X151152D01*
X84750Y178949D02*
X150616D01*
X84750Y178049D02*
X149891D01*
X84750Y177149D02*
X149167D01*
X84750Y176249D02*
X148442D01*
X84750Y175349D02*
X147717D01*
X144652Y174449D02*
X146989D01*
X84750D02*
X141048D01*
X84750Y173549D02*
X140251D01*
X84750Y172649D02*
X139910D01*
X84750Y171749D02*
X139845D01*
X90589Y188849D02*
X126741D01*
X88491Y183449D02*
X125525D01*
X90968Y187949D02*
X125409D01*
X89391Y184349D02*
X124797D01*
X91043Y187049D02*
X124746D01*
X90285Y185249D02*
X124492D01*
X90841Y186149D02*
X124477D01*
X89710Y189749D02*
X124328D01*
X83130Y190649D02*
X123306D01*
X80773Y191549D02*
X122406D01*
X81300Y192449D02*
X121506D01*
X81325Y193349D02*
X120606D01*
X81325Y194249D02*
X119706D01*
X81325Y195149D02*
X118806D01*
X81314Y196049D02*
X117906D01*
X80875Y196949D02*
X117006D01*
X84750Y170849D02*
X116290D01*
X81107Y197849D02*
X116106D01*
X84750Y169949D02*
X115306D01*
X81325Y198749D02*
X115206D01*
X84750Y169049D02*
X114406D01*
X81325Y199649D02*
X114306D01*
X84750Y168149D02*
X113506D01*
X81325Y200549D02*
X113406D01*
X84751Y167249D02*
X112606D01*
X81325Y201449D02*
X112506D01*
X99510Y166349D02*
X111706D01*
X81533Y202349D02*
X111433D01*
X100494Y165449D02*
X110806D01*
X101387Y164549D02*
X110051D01*
X101942Y163649D02*
X109710D01*
X102143Y162749D02*
X109650D01*
X102067Y161849D02*
X109650D01*
X101900Y160949D02*
X109650D01*
X101900Y160049D02*
X109650D01*
X101900Y159149D02*
X109650D01*
X101900Y158249D02*
X109650D01*
X101900Y157349D02*
X109650D01*
X101900Y156449D02*
X109650D01*
X101900Y155549D02*
X109650D01*
X101900Y154649D02*
X109650D01*
X101900Y153749D02*
X109650D01*
X101900Y152849D02*
X109650D01*
X101900Y151949D02*
X109650D01*
X101900Y151049D02*
X109650D01*
X101900Y150149D02*
X109650D01*
X101900Y149249D02*
X109650D01*
X101900Y148349D02*
X109650D01*
X101900Y147449D02*
X109650D01*
X101900Y146549D02*
X109650D01*
X101900Y145649D02*
X109650D01*
X101900Y144749D02*
X109650D01*
X101900Y143849D02*
X109650D01*
X101900Y142949D02*
X109650D01*
X101900Y142049D02*
X109650D01*
X101900Y141149D02*
X109650D01*
X101900Y140249D02*
X109650D01*
X101900Y139349D02*
X109650D01*
X101900Y138449D02*
X109650D01*
X101900Y137549D02*
X109650D01*
X101900Y136649D02*
X109650D01*
X101900Y135749D02*
X109650D01*
X101900Y134849D02*
X109650D01*
X101900Y133949D02*
X109650D01*
X101900Y133049D02*
X109650D01*
X101900Y132149D02*
X109650D01*
X101900Y131249D02*
X109650D01*
X101900Y130349D02*
X109650D01*
X101900Y129449D02*
X109650D01*
X101900Y128549D02*
X109650D01*
X101900Y127649D02*
X109650D01*
X101900Y126749D02*
X109650D01*
X101900Y125849D02*
X109650D01*
X101900Y124949D02*
X109650D01*
X101900Y124049D02*
X109650D01*
X101900Y123149D02*
X109650D01*
X101900Y122249D02*
X109650D01*
X101900Y121349D02*
X109650D01*
X101900Y120449D02*
X109582D01*
X101900Y119549D02*
X108706D01*
X101900Y118649D02*
X107806D01*
X101900Y117749D02*
X106913D01*
X101900Y116849D02*
X106358D01*
X101900Y115049D02*
X106233D01*
X101900Y115949D02*
X106157D01*
X84373Y189749D02*
X86390D01*
X124885Y130349D02*
X125655D01*
X123413Y129449D02*
X125535D01*
X121350Y128549D02*
X124884D01*
X121350Y127649D02*
X124657D01*
X121987Y126749D02*
X124574D01*
X134458Y134849D02*
X147842D01*
X134490Y144749D02*
X147810D01*
X134547Y140249D02*
X147753D01*
X134645Y130349D02*
X147655D01*
X134765Y129449D02*
X147535D01*
X134870Y139349D02*
X147430D01*
X134961Y145649D02*
X147339D01*
X135047Y135749D02*
X147253D01*
X135196Y133949D02*
X147104D01*
X135259Y143849D02*
X147041D01*
X135316Y141149D02*
X146984D01*
X135368Y131249D02*
X146932D01*
X135416Y128549D02*
X146884D01*
X135459Y138449D02*
X146841D01*
X135495Y146549D02*
X146805D01*
X135528Y136649D02*
X146772D01*
X135583Y133049D02*
X146717D01*
X135604Y142949D02*
X146696D01*
X135620Y142049D02*
X146680D01*
X135633Y132149D02*
X146667D01*
X135643Y127649D02*
X146657D01*
X135648Y137549D02*
X146652D01*
X135650Y147449D02*
X146650D01*
X135726Y126749D02*
X146574D01*
X135496Y148349D02*
X141828D01*
X134964Y149249D02*
X140806D01*
X134489Y150149D02*
X139906D01*
X135258Y151049D02*
X139006D01*
X135603Y151949D02*
X138106D01*
X135620Y152849D02*
X137206D01*
X135778Y153749D02*
X136283D01*
X160445Y215849D02*
X161455D01*
X174994Y272549D02*
X182878D01*
X174094Y271649D02*
X182436D01*
X173650Y270749D02*
X181530D01*
X173650Y269849D02*
X180878D01*
X173650Y268949D02*
X180406D01*
X174173Y268049D02*
X180078D01*
X174679Y267149D02*
X179874D01*
X174741Y265349D02*
X179805D01*
X174848Y266249D02*
X179785D01*
X174801Y264449D02*
X179707D01*
X175894Y273449D02*
X179412D01*
X157603Y151949D02*
X163746D01*
X157317Y153749D02*
X163650D01*
X157620Y152849D02*
X163650D01*
X157528Y136649D02*
X163450D01*
X157047Y135749D02*
X163450D01*
X156458Y134849D02*
X163450D01*
X157196Y133949D02*
X163450D01*
X157583Y133049D02*
X163450D01*
X157633Y132149D02*
X163450D01*
X157368Y131249D02*
X163450D01*
X156958Y130349D02*
X163440D01*
X156549Y154649D02*
X163406D01*
X156547Y140249D02*
X163264D01*
X157648Y137549D02*
X163122D01*
X156870Y139349D02*
X163058D01*
X157459Y138449D02*
X162952D01*
X157410Y151049D02*
X162813D01*
X157316Y141149D02*
X162718D01*
X161242Y146549D02*
X162550D01*
X161443Y145649D02*
X162550D01*
X161367Y144749D02*
X162550D01*
X160987Y143849D02*
X162550D01*
X160106Y142949D02*
X162550D01*
X157620Y142049D02*
X162550D01*
X160687Y147449D02*
X162508D01*
X156867Y155549D02*
X162506D01*
X158004Y150149D02*
X162258D01*
X159296Y148349D02*
X162133D01*
X158629Y149249D02*
X162057D01*
X157457Y156449D02*
X161626D01*
X157648Y157349D02*
X161261D01*
X159191Y168149D02*
X161250D01*
X158291Y167249D02*
X161250D01*
X157391Y166349D02*
X161250D01*
X156171Y165449D02*
X161250D01*
X156649Y164549D02*
X161250D01*
X157369Y163649D02*
X161250D01*
X157633Y162749D02*
X161250D01*
X157582Y161849D02*
X161250D01*
X157194Y160949D02*
X161250D01*
X156457Y160049D02*
X161250D01*
X157049Y159149D02*
X161250D01*
X157529Y158249D02*
X161250D01*
X160091Y169049D02*
X161248D01*
X167592Y147449D02*
X170311D01*
X168283Y142049D02*
X170129D01*
X168450Y141149D02*
X169941D01*
X167967Y148349D02*
X169934D01*
X167550Y146549D02*
X169758D01*
X167687Y142949D02*
X169728D01*
X167550Y145649D02*
X169722D01*
X167550Y144749D02*
X169722D01*
X167550Y143849D02*
X169722D01*
X168461Y140249D02*
X169623D01*
X118250Y241949D02*
X141000D01*
X120497Y237449D02*
X140658D01*
X118250Y241049D02*
X140628D01*
X118250Y240149D02*
X140622D01*
X118697Y239249D02*
X140622D01*
X119597Y238349D02*
X140622D01*
X121404Y236549D02*
X140599D01*
X138896Y242849D02*
X140404D01*
X129528Y286949D02*
X137363D01*
X122650Y286049D02*
X137149D01*
X97470Y279749D02*
X137139D01*
X135240Y278849D02*
X136560D01*
X117489Y285149D02*
X136509D01*
X100131Y280649D02*
X136460D01*
X113189Y284249D02*
X136322D01*
X109432Y283349D02*
X136322D01*
X106061Y282449D02*
X136322D01*
X102980Y281549D02*
X136322D01*
X118250Y242849D02*
X133711D01*
X118250Y243749D02*
X133242D01*
X129144Y244649D02*
X133229D01*
X67777Y265349D02*
X126528D01*
X66382Y264449D02*
X126310D01*
X69209Y266249D02*
X126001D01*
X65021Y263549D02*
X125895D01*
X62397Y261749D02*
X125843D01*
X72191Y268049D02*
X125786D01*
X70679Y267149D02*
X125773D01*
X73746Y268949D02*
X125753D01*
X63694Y262649D02*
X125751D01*
X61131Y260849D02*
X125403D01*
X89535Y213149D02*
X125364D01*
X89694Y214049D02*
X125337D01*
X75347Y269849D02*
X124939D01*
X94150Y226649D02*
X124730D01*
X94150Y220349D02*
X124709D01*
X80466Y272549D02*
X124697D01*
X78704Y271649D02*
X124697D01*
X76999Y270749D02*
X124697D01*
X59893Y259949D02*
X124691D01*
X89299Y212249D02*
X124611D01*
X58682Y259049D02*
X124550D01*
X57497Y258149D02*
X124550D01*
X56337Y257249D02*
X124550D01*
X55202Y256349D02*
X124541D01*
X94150Y232049D02*
X124523D01*
X94150Y225749D02*
X124441D01*
X82292Y273449D02*
X124439D01*
X90594Y214949D02*
X124310D01*
X94150Y219449D02*
X124258D01*
X88691Y211349D02*
X124232D01*
X94150Y221249D02*
X124184D01*
X94150Y227549D02*
X124158D01*
X88020Y210449D02*
X124141D01*
X94150Y231149D02*
X124128D01*
X94150Y224849D02*
X124123D01*
X94150Y230249D02*
X124122D01*
X94150Y229349D02*
X124122D01*
X94150Y228449D02*
X124122D01*
X94150Y223949D02*
X124122D01*
X94150Y223049D02*
X124122D01*
X94150Y222149D02*
X124122D01*
X94008Y218549D02*
X124122D01*
X93294Y217649D02*
X124122D01*
X92394Y216749D02*
X124122D01*
X91494Y215849D02*
X124122D01*
X119047Y250049D02*
X123826D01*
X94968Y278849D02*
X123669D01*
X118250Y244649D02*
X123556D01*
X54089Y255449D02*
X123554D01*
X84186Y274349D02*
X123518D01*
X92601Y277949D02*
X123422D01*
X90353Y277049D02*
X123422D01*
X88208Y276149D02*
X123422D01*
X86156Y275249D02*
X123422D01*
X119389Y250949D02*
X123354D01*
X118310Y249149D02*
X123353D01*
X116539Y254549D02*
X123275D01*
X118594Y253649D02*
X123275D01*
X119200Y252749D02*
X123275D01*
X119435Y251849D02*
X123275D01*
X118250Y248249D02*
X123275D01*
X118250Y247349D02*
X123275D01*
X118250Y246449D02*
X123275D01*
X118250Y245549D02*
X123275D01*
X94150Y232949D02*
X120162D01*
X94150Y233849D02*
X119006D01*
X94150Y234749D02*
X118106D01*
X94150Y235649D02*
X117206D01*
X52999Y254549D02*
X116361D01*
X94150Y236549D02*
X116306D01*
X94150Y237449D02*
X115406D01*
X94150Y238349D02*
X114753D01*
X92923Y248249D02*
X114650D01*
X94387Y247349D02*
X114650D01*
X94942Y246449D02*
X114650D01*
X95143Y245549D02*
X114650D01*
X95067Y244649D02*
X114650D01*
X94687Y243749D02*
X114650D01*
X94150Y242849D02*
X114650D01*
X94150Y241949D02*
X114650D01*
X94150Y241049D02*
X114650D01*
X94150Y240149D02*
X114650D01*
X94150Y239249D02*
X114650D01*
X66778Y249149D02*
X114590D01*
X51931Y253649D02*
X114306D01*
X66778Y250049D02*
X113853D01*
X50883Y252749D02*
X113700D01*
X66531Y250949D02*
X113511D01*
X49855Y251849D02*
X113465D01*
X66778Y248249D02*
X91377D01*
X66778Y241949D02*
X90550D01*
X66778Y241049D02*
X90550D01*
X66682Y240149D02*
X90550D01*
X65741Y239249D02*
X90550D01*
X60100Y238349D02*
X90550D01*
X60100Y237449D02*
X90550D01*
X60018Y236549D02*
X90550D01*
X59526Y235649D02*
X90550D01*
X58801Y234749D02*
X90550D01*
X58800Y233849D02*
X90550D01*
X58800Y232949D02*
X90550D01*
X58800Y232049D02*
X90550D01*
X58800Y231149D02*
X90550D01*
X58800Y230249D02*
X90550D01*
X72386Y229349D02*
X90550D01*
X74001Y228449D02*
X90550D01*
X74664Y227549D02*
X90550D01*
X74980Y226649D02*
X90550D01*
X75044Y225749D02*
X90550D01*
X74872Y224849D02*
X90550D01*
X74421Y223949D02*
X90550D01*
X74351Y223049D02*
X90550D01*
X74838Y222149D02*
X90550D01*
X75037Y221249D02*
X90550D01*
X74998Y220349D02*
X90550D01*
X66778Y242849D02*
X90451D01*
X75597Y219449D02*
X90003D01*
X66778Y247349D02*
X89913D01*
X66778Y243749D02*
X89613D01*
X66682Y246449D02*
X89358D01*
X66531Y244649D02*
X89233D01*
X66033Y245549D02*
X89157D01*
X76497Y218549D02*
X89103D01*
X77397Y217649D02*
X88203D01*
X78297Y216749D02*
X87303D01*
X79197Y215849D02*
X84748D01*
X80097Y214949D02*
X83951D01*
X80997Y214049D02*
X83610D01*
X81897Y213149D02*
X83565D01*
X82797Y212249D02*
X83514D01*
X67386Y229349D02*
X70714D01*
X62386D02*
X65714D01*
X60124Y239249D02*
X61664D01*
X58800Y229349D02*
X60714D01*
X43742Y245549D02*
X55467D01*
X48847Y250949D02*
X54969D01*
X53640Y244649D02*
X54960D01*
X44078Y246449D02*
X54818D01*
X47858Y250049D02*
X54722D01*
X46887Y249149D02*
X54722D01*
X45934Y248249D02*
X54722D01*
X44998Y247349D02*
X54722D01*
X146058Y243749D02*
X147500D01*
X145666Y242849D02*
X147500D01*
X146071Y244649D02*
X147362D01*
X146388Y241949D02*
X146912D01*
X133082Y57449D02*
X133818D01*
X51684Y134849D02*
X52716D01*
X57840D02*
X59260D01*
X58304Y133949D02*
X58796D01*
X73578Y206849D02*
X76447D01*
X73578Y207749D02*
X76306D01*
X73578Y205949D02*
X75651D01*
X70146Y196949D02*
X75625D01*
X71019Y203249D02*
X75501D01*
X73578Y208649D02*
X75406D01*
X71209Y197849D02*
X75393D01*
X73482Y205049D02*
X75310D01*
X71319Y202349D02*
X75288D01*
X72541Y204149D02*
X75265D01*
X71319Y201449D02*
X75175D01*
X71319Y200549D02*
X75175D01*
X71319Y199649D02*
X75175D01*
X71319Y198749D02*
X75175D01*
X74195Y209549D02*
X74384D01*
X47425Y196049D02*
X73626D01*
X66418Y195149D02*
X69282D01*
X67511Y194249D02*
X68189D01*
X47425Y196949D02*
X65554D01*
X60518Y197849D02*
X64491D01*
X61071Y199649D02*
X64381D01*
X61048Y198749D02*
X64381D01*
X61071Y200549D02*
X63917D01*
X61071Y201449D02*
X63017D01*
X61071Y202349D02*
X62459D01*
X61041Y203249D02*
X62347D01*
X60472Y204149D02*
X62309D01*
X60800Y195149D02*
X61802D01*
X60482Y205049D02*
X61618D01*
X53825Y197849D02*
X55475D01*
X54107Y195149D02*
X55193D01*
X47425Y197849D02*
X48782D01*
X47378Y195149D02*
X48500D01*
X47274Y194249D02*
X48145D01*
X75059Y190649D02*
X80564D01*
X75183Y189749D02*
X79727D01*
X75439Y191549D02*
X75678D01*
X64683Y214949D02*
X71234D01*
X65733Y214049D02*
X70327D01*
X66847Y210449D02*
X69870D01*
X66534Y213149D02*
X69821D01*
X66847Y211349D02*
X69759D01*
X66834Y212249D02*
X69652D01*
X48350Y215849D02*
X69228D01*
X48350Y216749D02*
X68206D01*
X62713Y217649D02*
X65387D01*
X57713D02*
X60387D01*
X52713D02*
X55387D01*
X48350Y214949D02*
X52264D01*
X48350Y217649D02*
X50387D01*
X48351Y214049D02*
X49509D01*
X47140Y200549D02*
X48229D01*
X47063Y199649D02*
X48229D01*
X46697Y238349D02*
X55600D01*
X52841Y239249D02*
X55545D01*
X47297Y237449D02*
X54967D01*
X48110Y236549D02*
X54411D01*
X48350Y235649D02*
X54300D01*
X48350Y234749D02*
X54300D01*
X48350Y233849D02*
X54300D01*
X48350Y232949D02*
X54300D01*
X48350Y232049D02*
X54300D01*
X48350Y231149D02*
X54300D01*
X48350Y230249D02*
X54300D01*
X52386Y229349D02*
X54300D01*
X48350D02*
X50714D01*
X46955Y239249D02*
X48764D01*
X60127Y245549D02*
X61373D01*
X192268Y259949D02*
X228522D01*
X192537Y260849D02*
X228169D01*
X193272Y261749D02*
X226903D01*
X193806Y262649D02*
X225606D01*
X194185Y263549D02*
X224279D01*
X194433Y264449D02*
X222918D01*
X194565Y265349D02*
X221523D01*
X194585Y266249D02*
X220091D01*
X194495Y267149D02*
X218621D01*
X194292Y268049D02*
X217109D01*
X193963Y268949D02*
X215554D01*
X193491Y269849D02*
X213953D01*
X192839Y270749D02*
X212301D01*
X191934Y271649D02*
X210596D01*
X190579Y272549D02*
X208834D01*
X183502Y273449D02*
X207008D01*
X184153Y274349D02*
X205114D01*
X184423Y275249D02*
X203144D01*
X184408Y276149D02*
X201092D01*
X184104Y277049D02*
X198947D01*
X183378Y277949D02*
X196699D01*
X170942Y278849D02*
X194332D01*
X170387Y279749D02*
X191830D01*
X168923Y280649D02*
X189169D01*
X161333Y281549D02*
X186320D01*
X160433Y282449D02*
X183239D01*
X159533Y283349D02*
X179868D01*
X171143Y277949D02*
X179522D01*
X158633Y284249D02*
X176111D01*
X171067Y277049D02*
X174417D01*
X170687Y276149D02*
X173503D01*
X169806Y275249D02*
X172603D01*
X157733Y285149D02*
X171811D01*
X148282Y274349D02*
X171703D01*
X147341Y273449D02*
X170803D01*
X141647Y272549D02*
X170152D01*
X141647Y271649D02*
X170050D01*
X155671Y270749D02*
X170050D01*
X156889Y269849D02*
X170050D01*
X157458Y268949D02*
X170050D01*
X157714Y268049D02*
X169527D01*
X157727Y267149D02*
X169021D01*
X156972Y265349D02*
X168959D01*
X157224Y264449D02*
X168899D01*
X157499Y266249D02*
X168852D01*
X162233Y280649D02*
X167377D01*
X156833Y286049D02*
X166650D01*
X163133Y279749D02*
X165912D01*
X148378Y275249D02*
X161546D01*
X148378Y276149D02*
X160369D01*
X156415Y286949D02*
X159772D01*
X148378Y277049D02*
X159469D01*
X148378Y277949D02*
X158569D01*
X148131Y278849D02*
X157669D01*
X147553Y279749D02*
X156769D01*
X148240Y280649D02*
X155869D01*
X148378Y281549D02*
X154969D01*
X148378Y282449D02*
X154069D01*
X148378Y283349D02*
X153169D01*
X150671Y270749D02*
X152829D01*
X148378Y284249D02*
X152269D01*
X145671Y270749D02*
X147829D01*
X141686Y273449D02*
X143264D01*
X141691Y270749D02*
X142829D01*
X199239Y234749D02*
X244422D01*
X204017Y235649D02*
X243706D01*
X206129Y236549D02*
X242806D01*
X207372Y237449D02*
X241906D01*
X208265Y238349D02*
X241006D01*
X240065Y233849D02*
X240835D01*
X208937Y239249D02*
X240106D01*
X209447Y240149D02*
X239206D01*
X209826Y241049D02*
X238306D01*
X210092Y241949D02*
X237406D01*
X210255Y242849D02*
X236506D01*
X210321Y243749D02*
X235606D01*
X199250Y233849D02*
X234929D01*
X210293Y244649D02*
X234706D01*
X210169Y245549D02*
X233806D01*
X209945Y246449D02*
X232906D01*
X209612Y247349D02*
X232006D01*
X209156Y248249D02*
X231106D01*
X208553Y249149D02*
X230206D01*
X207758Y250049D02*
X229306D01*
X206679Y250949D02*
X228406D01*
X205050Y251849D02*
X227506D01*
X219997Y214049D02*
X227051D01*
X220897Y213149D02*
X226976D01*
X202963Y252749D02*
X226606D01*
X218419Y214949D02*
X226563D01*
X199250Y216749D02*
X226402D01*
X199250Y215849D02*
X226363D01*
X199250Y217649D02*
X225932D01*
X199250Y218549D02*
X225032D01*
X199250Y219449D02*
X224132D01*
X199250Y220349D02*
X223232D01*
X215875Y221249D02*
X222738D01*
X216603Y222149D02*
X222222D01*
X216908Y223049D02*
X221484D01*
X220169Y226649D02*
X221423D01*
X219281Y225749D02*
X221422D01*
X218393Y224849D02*
X221422D01*
X217505Y223949D02*
X221422D01*
X199250Y232949D02*
X220098D01*
X199250Y232049D02*
X219176D01*
X199250Y231149D02*
X218288D01*
X199250Y230249D02*
X217399D01*
X199250Y229349D02*
X216511D01*
X199250Y228449D02*
X215623D01*
X199250Y227549D02*
X214735D01*
X199250Y226649D02*
X213845D01*
X199250Y221249D02*
X212025D01*
X199250Y225749D02*
X211909D01*
X199250Y222149D02*
X211297D01*
X199250Y224849D02*
X211246D01*
X199250Y223049D02*
X210992D01*
X199250Y223949D02*
X210977D01*
X199250Y189749D02*
X209629D01*
X199250Y195149D02*
X209437D01*
X199250Y196049D02*
X209360D01*
X199250Y200549D02*
X209151D01*
X199250Y190649D02*
X209122D01*
X199250Y201449D02*
X209106D01*
X199250Y194249D02*
X209077D01*
X199250Y199649D02*
X209075D01*
X199250Y198749D02*
X209075D01*
X199250Y197849D02*
X209075D01*
X199250Y196949D02*
X209075D01*
X199250Y193349D02*
X209075D01*
X199250Y192449D02*
X209075D01*
X199250Y191549D02*
X209075D01*
X199250Y214949D02*
X208981D01*
X199250Y202349D02*
X208206D01*
X199250Y214049D02*
X207403D01*
X206339Y188849D02*
X207361D01*
X199250Y203249D02*
X207306D01*
X199250Y213149D02*
X206503D01*
X199250Y204149D02*
X206406D01*
X199250Y212249D02*
X205652D01*
X199250Y205049D02*
X205592D01*
X199250Y211349D02*
X205353D01*
X199250Y210449D02*
X205350D01*
X199250Y209549D02*
X205350D01*
X199250Y208649D02*
X205350D01*
X199250Y207749D02*
X205350D01*
X199250Y206849D02*
X205350D01*
X199250Y205949D02*
X205350D01*
X199250Y188849D02*
X201455D01*
X199250Y187949D02*
X200858D01*
X199250Y187049D02*
X200822D01*
X199250Y186149D02*
X200822D01*
X199697Y185249D02*
X200816D01*
X239122Y196949D02*
X248943D01*
X242668Y197849D02*
X248194D01*
X239633Y196049D02*
X248103D01*
X243160Y198749D02*
X247313D01*
X239719Y195149D02*
X247203D01*
X243178Y199649D02*
X246933D01*
X243178Y200549D02*
X246857D01*
X239719Y194249D02*
X246303D01*
X243178Y201449D02*
X246206D01*
X243161Y202349D02*
X245306D01*
X242671Y203249D02*
X244406D01*
X239719Y193349D02*
X243832D01*
X229000Y188849D02*
X243524D01*
X236447Y204149D02*
X243510D01*
X239719Y192449D02*
X243477D01*
X239717Y191549D02*
X243475D01*
X239368Y190649D02*
X243475D01*
X214547Y189749D02*
X243475D01*
X236427Y205049D02*
X243075D01*
X240675Y207749D02*
X243050D01*
X235273Y206849D02*
X243050D01*
X236101Y205949D02*
X243050D01*
X235675Y207749D02*
X239025D01*
X236765Y203249D02*
X237535D01*
X235539Y187949D02*
X236961D01*
X215178Y190649D02*
X233132D01*
X228718Y191549D02*
X232783D01*
X229271Y194249D02*
X232781D01*
X229271Y193349D02*
X232781D01*
X229248Y192449D02*
X232781D01*
X229271Y195149D02*
X232776D01*
X229271Y196049D02*
X232182D01*
X229241Y196949D02*
X231950D01*
X228803Y197849D02*
X231632D01*
X229060Y198749D02*
X231140D01*
X229061Y202349D02*
X231139D01*
X229078Y201449D02*
X231122D01*
X229078Y200549D02*
X231122D01*
X229078Y199649D02*
X231122D01*
X222025Y191549D02*
X223675D01*
X222307Y188849D02*
X223393D01*
X210597Y205049D02*
X217847D01*
X211497Y204149D02*
X217847D01*
X212397Y203249D02*
X217529D01*
X215225Y198749D02*
X217040D01*
X213297Y202349D02*
X217039D01*
X215225Y197849D02*
X217023D01*
X214333Y201449D02*
X217022D01*
X215149Y200549D02*
X217022D01*
X215225Y199649D02*
X217022D01*
X215225Y191549D02*
X216982D01*
X214797Y188849D02*
X216700D01*
X215225Y196949D02*
X216459D01*
X215225Y192449D02*
X216452D01*
X214940Y196049D02*
X216429D01*
X214863Y195149D02*
X216429D01*
X215223Y194249D02*
X216429D01*
X215225Y193349D02*
X216429D01*
X209697Y205949D02*
X213622D01*
X208953Y206849D02*
X212688D01*
X208950Y207749D02*
X211715D01*
X208950Y208649D02*
X211159D01*
X208973Y210449D02*
X211032D01*
X208950Y209549D02*
X210957D01*
X209967Y211349D02*
X210663D01*
X220668Y181649D02*
X226889D01*
X221027Y182549D02*
X226637D01*
X220743Y180749D02*
X226011D01*
X220573Y179849D02*
X225632D01*
X222471Y183449D02*
X223229D01*
X235342Y180749D02*
X248650D01*
X242704Y181649D02*
X248529D01*
X235448Y179849D02*
X248155D01*
X235278Y178949D02*
X247255D01*
X235314Y178049D02*
X246348D01*
X235270Y181649D02*
X237276D01*
X223250Y103349D02*
X281638D01*
X223383Y102449D02*
X281386D01*
X224104Y101549D02*
X281105D01*
X224408Y100649D02*
X280817D01*
X224423Y99749D02*
X280523D01*
X224153Y98849D02*
X280222D01*
X223488Y97949D02*
X279915D01*
X265278Y97049D02*
X279601D01*
X266409Y96149D02*
X279280D01*
X267044Y95249D02*
X278952D01*
X267407Y94349D02*
X278618D01*
X267565Y93449D02*
X278276D01*
X273649Y92549D02*
X277928D01*
X275013Y91649D02*
X277573D01*
X275735Y90749D02*
X277210D01*
X276418Y89849D02*
X276588D01*
X269312Y83549D02*
X274043D01*
X270474Y82649D02*
X273621D01*
X271122Y81749D02*
X273184D01*
X271495Y80849D02*
X272740D01*
X267540Y92549D02*
X270138D01*
X262856Y84449D02*
X269750D01*
X264903Y74549D02*
X269403D01*
X268968Y75449D02*
X269151D01*
X265916Y73649D02*
X268893D01*
X267328Y91649D02*
X268774D01*
X262736Y85349D02*
X268591D01*
X266499Y72749D02*
X268375D01*
X266899Y90749D02*
X268052D01*
X262418Y86249D02*
X267944D01*
X266825Y71849D02*
X267847D01*
X266163Y89849D02*
X267631D01*
X261848Y87149D02*
X267573D01*
X264756Y88949D02*
X267426D01*
X260858Y88049D02*
X267408D01*
X258139Y75449D02*
X265411D01*
X262794Y83549D02*
X265038D01*
X258057Y76349D02*
X264052D01*
X238143Y65549D02*
X263900D01*
X262541Y82649D02*
X263876D01*
X257782Y77249D02*
X263331D01*
X237068Y64649D02*
X263298D01*
X262060Y81749D02*
X263227D01*
X257270Y78149D02*
X262911D01*
X237613Y104249D02*
X262860D01*
X261237Y80849D02*
X262855D01*
X261805Y178949D02*
X262850D01*
X261294Y178049D02*
X262850D01*
X260394Y177149D02*
X262850D01*
X259494Y176249D02*
X262850D01*
X258843Y175349D02*
X262850D01*
X258767Y174449D02*
X262850D01*
X258387Y173549D02*
X262850D01*
X257506Y172649D02*
X262850D01*
X232794Y171749D02*
X262850D01*
X231894Y170849D02*
X262850D01*
X230994Y169949D02*
X262850D01*
X230094Y169049D02*
X262850D01*
X229194Y168149D02*
X262850D01*
X228294Y167249D02*
X262850D01*
X227394Y166349D02*
X262850D01*
X226494Y165449D02*
X262850D01*
X225594Y164549D02*
X262850D01*
X224694Y163649D02*
X262850D01*
X223794Y162749D02*
X262850D01*
X223250Y161849D02*
X262850D01*
X223250Y160949D02*
X262850D01*
X223250Y160049D02*
X262850D01*
X223250Y159149D02*
X262850D01*
X223250Y158249D02*
X262850D01*
X223250Y157349D02*
X262850D01*
X223250Y156449D02*
X262850D01*
X223250Y155549D02*
X262850D01*
X223250Y154649D02*
X262850D01*
X223250Y153749D02*
X262850D01*
X223250Y152849D02*
X262850D01*
X223250Y151949D02*
X262850D01*
X223250Y151049D02*
X262850D01*
X233952Y150149D02*
X262850D01*
X239549Y149249D02*
X262850D01*
X240523Y148349D02*
X262850D01*
X240951Y147449D02*
X262850D01*
X257452Y146549D02*
X262850D01*
X258249Y145649D02*
X262850D01*
X258590Y144749D02*
X262850D01*
X258635Y143849D02*
X262850D01*
X258399Y142949D02*
X262850D01*
X257791Y142049D02*
X262850D01*
X251341Y141149D02*
X262850D01*
X245279Y140249D02*
X262850D01*
X245887Y139349D02*
X262850D01*
X246787Y138449D02*
X262850D01*
X247687Y137549D02*
X262850D01*
X248587Y136649D02*
X262850D01*
X249487Y135749D02*
X262850D01*
X250387Y134849D02*
X262850D01*
X251287Y133949D02*
X262850D01*
X252187Y133049D02*
X262850D01*
X253087Y132149D02*
X262850D01*
X253987Y131249D02*
X262850D01*
X254851Y130349D02*
X262850D01*
X255277Y129449D02*
X262850D01*
X255350Y128549D02*
X262850D01*
X255350Y127649D02*
X262850D01*
X255350Y126749D02*
X262850D01*
X255350Y125849D02*
X262850D01*
X255350Y124949D02*
X262850D01*
X255350Y124049D02*
X262850D01*
X255350Y123149D02*
X262850D01*
X255350Y122249D02*
X262850D01*
X255350Y121349D02*
X262850D01*
X255350Y120449D02*
X262850D01*
X255350Y119549D02*
X262850D01*
X255350Y118649D02*
X262850D01*
X255350Y117749D02*
X262850D01*
X255350Y116849D02*
X262850D01*
X255350Y115949D02*
X262850D01*
X255350Y115049D02*
X262850D01*
X255350Y114149D02*
X262850D01*
X255350Y113249D02*
X262850D01*
X255182Y112349D02*
X262850D01*
X254584Y111449D02*
X262850D01*
X253684Y110549D02*
X262850D01*
X252784Y109649D02*
X262850D01*
X251884Y108749D02*
X262850D01*
X250984Y107849D02*
X262850D01*
X250084Y106949D02*
X262850D01*
X249184Y106049D02*
X262850D01*
X248248Y105149D02*
X262850D01*
X256394Y79049D02*
X262707D01*
X259478Y79949D02*
X262689D01*
X235448Y63749D02*
X262686D01*
X214998Y62849D02*
X262064D01*
X218052Y61949D02*
X261432D01*
X143548Y88949D02*
X261398D01*
X238936Y66449D02*
X261207D01*
X214880Y97049D02*
X260876D01*
X218849Y61049D02*
X260790D01*
X219190Y60149D02*
X260137D01*
X258040Y74549D02*
X260010D01*
X195324Y89849D02*
X259991D01*
X215131Y96149D02*
X259745D01*
X239537Y67349D02*
X259535D01*
X219235Y59249D02*
X259473D01*
X214341Y90749D02*
X259255D01*
X215378Y95249D02*
X259110D01*
X257745Y73649D02*
X258996D01*
X215282Y91649D02*
X258826D01*
X218999Y58349D02*
X258798D01*
X215378Y94349D02*
X258747D01*
X239991Y68249D02*
X258730D01*
X215378Y92549D02*
X258614D01*
X215378Y93449D02*
X258589D01*
X257208Y72749D02*
X258414D01*
X240323Y69149D02*
X258259D01*
X256794Y199649D02*
X258250D01*
X255894Y198749D02*
X258250D01*
X254994Y197849D02*
X258250D01*
X254094Y196949D02*
X258250D01*
X253194Y196049D02*
X258250D01*
X252294Y195149D02*
X258250D01*
X251394Y194249D02*
X258250D01*
X250494Y193349D02*
X258250D01*
X250184Y192449D02*
X258250D01*
X251150Y191549D02*
X258250D01*
X251981Y190649D02*
X258250D01*
X252249Y189749D02*
X258250D01*
X252250Y188849D02*
X258250D01*
X252250Y187949D02*
X258250D01*
X252250Y187049D02*
X258250D01*
X252250Y186149D02*
X258250D01*
X252250Y185249D02*
X258250D01*
X252250Y184349D02*
X258250D01*
X252250Y183449D02*
X258250D01*
X252250Y182549D02*
X258250D01*
X252250Y181649D02*
X258250D01*
X252250Y180749D02*
X258250D01*
X218391Y57449D02*
X258112D01*
X256283Y71849D02*
X258087D01*
X240546Y70049D02*
X258015D01*
X252250Y179849D02*
X258003D01*
X240669Y70949D02*
X257960D01*
X218050Y56549D02*
X257414D01*
X254252Y79949D02*
X257239D01*
X252129Y178949D02*
X257103D01*
X218050Y55649D02*
X256705D01*
X230536Y54749D02*
X255984D01*
X144448Y88049D02*
X255858D01*
X150100Y80849D02*
X255479D01*
X232308Y53849D02*
X255252D01*
X251447Y178049D02*
X255077D01*
X145348Y87149D02*
X254869D01*
X150024Y81749D02*
X254656D01*
X233379Y52949D02*
X254507D01*
X146248Y86249D02*
X254299D01*
X233694Y172649D02*
X254194D01*
X149680Y82649D02*
X254175D01*
X147148Y85349D02*
X253980D01*
X148948Y83549D02*
X253923D01*
X148048Y84449D02*
X253860D01*
X252131Y146549D02*
X253848D01*
X234133Y52049D02*
X253749D01*
X250547Y177149D02*
X253613D01*
X252283Y142049D02*
X253509D01*
X234594Y173549D02*
X253313D01*
X249647Y176249D02*
X253058D01*
X234357Y79949D02*
X253027D01*
X234682Y51149D02*
X252979D01*
X247590Y174449D02*
X252933D01*
X248747Y175349D02*
X252857D01*
X235073Y50249D02*
X252195D01*
X235332Y49349D02*
X251399D01*
X240696Y71849D02*
X250996D01*
X236488Y79049D02*
X250884D01*
X235472Y48449D02*
X250588D01*
X243750Y126749D02*
X250350D01*
X243750Y125849D02*
X250350D01*
X243750Y124949D02*
X250350D01*
X243750Y124049D02*
X250350D01*
X243750Y123149D02*
X250350D01*
X243750Y122249D02*
X250350D01*
X243750Y121349D02*
X250350D01*
X243750Y120449D02*
X250350D01*
X243750Y119549D02*
X250350D01*
X243750Y118649D02*
X250350D01*
X243750Y117749D02*
X250350D01*
X243750Y116849D02*
X250350D01*
X243750Y115949D02*
X250350D01*
X243750Y115049D02*
X250350D01*
X243751Y127649D02*
X250348D01*
X243750Y114149D02*
X250213D01*
X240629Y72749D02*
X250071D01*
X237737Y78149D02*
X250008D01*
X235502Y47549D02*
X249764D01*
X244421Y128549D02*
X249616D01*
X240465Y73649D02*
X249534D01*
X238631Y77249D02*
X249497D01*
X243883Y113249D02*
X249313D01*
X240198Y74549D02*
X249239D01*
X239306Y76349D02*
X249222D01*
X239818Y75449D02*
X249140D01*
X235422Y46649D02*
X248925D01*
X244841Y129449D02*
X248716D01*
X244604Y112349D02*
X248413D01*
X235228Y45749D02*
X248072D01*
X244948Y130349D02*
X247816D01*
X244908Y111449D02*
X247513D01*
X245441Y141149D02*
X247264D01*
X234911Y44849D02*
X247204D01*
X244779Y131249D02*
X246916D01*
X244923Y110549D02*
X246613D01*
X234452Y43949D02*
X246320D01*
X244273Y132149D02*
X246016D01*
X233817Y43049D02*
X245421D01*
X243030Y133049D02*
X245116D01*
X232937Y42149D02*
X244505D01*
X234450Y133949D02*
X244216D01*
X231635Y41249D02*
X243573D01*
X234450Y134849D02*
X243316D01*
X218050Y40349D02*
X242624D01*
X234450Y135749D02*
X242416D01*
X218050Y39449D02*
X241657D01*
X234450Y136649D02*
X240956D01*
X234450Y133049D02*
X240870D01*
X218050Y38549D02*
X240671D01*
X234450Y142049D02*
X240418D01*
X230394Y126749D02*
X240150D01*
X229494Y125849D02*
X240150D01*
X228594Y124949D02*
X240150D01*
X227694Y124049D02*
X240150D01*
X227535Y123149D02*
X240150D01*
X227299Y122249D02*
X240150D01*
X226691Y121349D02*
X240150D01*
X223458Y120449D02*
X240150D01*
X223250Y119549D02*
X240150D01*
X223250Y118649D02*
X240150D01*
X223250Y117749D02*
X240150D01*
X223250Y116849D02*
X240150D01*
X223250Y115949D02*
X240150D01*
X223250Y115049D02*
X240150D01*
X223250Y114149D02*
X240150D01*
X231294Y127649D02*
X240149D01*
X234450Y141149D02*
X240127D01*
X223250Y113249D02*
X240017D01*
X234450Y137549D02*
X239979D01*
X218050Y37649D02*
X239667D01*
X234450Y132149D02*
X239627D01*
X234450Y140249D02*
X239621D01*
X234450Y138449D02*
X239559D01*
X232194Y128549D02*
X239479D01*
X234450Y139349D02*
X239452D01*
X223250Y112349D02*
X239296D01*
X234450Y142949D02*
X239206D01*
X234425Y131249D02*
X239121D01*
X233094Y129449D02*
X239059D01*
X223250Y111449D02*
X238992D01*
X223250Y110549D02*
X238977D01*
X233990Y130349D02*
X238952D01*
X218050Y36749D02*
X238644D01*
X218050Y35849D02*
X237601D01*
X234450Y143849D02*
X236976D01*
X234749Y149249D02*
X236551D01*
X218050Y34949D02*
X236537D01*
X223250Y104249D02*
X236087D01*
X234450Y144749D02*
X235729D01*
X218050Y34049D02*
X235452D01*
X223250Y109649D02*
X235190D01*
X223250Y105149D02*
X234615D01*
X218050Y33149D02*
X234344D01*
X223250Y108749D02*
X234311D01*
X223250Y106049D02*
X234059D01*
X223250Y107849D02*
X233932D01*
X223250Y106949D02*
X233857D01*
X218050Y32249D02*
X233214D01*
X218050Y31349D02*
X232059D01*
X218050Y30449D02*
X230880D01*
X223250Y143849D02*
X230850D01*
X223250Y142949D02*
X230850D01*
X223250Y142049D02*
X230850D01*
X223250Y141149D02*
X230850D01*
X223250Y140249D02*
X230850D01*
X223250Y139349D02*
X230850D01*
X223250Y138449D02*
X230850D01*
X223250Y137549D02*
X230850D01*
X223250Y136649D02*
X230850D01*
X223250Y135749D02*
X230850D01*
X223250Y134849D02*
X230850D01*
X223250Y133949D02*
X230850D01*
X223250Y133049D02*
X230850D01*
X223250Y144749D02*
X230850D01*
X223250Y132149D02*
X230703D01*
X223250Y150149D02*
X230348D01*
X223250Y145649D02*
X230009D01*
X150100Y79949D02*
X229866D01*
X223250Y131249D02*
X229803D01*
X218050Y29549D02*
X229675D01*
X223250Y149249D02*
X229551D01*
X223250Y146549D02*
X229401D01*
X223250Y148349D02*
X229210D01*
X223250Y147449D02*
X229165D01*
X223250Y130349D02*
X228903D01*
X215403Y63749D02*
X228776D01*
X218050Y28649D02*
X228443D01*
X223250Y129449D02*
X228003D01*
X150100Y79049D02*
X227736D01*
X220131Y171749D02*
X227691D01*
X221031Y172649D02*
X227252D01*
X218050Y27749D02*
X227183D01*
X215708Y64649D02*
X227156D01*
X223250Y128549D02*
X227103D01*
X218954Y170849D02*
X226803D01*
X153560Y78149D02*
X226487D01*
X223250Y127649D02*
X226203D01*
X215723Y65549D02*
X226081D01*
X196708Y169949D02*
X225903D01*
X218050Y26849D02*
X225893D01*
X218050Y54749D02*
X225663D01*
X204419Y77249D02*
X225592D01*
X223262Y126749D02*
X225303D01*
X215454Y66449D02*
X225288D01*
X196723Y169049D02*
X225003D01*
X205997Y76349D02*
X224918D01*
X214791Y67349D02*
X224686D01*
X218050Y25949D02*
X224572D01*
X218050Y41249D02*
X224563D01*
X220030Y75449D02*
X224406D01*
X212301Y68249D02*
X224232D01*
X196453Y168149D02*
X224103D01*
X221273Y74549D02*
X224025D01*
X212208Y69149D02*
X223901D01*
X218050Y53849D02*
X223891D01*
X221779Y73649D02*
X223758D01*
X220444Y70049D02*
X223678D01*
X221948Y72749D02*
X223594D01*
X221421Y70949D02*
X223555D01*
X221841Y71849D02*
X223527D01*
X218050Y42149D02*
X223261D01*
X218050Y25049D02*
X223219D01*
X195816Y167249D02*
X223203D01*
X218050Y52949D02*
X222820D01*
X218050Y43049D02*
X222382D01*
X195750Y166349D02*
X222303D01*
X218050Y52049D02*
X222065D01*
X217947Y24149D02*
X221832D01*
X218050Y43949D02*
X221747D01*
X218050Y51149D02*
X221517D01*
X195750Y165449D02*
X221403D01*
X218050Y44849D02*
X221288D01*
X218050Y50249D02*
X221126D01*
X218050Y45749D02*
X220971D01*
X218050Y49349D02*
X220867D01*
X218050Y46649D02*
X220777D01*
X218050Y48449D02*
X220726D01*
X218050Y47549D02*
X220697D01*
X195750Y164549D02*
X220503D01*
X217259Y23249D02*
X220408D01*
X195750Y163649D02*
X219791D01*
X195750Y162749D02*
X219650D01*
X195750Y161849D02*
X219650D01*
X195750Y160949D02*
X219650D01*
X195750Y160049D02*
X219650D01*
X195750Y159149D02*
X219650D01*
X195750Y158249D02*
X219650D01*
X195750Y157349D02*
X219650D01*
X195750Y156449D02*
X219650D01*
X195750Y155549D02*
X219650D01*
X195750Y154649D02*
X219650D01*
X195750Y153749D02*
X219650D01*
X195750Y152849D02*
X219650D01*
X195750Y151949D02*
X219650D01*
X195750Y151049D02*
X219650D01*
X195750Y150149D02*
X219650D01*
X195750Y149249D02*
X219650D01*
X195750Y148349D02*
X219650D01*
X195709Y147449D02*
X219650D01*
X195269Y146549D02*
X219650D01*
X194377Y145649D02*
X219650D01*
X193477Y144749D02*
X219650D01*
X192577Y143849D02*
X219650D01*
X191677Y142949D02*
X219650D01*
X185575Y142049D02*
X219650D01*
X181370Y141149D02*
X219650D01*
X181677Y140249D02*
X219650D01*
X181678Y139349D02*
X219650D01*
X181678Y138449D02*
X219650D01*
X181678Y137549D02*
X219650D01*
X181616Y136649D02*
X219650D01*
X180878Y135749D02*
X219650D01*
X168450Y134849D02*
X219650D01*
X168450Y133949D02*
X219650D01*
X168450Y133049D02*
X219650D01*
X168450Y132149D02*
X219650D01*
X168450Y131249D02*
X219650D01*
X168460Y130349D02*
X219650D01*
X178305Y129449D02*
X219650D01*
X179240Y128549D02*
X219650D01*
X180075Y127649D02*
X219650D01*
X204223Y126749D02*
X219650D01*
X205687Y125849D02*
X219650D01*
X206242Y124949D02*
X219650D01*
X206787Y124049D02*
X219650D01*
X207687Y123149D02*
X219650D01*
X208533Y122249D02*
X219650D01*
X208865Y121349D02*
X219650D01*
X208897Y120449D02*
X219650D01*
X208897Y119549D02*
X219650D01*
X208897Y118649D02*
X219650D01*
X208897Y117749D02*
X219650D01*
X208897Y116849D02*
X219650D01*
X208897Y115949D02*
X219650D01*
X208897Y115049D02*
X219650D01*
X215131Y114149D02*
X219650D01*
X215378Y113249D02*
X219650D01*
X215378Y112349D02*
X219650D01*
X215378Y111449D02*
X219650D01*
X215378Y110549D02*
X219650D01*
X215282Y109649D02*
X219650D01*
X214681Y108749D02*
X219650D01*
X215191Y107849D02*
X219650D01*
X215378Y106949D02*
X219650D01*
X215378Y106049D02*
X219650D01*
X215378Y105149D02*
X219650D01*
X215378Y104249D02*
X219650D01*
X215240Y103349D02*
X219650D01*
X214918Y102449D02*
X219517D01*
X215360Y97949D02*
X219412D01*
X216169Y22349D02*
X218947D01*
X215361Y101549D02*
X218796D01*
X215378Y98849D02*
X218747D01*
X215378Y100649D02*
X218492D01*
X215378Y99749D02*
X218477D01*
X206897Y75449D02*
X217870D01*
X212223Y70049D02*
X217456D01*
X215080Y21449D02*
X217445D01*
X207804Y74549D02*
X216610D01*
X214073Y20549D02*
X215899D01*
X208436Y90749D02*
X210264D01*
X196762D02*
X204316D01*
X181078Y119549D02*
X203897D01*
X181078Y118649D02*
X203897D01*
X181016Y117749D02*
X203897D01*
X180773Y116849D02*
X203897D01*
X181077Y115949D02*
X203897D01*
X181078Y115049D02*
X203897D01*
X156813Y102449D02*
X203633D01*
X181078Y114149D02*
X203569D01*
X180503Y109649D02*
X203418D01*
X132887Y97049D02*
X203355D01*
X131423Y97949D02*
X203340D01*
X117559Y101549D02*
X203339D01*
X181078Y113249D02*
X203322D01*
X181016Y112349D02*
X203322D01*
X180509Y111449D02*
X203322D01*
X180503Y110549D02*
X203322D01*
X117559Y100649D02*
X203322D01*
X117559Y99749D02*
X203322D01*
X117559Y98849D02*
X203322D01*
X181078Y120449D02*
X203316D01*
X180453Y126749D02*
X202677D01*
X181077Y121349D02*
X201794D01*
X180503Y108749D02*
X201777D01*
X180503Y125849D02*
X201213D01*
X180759Y122249D02*
X200913D01*
X177601Y103349D02*
X200894D01*
X180503Y124949D02*
X200658D01*
X180503Y123149D02*
X200533D01*
X180503Y124049D02*
X200457D01*
X180503Y107849D02*
X200313D01*
X178537Y104249D02*
X200013D01*
X180485Y106949D02*
X199758D01*
X179437Y105149D02*
X199633D01*
X180195Y106049D02*
X199557D01*
X133442Y96149D02*
X193248D01*
X142648Y89849D02*
X193176D01*
X133643Y95249D02*
X192306D01*
X141748Y90749D02*
X191929D01*
X133567Y94349D02*
X191596D01*
X140848Y91649D02*
X191422D01*
X133239Y93449D02*
X191292D01*
X139720Y92549D02*
X191252D01*
X174972Y135749D02*
X176328D01*
X152284Y124049D02*
X175503D01*
X151384Y123149D02*
X175503D01*
X128532Y110549D02*
X175503D01*
X128522Y109649D02*
X175503D01*
X128326Y108749D02*
X175503D01*
X174372Y111449D02*
X175474D01*
X156028Y124949D02*
X175039D01*
X168450Y135749D02*
X170422D01*
X156013Y111449D02*
X169822D01*
X168450Y136649D02*
X169684D01*
X157010Y122249D02*
X169341D01*
X168973Y137549D02*
X169272D01*
X157485Y112349D02*
X169060D01*
X117557Y102449D02*
X155287D01*
X128359Y111449D02*
X154487D01*
X127917Y107849D02*
X154390D01*
X117385Y103349D02*
X153815D01*
X150484Y122249D02*
X153690D01*
X127213Y106949D02*
X153511D01*
X114491Y116849D02*
X153511D01*
X116874Y104249D02*
X153259D01*
X125902Y106049D02*
X153132D01*
X115247Y117749D02*
X153115D01*
X115678Y105149D02*
X153057D01*
X127976Y112349D02*
X153015D01*
X115650Y121349D02*
X152811D01*
X113591Y115949D02*
X152711D01*
X115589Y118649D02*
X152559D01*
X127313Y113249D02*
X152459D01*
X115650Y120449D02*
X152432D01*
X115650Y119549D02*
X152357D01*
X112970Y115049D02*
X152332D01*
X126114Y114149D02*
X152257D01*
X150285Y78149D02*
X150940D01*
X139846Y57449D02*
X148755D01*
X139925Y58349D02*
X147855D01*
X139925Y59249D02*
X146955D01*
X139925Y60149D02*
X146055D01*
X139925Y61049D02*
X145155D01*
X62348Y49349D02*
X145150D01*
X63248Y48449D02*
X145150D01*
X64148Y47549D02*
X145150D01*
X65048Y46649D02*
X145150D01*
X65948Y45749D02*
X145150D01*
X66848Y44849D02*
X145150D01*
X67748Y43949D02*
X145150D01*
X68648Y43049D02*
X145150D01*
X69548Y42149D02*
X145150D01*
X70448Y41249D02*
X145150D01*
X71348Y40349D02*
X145150D01*
X72248Y39449D02*
X145150D01*
X73148Y38549D02*
X145150D01*
X118159Y37649D02*
X145150D01*
X118477Y36749D02*
X145150D01*
X61448Y50249D02*
X145126D01*
X118478Y35849D02*
X145082D01*
X139646Y61949D02*
X144289D01*
X118478Y34949D02*
X144206D01*
X107491Y62849D02*
X143792D01*
X107196Y63749D02*
X143606D01*
X125150Y79049D02*
X143600D01*
X125150Y78149D02*
X143600D01*
X125150Y77249D02*
X143600D01*
X125150Y76349D02*
X143600D01*
X125150Y75449D02*
X143600D01*
X125150Y74549D02*
X143600D01*
X125150Y73649D02*
X143600D01*
X125150Y72749D02*
X143600D01*
X125150Y71849D02*
X143600D01*
X125150Y70949D02*
X143600D01*
X125150Y70049D02*
X143600D01*
X125089Y69149D02*
X143600D01*
X124747Y68249D02*
X143600D01*
X123948Y67349D02*
X143600D01*
X107678Y66449D02*
X143600D01*
X107678Y65549D02*
X143600D01*
X107660Y64649D02*
X143600D01*
X125150Y79949D02*
X143355D01*
X118478Y34049D02*
X143327D01*
X118416Y33149D02*
X142821D01*
X112497Y25049D02*
X142697D01*
X119370Y24149D02*
X142697D01*
X122908Y18749D02*
X142697D01*
X122782Y17849D02*
X142697D01*
X122494Y16949D02*
X142697D01*
X122013Y16049D02*
X142697D01*
X120935Y23249D02*
X142697D01*
X117776Y32249D02*
X142652D01*
X118159Y31349D02*
X142650D01*
X118477Y30449D02*
X142650D01*
X118478Y29549D02*
X142650D01*
X118478Y28649D02*
X142622D01*
X118478Y27749D02*
X142622D01*
X118416Y26849D02*
X142622D01*
X117678Y25949D02*
X142622D01*
X121802Y22349D02*
X142622D01*
X122359Y21449D02*
X142622D01*
X122706Y20549D02*
X142622D01*
X122884Y19649D02*
X142622D01*
X125150Y80849D02*
X142455D01*
X137451Y15149D02*
X141649D01*
X131413Y81749D02*
X141555D01*
X132885Y82649D02*
X140655D01*
X138535Y14249D02*
X140565D01*
X139254Y13349D02*
X139846D01*
X133441Y83549D02*
X139755D01*
X133643Y84449D02*
X138855D01*
X133568Y85349D02*
X137955D01*
X133561Y86249D02*
X137055D01*
X132846Y61949D02*
X134054D01*
X121266Y15149D02*
X131649D01*
X120041Y14249D02*
X130565D01*
X123039Y13349D02*
X129889D01*
X117559Y97949D02*
X129877D01*
X125094Y12449D02*
X129455D01*
X125994Y11549D02*
X129205D01*
X127794Y9749D02*
X129172D01*
X125150Y81749D02*
X129134D01*
X126894Y10649D02*
X129114D01*
X117559Y97049D02*
X128413D01*
X125859Y82649D02*
X127656D01*
X84842Y56549D02*
X127526D01*
X60548Y51149D02*
X127256D01*
X107678Y61949D02*
X127254D01*
X84850Y57449D02*
X127054D01*
X84420Y55649D02*
X127053D01*
X107678Y61049D02*
X126975D01*
X107678Y60149D02*
X126975D01*
X107678Y59249D02*
X126975D01*
X107540Y58349D02*
X126975D01*
X56948Y54749D02*
X126975D01*
X57848Y53849D02*
X126975D01*
X58748Y52949D02*
X126975D01*
X59648Y52049D02*
X126975D01*
X117559Y96149D02*
X126750D01*
X117559Y95249D02*
X125850D01*
X121417Y3449D02*
X125429D01*
X116487Y4349D02*
X124709D01*
X112325Y5249D02*
X123809D01*
X108664Y6149D02*
X122909D01*
X117559Y88949D02*
X122615D01*
X117559Y94349D02*
X122289D01*
X115902Y106049D02*
X122198D01*
X117559Y89849D02*
X122192D01*
X117559Y88049D02*
X122100D01*
X117559Y93449D02*
X122075D01*
X117559Y92549D02*
X122075D01*
X117559Y91649D02*
X122075D01*
X117559Y90749D02*
X122075D01*
X105363Y7049D02*
X122009D01*
X116114Y114149D02*
X121986D01*
X117559Y87149D02*
X120906D01*
X117213Y106949D02*
X120887D01*
X117313Y113249D02*
X120787D01*
X107678Y67349D02*
X120352D01*
X117917Y107849D02*
X120183D01*
X117976Y112349D02*
X120124D01*
X117559Y86249D02*
X120006D01*
X118326Y108749D02*
X119774D01*
X118359Y111449D02*
X119741D01*
X118522Y109649D02*
X119578D01*
X118532Y110549D02*
X119568D01*
X107661Y68249D02*
X119553D01*
X115650Y122249D02*
X119416D01*
X117559Y85349D02*
X119400D01*
X107537Y69149D02*
X119211D01*
X117559Y84449D02*
X119165D01*
X117559Y83549D02*
X119150D01*
X117559Y82649D02*
X119150D01*
X117559Y81749D02*
X119150D01*
X117544Y80849D02*
X119150D01*
X117308Y79949D02*
X119150D01*
X116700Y79049D02*
X119150D01*
X115800Y78149D02*
X119150D01*
X114900Y77249D02*
X119150D01*
X114000Y76349D02*
X119150D01*
X113100Y75449D02*
X119150D01*
X112200Y74549D02*
X119150D01*
X111360Y73649D02*
X119150D01*
X111326Y72749D02*
X119150D01*
X111326Y71849D02*
X119150D01*
X111326Y70949D02*
X119150D01*
X111057Y70049D02*
X119150D01*
X115650Y123149D02*
X118516D01*
X115650Y124049D02*
X117616D01*
X115650Y124949D02*
X116780D01*
X112497Y24149D02*
X115589D01*
X112497Y23249D02*
X114024D01*
X112913Y25949D02*
X113082D01*
X102337Y7949D02*
X112652D01*
X99532Y8849D02*
X111709D01*
X96909Y9749D02*
X110809D01*
X94438Y10649D02*
X109909D01*
X92099Y11549D02*
X109009D01*
X89874Y12449D02*
X108109D01*
X87750Y13349D02*
X107209D01*
X85243Y37649D02*
X106741D01*
X87045Y32249D02*
X106497D01*
X86511Y31349D02*
X106497D01*
X64728Y25949D02*
X106497D01*
X66081Y25049D02*
X106497D01*
X87324Y33149D02*
X106484D01*
X63407Y26849D02*
X106484D01*
X86348Y36749D02*
X106423D01*
X85559Y30449D02*
X106423D01*
X86952Y35849D02*
X106422D01*
X87281Y34949D02*
X106422D01*
X87399Y34049D02*
X106422D01*
X59625Y29549D02*
X106422D01*
X60857Y28649D02*
X106422D01*
X62117Y27749D02*
X106422D01*
X99370Y24149D02*
X105589D01*
X84849Y89849D02*
X104950D01*
X100029Y14249D02*
X104930D01*
X99232Y88949D02*
X104839D01*
X99362Y79049D02*
X104807D01*
X99640Y79949D02*
X104460D01*
X99705Y70049D02*
X104395D01*
X99866Y88049D02*
X104234D01*
X99866Y78149D02*
X104234D01*
X99908Y87149D02*
X104192D01*
X99908Y86249D02*
X104192D01*
X99908Y85349D02*
X104192D01*
X99908Y84449D02*
X104192D01*
X99908Y83549D02*
X104192D01*
X99908Y82649D02*
X104192D01*
X99908Y81749D02*
X104192D01*
X99908Y80849D02*
X104192D01*
X99908Y77249D02*
X104192D01*
X99908Y76349D02*
X104192D01*
X99908Y75449D02*
X104192D01*
X99908Y74549D02*
X104192D01*
X99908Y73649D02*
X104192D01*
X99908Y72749D02*
X104192D01*
X99908Y71849D02*
X104192D01*
X99908Y70949D02*
X104192D01*
X100935Y23249D02*
X104024D01*
X101266Y15149D02*
X103694D01*
X101802Y22349D02*
X103157D01*
X102013Y16049D02*
X102947D01*
X101265Y69149D02*
X102035D01*
X100563Y90749D02*
X101337D01*
X92994Y103349D02*
X99009D01*
X92087Y104249D02*
X98109D01*
X91180Y105149D02*
X96915D01*
X84750Y160049D02*
X96400D01*
X84723Y159149D02*
X96400D01*
X84453Y158249D02*
X96400D01*
X83788Y157349D02*
X96400D01*
X69794Y156449D02*
X96400D01*
X70694Y155549D02*
X96400D01*
X71594Y154649D02*
X96400D01*
X72494Y153749D02*
X96400D01*
X73394Y152849D02*
X96400D01*
X74294Y151949D02*
X96400D01*
X75194Y151049D02*
X96400D01*
X76094Y150149D02*
X96400D01*
X76994Y149249D02*
X96400D01*
X77894Y148349D02*
X96400D01*
X78794Y147449D02*
X96400D01*
X79694Y146549D02*
X96400D01*
X80594Y145649D02*
X96400D01*
X81494Y144749D02*
X96400D01*
X82394Y143849D02*
X96400D01*
X83251Y142949D02*
X96400D01*
X83712Y142049D02*
X96400D01*
X83850Y141149D02*
X96400D01*
X83850Y140249D02*
X96400D01*
X83850Y139349D02*
X96400D01*
X83850Y138449D02*
X96400D01*
X83850Y137549D02*
X96400D01*
X83850Y136649D02*
X96400D01*
X83850Y135749D02*
X96400D01*
X83850Y134849D02*
X96400D01*
X83850Y133949D02*
X96400D01*
X83850Y133049D02*
X96400D01*
X83850Y132149D02*
X96400D01*
X83850Y131249D02*
X96400D01*
X83850Y130349D02*
X96400D01*
X83850Y129449D02*
X96400D01*
X83850Y128549D02*
X96400D01*
X83850Y127649D02*
X96400D01*
X83850Y126749D02*
X96400D01*
X83850Y125849D02*
X96400D01*
X83850Y124949D02*
X96400D01*
X83850Y124049D02*
X96400D01*
X83850Y123149D02*
X96400D01*
X83850Y122249D02*
X96400D01*
X83850Y121349D02*
X96400D01*
X83850Y120449D02*
X96400D01*
X83850Y119549D02*
X96400D01*
X83850Y118649D02*
X96400D01*
X83850Y117749D02*
X96400D01*
X83935Y116849D02*
X96400D01*
X83962Y115949D02*
X96400D01*
X83962Y115049D02*
X96400D01*
X95928Y106049D02*
X96136D01*
X84940Y58349D02*
X95760D01*
X88150Y62849D02*
X95697D01*
X88123Y61949D02*
X95622D01*
X87853Y61049D02*
X95622D01*
X87191Y60149D02*
X95622D01*
X86291Y59249D02*
X95622D01*
X67468Y24149D02*
X95589D01*
X84512Y90749D02*
X95432D01*
X84005Y96149D02*
X95108D01*
X62200Y91649D02*
X94940D01*
X83548Y95249D02*
X94939D01*
X85717Y14249D02*
X94930D01*
X82837Y94349D02*
X94922D01*
X81681Y93449D02*
X94922D01*
X62200Y92549D02*
X94922D01*
X68892Y23249D02*
X94024D01*
X83765Y15149D02*
X93694D01*
X84850Y88949D02*
X93451D01*
X83729Y79049D02*
X93321D01*
X70353Y22349D02*
X93157D01*
X84745Y79949D02*
X93043D01*
X81886Y16049D02*
X92947D01*
X61300Y78149D02*
X92817D01*
X84850Y80849D02*
X92774D01*
X84860Y81749D02*
X92765D01*
X71855Y21449D02*
X92600D01*
X80075Y16949D02*
X92466D01*
X73401Y20549D02*
X92253D01*
X90273Y106049D02*
X92198D01*
X78325Y17849D02*
X92177D01*
X74992Y19649D02*
X92076D01*
X76632Y18749D02*
X92051D01*
X83962Y114149D02*
X91986D01*
X88150Y63749D02*
X91245D01*
X89366Y106949D02*
X90887D01*
X84274Y97049D02*
X90866D01*
X84039Y113249D02*
X90787D01*
X88459Y107849D02*
X90183D01*
X88150Y64649D02*
X90151D01*
X84675Y112349D02*
X90124D01*
X84383Y97949D02*
X89918D01*
X87552Y108749D02*
X89774D01*
X84942Y111449D02*
X89741D01*
X86645Y109649D02*
X89578D01*
X85738Y110549D02*
X89568D01*
X88123Y65549D02*
X89509D01*
X84342Y98849D02*
X89011D01*
X84147Y99749D02*
X88104D01*
X61300Y77249D02*
X87377D01*
X83779Y100649D02*
X87197D01*
X83194Y101549D02*
X86290D01*
X49900Y68249D02*
X86110D01*
X49900Y69149D02*
X85909D01*
X61300Y76349D02*
X85906D01*
X82279Y102449D02*
X85383D01*
X49900Y70049D02*
X85009D01*
X61300Y75449D02*
X85006D01*
X80542Y103349D02*
X84476D01*
X49900Y70949D02*
X84151D01*
X61262Y74549D02*
X84149D01*
X49900Y71849D02*
X83689D01*
X60655Y73649D02*
X83688D01*
X45768Y104249D02*
X83569D01*
X49900Y72749D02*
X83550D01*
X45907Y105149D02*
X82662D01*
X45949Y106049D02*
X81755D01*
X77062Y37649D02*
X81057D01*
X50330Y184349D02*
X80906D01*
X45896Y106949D02*
X80848D01*
X77198Y30449D02*
X80741D01*
X15342Y185249D02*
X80556D01*
X77399Y36749D02*
X79952D01*
X51573Y183449D02*
X79948D01*
X45748Y107849D02*
X79941D01*
X77400Y31349D02*
X79789D01*
X68894Y157349D02*
X79712D01*
X77400Y35849D02*
X79348D01*
X77400Y32249D02*
X79255D01*
X52079Y182549D02*
X79151D01*
X45497Y108749D02*
X79052D01*
X67994Y158249D02*
X79047D01*
X77400Y34949D02*
X79019D01*
X77400Y33149D02*
X78976D01*
X77400Y34049D02*
X78901D01*
X52248Y181649D02*
X78810D01*
X67094Y159149D02*
X78777D01*
X52250Y180749D02*
X78750D01*
X52250Y179849D02*
X78750D01*
X52250Y178949D02*
X78750D01*
X52250Y178049D02*
X78750D01*
X52250Y177149D02*
X78750D01*
X52250Y176249D02*
X78750D01*
X52250Y175349D02*
X78750D01*
X52250Y174449D02*
X78750D01*
X52694Y173549D02*
X78750D01*
X53594Y172649D02*
X78750D01*
X54494Y171749D02*
X78750D01*
X55394Y170849D02*
X78750D01*
X56294Y169949D02*
X78750D01*
X57194Y169049D02*
X78750D01*
X58094Y168149D02*
X78750D01*
X58994Y167249D02*
X78750D01*
X59894Y166349D02*
X78750D01*
X60794Y165449D02*
X78750D01*
X61694Y164549D02*
X78750D01*
X62594Y163649D02*
X78750D01*
X63494Y162749D02*
X78750D01*
X64394Y161849D02*
X78750D01*
X65294Y160949D02*
X78750D01*
X66194Y160049D02*
X78750D01*
X45135Y109649D02*
X78127D01*
X76585Y135749D02*
X77850D01*
X75113Y134849D02*
X77850D01*
X64810Y133949D02*
X77850D01*
X64925Y133049D02*
X77850D01*
X64925Y132149D02*
X77850D01*
X64925Y131249D02*
X77850D01*
X64925Y130349D02*
X77850D01*
X64710Y129449D02*
X77850D01*
X20700Y128549D02*
X77850D01*
X33377Y127649D02*
X77850D01*
X34889Y126749D02*
X77850D01*
X35582Y125849D02*
X77850D01*
X35945Y124949D02*
X77850D01*
X36071Y124049D02*
X77850D01*
X35984Y123149D02*
X77850D01*
X35668Y122249D02*
X77850D01*
X35048Y121349D02*
X77850D01*
X33802Y120449D02*
X77850D01*
X25829Y119549D02*
X77850D01*
X25530Y118649D02*
X77850D01*
X25093Y117749D02*
X77850D01*
X76889Y139349D02*
X77806D01*
X76010Y140249D02*
X77509D01*
X70542Y103349D02*
X77358D01*
X44645Y110549D02*
X77220D01*
X57853Y141149D02*
X76609D01*
X71681Y93449D02*
X76219D01*
X58123Y142049D02*
X75709D01*
X72279Y102449D02*
X75621D01*
X72837Y94349D02*
X75063D01*
X58108Y142949D02*
X74809D01*
X73194Y101549D02*
X74706D01*
X73550Y95249D02*
X74350D01*
X57804Y143849D02*
X73909D01*
X64440Y134849D02*
X73587D01*
X57650Y144749D02*
X73009D01*
X64619Y140249D02*
X72680D01*
X57650Y145649D02*
X72109D01*
X57650Y146549D02*
X71209D01*
X57650Y147449D02*
X70309D01*
X57650Y148349D02*
X69409D01*
X61300Y79049D02*
X69171D01*
X58420Y30449D02*
X69102D01*
X54956Y33149D02*
X68900D01*
X56086Y32249D02*
X68900D01*
X57241Y31349D02*
X68900D01*
X60787Y67349D02*
X68893D01*
X57650Y149249D02*
X68509D01*
X56048Y55649D02*
X68480D01*
X53848Y34049D02*
X68455D01*
X62200Y90749D02*
X68388D01*
X61300Y79949D02*
X68155D01*
X61284Y66449D02*
X68119D01*
X55148Y56549D02*
X68058D01*
X62200Y89849D02*
X68051D01*
X62200Y88949D02*
X68050D01*
X62200Y88049D02*
X68050D01*
X62200Y87149D02*
X68050D01*
X62200Y86249D02*
X68050D01*
X62200Y85349D02*
X68050D01*
X62200Y84449D02*
X68050D01*
X62200Y83549D02*
X68050D01*
X62186Y82649D02*
X68050D01*
X61970Y81749D02*
X68050D01*
X61429Y80849D02*
X68050D01*
X61141Y59249D02*
X68050D01*
X54226Y58349D02*
X68050D01*
X54248Y57449D02*
X68050D01*
X58011Y150149D02*
X67609D01*
X52763Y34949D02*
X67555D01*
X60542Y103349D02*
X67358D01*
X13871Y186149D02*
X67287D01*
X58150Y151049D02*
X66709D01*
X51699Y35849D02*
X66655D01*
X8539Y187049D02*
X66235D01*
X62200Y93449D02*
X66219D01*
X58012Y151949D02*
X65809D01*
X50656Y36749D02*
X65755D01*
X62279Y102449D02*
X65621D01*
X8258Y187949D02*
X65335D01*
X62837Y94349D02*
X65063D01*
X57551Y152849D02*
X64909D01*
X49633Y37649D02*
X64855D01*
X63194Y101549D02*
X64706D01*
X63550Y95249D02*
X64350D01*
X56460Y153749D02*
X64009D01*
X48629Y38549D02*
X63955D01*
X43999Y111449D02*
X63545D01*
X24486Y116849D02*
X63540D01*
X22518Y154649D02*
X63109D01*
X47643Y39449D02*
X63055D01*
X43144Y112349D02*
X62451D01*
X23648Y115949D02*
X62449D01*
X10705Y155549D02*
X62209D01*
X46676Y40349D02*
X62155D01*
X41966Y113249D02*
X61989D01*
X22427Y115049D02*
X61988D01*
X40071Y114149D02*
X61850D01*
X9875Y156449D02*
X61309D01*
X45727Y41249D02*
X61255D01*
X8547Y188849D02*
X60943D01*
X7415Y157349D02*
X60409D01*
X44795Y42149D02*
X60355D01*
X2226Y158249D02*
X59509D01*
X43879Y43049D02*
X59455D01*
X58041Y140249D02*
X59081D01*
X58110Y129449D02*
X58990D01*
X2286Y159149D02*
X58609D01*
X42980Y43949D02*
X58555D01*
X2381Y160049D02*
X57709D01*
X42096Y44849D02*
X57655D01*
X45529Y103349D02*
X57358D01*
X2481Y160949D02*
X56809D01*
X41228Y45749D02*
X56755D01*
X2587Y161849D02*
X55909D01*
X40375Y46649D02*
X55855D01*
X11024Y93449D02*
X55700D01*
X11372Y92549D02*
X55700D01*
X11727Y91649D02*
X55700D01*
X12090Y90749D02*
X55700D01*
X12459Y89849D02*
X55700D01*
X12836Y88949D02*
X55700D01*
X13220Y88049D02*
X55700D01*
X13611Y87149D02*
X55700D01*
X14010Y86249D02*
X55700D01*
X14416Y85349D02*
X55700D01*
X14829Y84449D02*
X55697D01*
X45180Y102449D02*
X55621D01*
X10682Y94349D02*
X55063D01*
X54271Y189749D02*
X55029D01*
X2699Y162749D02*
X55009D01*
X39536Y47549D02*
X54955D01*
X15250Y83549D02*
X54952D01*
X44705Y101549D02*
X54706D01*
X10348Y95249D02*
X54352D01*
X44077Y100649D02*
X54121D01*
X2817Y163649D02*
X54109D01*
X38712Y48449D02*
X54055D01*
X10020Y96149D02*
X53895D01*
X24093Y153749D02*
X53840D01*
X43248Y99749D02*
X53753D01*
X9699Y97049D02*
X53626D01*
X42114Y98849D02*
X53558D01*
X40345Y97949D02*
X53517D01*
X2940Y164549D02*
X53209D01*
X15679Y82649D02*
X53196D01*
X37901Y49349D02*
X53155D01*
X24799Y152849D02*
X52749D01*
X24307Y148349D02*
X52650D01*
X23095Y147449D02*
X52650D01*
X1563Y146549D02*
X52650D01*
X1554Y145649D02*
X52650D01*
X1550Y144749D02*
X52650D01*
X24915Y149249D02*
X52650D01*
X49924Y73649D02*
X52645D01*
X49900Y67349D02*
X52513D01*
X1552Y143849D02*
X52496D01*
X1593Y141149D02*
X52447D01*
X3070Y165449D02*
X52309D01*
X25223Y150149D02*
X52289D01*
X25170Y151949D02*
X52288D01*
X37105Y50249D02*
X52255D01*
X51955Y140249D02*
X52253D01*
X1560Y142949D02*
X52192D01*
X1574Y142049D02*
X52177D01*
X25303Y151049D02*
X52150D01*
X16116Y81749D02*
X52112D01*
X49900Y66449D02*
X52018D01*
X49900Y65549D02*
X52000D01*
X49900Y64649D02*
X52000D01*
X49900Y63749D02*
X52000D01*
X49900Y62849D02*
X52000D01*
X49903Y61949D02*
X52000D01*
X50648Y61049D02*
X52000D01*
X3205Y166349D02*
X51409D01*
X36321Y51149D02*
X51355D01*
X3346Y167249D02*
X50509D01*
X35551Y52049D02*
X50455D01*
X3493Y168149D02*
X49609D01*
X34793Y52949D02*
X49555D01*
X3645Y169049D02*
X48709D01*
X16560Y80849D02*
X48675D01*
X34048Y53849D02*
X48655D01*
X8842Y189749D02*
X48355D01*
X24269Y184349D02*
X48170D01*
X3804Y169949D02*
X47809D01*
X33316Y54749D02*
X47755D01*
X17012Y79949D02*
X46952D01*
X3969Y170849D02*
X46929D01*
X28362Y183449D02*
X46927D01*
X32595Y55649D02*
X46855D01*
X41830Y134849D02*
X46616D01*
X1618Y140249D02*
X46432D01*
X4139Y171749D02*
X46422D01*
X29510Y182549D02*
X46421D01*
X42244Y129449D02*
X46290D01*
X4316Y172649D02*
X46252D01*
X30096Y181649D02*
X46252D01*
X30388Y180749D02*
X46250D01*
X30455Y179849D02*
X46250D01*
X30309Y178949D02*
X46250D01*
X29921Y178049D02*
X46250D01*
X29187Y177149D02*
X46250D01*
X27458Y176249D02*
X46250D01*
X4882Y175349D02*
X46250D01*
X4687Y174449D02*
X46250D01*
X4498Y173549D02*
X46250D01*
X43090Y133949D02*
X46129D01*
X1827Y135749D02*
X46124D01*
X1648Y139349D02*
X46077D01*
X1684Y138449D02*
X46075D01*
X1726Y137549D02*
X46075D01*
X1774Y136649D02*
X46075D01*
X17473Y79049D02*
X46052D01*
X31886Y56549D02*
X45955D01*
X17941Y78149D02*
X45152D01*
X31188Y57449D02*
X45055D01*
X32752Y233849D02*
X44750D01*
X32040Y232949D02*
X44750D01*
X31340Y232049D02*
X44750D01*
X30652Y231149D02*
X44750D01*
X29975Y230249D02*
X44750D01*
X29308Y229349D02*
X44750D01*
X21570Y217649D02*
X44750D01*
X21040Y216749D02*
X44750D01*
X20520Y215849D02*
X44750D01*
X20008Y214949D02*
X44750D01*
X19504Y214049D02*
X44750D01*
X25483Y213149D02*
X44750D01*
X26602Y212249D02*
X44750D01*
X27232Y211349D02*
X44750D01*
X27593Y210449D02*
X44750D01*
X33475Y234749D02*
X44747D01*
X27748Y209549D02*
X44747D01*
X9145Y190649D02*
X44528D01*
X18417Y77249D02*
X44257D01*
X30502Y58349D02*
X44171D01*
X28653Y228449D02*
X44099D01*
X34211Y235649D02*
X44006D01*
X22108Y218549D02*
X44004D01*
X27720Y208649D02*
X44003D01*
X24937Y223049D02*
X43749D01*
X25531Y223949D02*
X43679D01*
X18902Y76349D02*
X43671D01*
X29827Y59249D02*
X43630D01*
X9453Y191549D02*
X43506D01*
X28008Y227549D02*
X43436D01*
X19395Y75449D02*
X43425D01*
X29163Y60149D02*
X43414D01*
X19897Y74549D02*
X43400D01*
X20407Y73649D02*
X43400D01*
X20925Y72749D02*
X43400D01*
X21453Y71849D02*
X43400D01*
X21989Y70949D02*
X43400D01*
X22534Y70049D02*
X43400D01*
X23089Y69149D02*
X43400D01*
X23652Y68249D02*
X43400D01*
X24225Y67349D02*
X43400D01*
X24808Y66449D02*
X43400D01*
X25400Y65549D02*
X43400D01*
X26002Y64649D02*
X43400D01*
X26614Y63749D02*
X43400D01*
X27236Y62849D02*
X43400D01*
X27868Y61949D02*
X43400D01*
X28510Y61049D02*
X43400D01*
X22655Y219449D02*
X43388D01*
X34958Y236549D02*
X43263D01*
X24352Y222149D02*
X43262D01*
X26135Y224849D02*
X43228D01*
X27373Y226649D02*
X43120D01*
X31962Y207749D02*
X43107D01*
X23211Y220349D02*
X43102D01*
X36492Y238349D02*
X43097D01*
X35719Y237449D02*
X43097D01*
X23777Y221249D02*
X43063D01*
X26749Y225749D02*
X43056D01*
X37278Y239249D02*
X42839D01*
X9769Y192449D02*
X42738D01*
X32500Y206849D02*
X42675D01*
X10091Y193349D02*
X42550D01*
X32525Y205949D02*
X42167D01*
X10420Y194249D02*
X41983D01*
X38078Y240149D02*
X41918D01*
X40561Y242849D02*
X41822D01*
X39719Y241949D02*
X41822D01*
X38891Y241049D02*
X41822D01*
X32525Y199649D02*
X41637D01*
X32525Y200549D02*
X41560D01*
X32525Y205049D02*
X41351D01*
X10756Y195149D02*
X41322D01*
X32525Y198749D02*
X41277D01*
X32525Y204149D02*
X41275D01*
X32514Y203249D02*
X41275D01*
X32073Y202349D02*
X41275D01*
X32308Y201449D02*
X41275D01*
X32525Y197849D02*
X41275D01*
X32411Y196949D02*
X41275D01*
X31304Y196049D02*
X41275D01*
X1886Y134849D02*
X39670D01*
X2360Y129449D02*
X39256D01*
X1951Y133949D02*
X38427D01*
X2266Y130349D02*
X38279D01*
X2021Y133049D02*
X37921D01*
X2179Y131249D02*
X37859D01*
X2097Y132149D02*
X37752D01*
X20027Y114149D02*
X34654D01*
X9385Y97949D02*
X34379D01*
X5038Y113249D02*
X32759D01*
X9078Y98849D02*
X32610D01*
X5243Y112349D02*
X31580D01*
X8777Y99749D02*
X31476D01*
X22684Y127649D02*
X31041D01*
X5455Y111449D02*
X30725D01*
X8483Y100649D02*
X30647D01*
X26006Y120449D02*
X30617D01*
X5673Y110549D02*
X30079D01*
X8195Y101549D02*
X30020D01*
X5897Y109649D02*
X29589D01*
X7914Y102449D02*
X29545D01*
X23817Y126749D02*
X29530D01*
X26071Y121349D02*
X29370D01*
X6127Y108749D02*
X29227D01*
X7640Y103349D02*
X29195D01*
X6363Y107849D02*
X28977D01*
X7372Y104249D02*
X28956D01*
X24607Y125849D02*
X28836D01*
X6606Y106949D02*
X28828D01*
X7110Y105149D02*
X28818D01*
X6855Y106049D02*
X28776D01*
X26026Y122249D02*
X28751D01*
X25181Y124949D02*
X28474D01*
X25869Y123149D02*
X28435D01*
X25592Y124049D02*
X28348D01*
X21023Y196049D02*
X27596D01*
X22310Y196949D02*
X26471D01*
X21152Y204149D02*
X26375D01*
X24905Y205049D02*
X26370D01*
X22375Y203249D02*
X26198D01*
X5082Y176249D02*
X25708D01*
X14921Y205049D02*
X21612D01*
X16025Y184349D02*
X21451D01*
X5289Y177149D02*
X21204D01*
X19010Y213149D02*
X21035D01*
X15344Y205949D02*
X20186D01*
X16382Y183449D02*
X20006D01*
X18523Y212249D02*
X19916D01*
X5502Y178049D02*
X19912D01*
X15774Y206849D02*
X19445D01*
X16503Y182549D02*
X19328D01*
X18045Y211349D02*
X19285D01*
X14187Y178949D02*
X19278D01*
X16213Y207749D02*
X19012D01*
X1577Y147449D02*
X19007D01*
X16411Y181649D02*
X18976D01*
X15461Y179849D02*
X18953D01*
X17575Y210449D02*
X18925D01*
X16089Y180749D02*
X18858D01*
X16659Y208649D02*
X18797D01*
X17113Y209549D02*
X18770D01*
X4838Y114149D02*
X17304D01*
X11099Y196049D02*
X17232D01*
X14506Y204149D02*
X17102D01*
X2459Y128549D02*
X16632D01*
X11449Y196949D02*
X15945D01*
X14098Y203249D02*
X15883D01*
X1598Y148349D02*
X15523D01*
X11806Y197849D02*
X15248D01*
X13698Y202349D02*
X15212D01*
X11146Y154649D02*
X15161D01*
X4645Y115049D02*
X14905D01*
X12170Y198749D02*
X14844D01*
X13305Y201449D02*
X14825D01*
X12541Y199649D02*
X14653D01*
X2564Y127649D02*
X14648D01*
X12919Y200549D02*
X14647D01*
X1624Y149249D02*
X14522D01*
X11334Y153749D02*
X14339D01*
X9550Y150149D02*
X13997D01*
X11307Y152849D02*
X13902D01*
X10540Y151049D02*
X13747D01*
X11060Y151949D02*
X13717D01*
X4458Y115949D02*
X13684D01*
X2674Y126749D02*
X13515D01*
X4277Y116849D02*
X12846D01*
X2791Y125849D02*
X12724D01*
X4101Y117749D02*
X12239D01*
X2913Y124949D02*
X12151D01*
X3932Y118649D02*
X11802D01*
X3041Y124049D02*
X11739D01*
X3769Y119549D02*
X11503D01*
X3175Y123149D02*
X11463D01*
X3611Y120449D02*
X11325D01*
X3314Y122249D02*
X11306D01*
X3460Y121349D02*
X11261D01*
X5721Y178949D02*
X10478D01*
X6001Y179849D02*
X6801D01*
X1676Y150149D02*
X3777D01*
X201262Y188685D02*
X202784Y187164D01*
X206533Y188685D02*
X205011Y187164D01*
X139485Y62138D02*
X137964Y60616D01*
X134215Y62138D02*
X135736Y60616D01*
X139485Y56867D02*
X137964Y58389D01*
X134215Y56867D02*
X135736Y58389D01*
X51785Y140338D02*
X50264Y138816D01*
X46515Y140338D02*
X48036Y138816D01*
X46515Y135067D02*
X48036Y136589D01*
X51785Y135067D02*
X50264Y136589D01*
X100633Y90815D02*
X99111Y92336D01*
X95362Y96085D02*
X96884Y94564D01*
X95362Y90815D02*
X96884Y92336D01*
X67867Y209785D02*
X69389Y208264D01*
X73138Y204515D02*
X71616Y206036D01*
X197538Y27015D02*
X196016Y28536D01*
X197538Y32285D02*
X196016Y30764D01*
X192267Y27015D02*
X193789Y28536D01*
X140361Y242890D02*
X141883Y244412D01*
X145632Y242890D02*
X144110Y244412D01*
X155362Y221385D02*
X156884Y219864D01*
X155362Y216115D02*
X156884Y217636D01*
X160633Y221385D02*
X159111Y219864D01*
X160633Y216115D02*
X159111Y217636D01*
X130467Y214615D02*
X131989Y216136D01*
X135738Y214615D02*
X134216Y216136D01*
X135738Y219885D02*
X134216Y218364D01*
X118038Y32515D02*
X116516Y34036D01*
X118038Y37785D02*
X116516Y36264D01*
X112767Y37785D02*
X114289Y36264D01*
X55361Y189290D02*
X56883Y190812D01*
X60632Y189290D02*
X59110Y190812D01*
X60632Y195348D02*
X59110Y193827D01*
X55361Y195348D02*
X56883Y193827D01*
X32085Y207638D02*
X30564Y206116D01*
X32085Y202367D02*
X30564Y203889D01*
X61067Y244885D02*
X62589Y243364D01*
X61067Y239615D02*
X62589Y241136D01*
X66338Y239615D02*
X64816Y241136D01*
X66338Y244885D02*
X64816Y243364D01*
X52615Y129162D02*
X54136Y130684D01*
X57885Y129162D02*
X56364Y130684D01*
X57885Y134433D02*
X56364Y132911D01*
X52615Y134433D02*
X54136Y132911D01*
G54D12*
X109150Y99950D02*
Y115750D01*
X156050Y105350D02*
X176103D01*
X178003Y107250*
Y114350*
X202550Y105850D02*
X206397D01*
Y111750*
Y105550D02*
X202550D01*
Y105850*
X206397Y105550D02*
Y105850D01*
X202550*
X121150Y124050D02*
X148750D01*
X152150Y127450*
X121150Y124050D02*
X118850Y126350D01*
Y142450*
X178003Y119750D02*
Y126250D01*
X176803Y127450*
X165950*
X178003Y114350D02*
Y119750D01*
X206397Y111750D02*
Y120950D01*
X206350*
X203450Y123850*
X236850Y107150D02*
X246750D01*
X252850Y113250*
Y128850*
X242450Y139250*
X55150Y142450D02*
Y151050D01*
X61850Y137703D02*
X74303D01*
X74350Y137750*
X61850Y137703D02*
X55250D01*
Y142250*
X55150Y142450*
X118850D02*
X130150D01*
X152150Y127450D02*
X162550D01*
X165950*
Y138550*
Y141150*
X165050Y142050*
Y149050*
X172650Y158950D02*
Y162697D01*
X172597Y162750*
X167850Y158950D02*
X172650D01*
X172597Y162750D02*
X172650Y162803D01*
Y168897*
Y156803D02*
Y158950D01*
Y168897D02*
X168897Y172650D01*
Y187750*
X183650Y202503*
Y207150*
X177650Y205450D02*
Y205650D01*
X176350Y206950*
Y212797*
G54D14*
X94050Y110150D03*
X104050D03*
X114050D03*
X124050D03*
X23259Y209237D03*
X19127Y200130D03*
X189250Y69050D03*
X199250D03*
X263077Y93124D03*
X271894Y88405D03*
X258358Y84307D03*
X267175Y79588D03*
X253639Y75491D03*
X262456Y70772D03*
G54D22*
X46550Y225950D03*
Y220950D03*
X51550Y225950D03*
Y220950D03*
X56550Y225950D03*
Y220950D03*
X61550Y225950D03*
Y220950D03*
X66550Y225950D03*
Y220950D03*
X71550Y225950D03*
Y220950D03*
X129250Y267550D03*
Y262550D03*
X134250Y267550D03*
Y262550D03*
X139250Y267550D03*
Y262550D03*
X144250Y267550D03*
Y262550D03*
X149250Y267550D03*
Y262550D03*
X154250Y267550D03*
Y262550D03*
X229850Y216150D03*
Y211150D03*
X234850Y216150D03*
Y211150D03*
X239850Y216150D03*
Y211150D03*
X244850Y216150D03*
Y211150D03*
X249850Y216150D03*
Y211150D03*
X254850Y216150D03*
Y211150D03*
G54D25*
X141850Y4150D02*
X129150D01*
X122950Y10350*
X114450*
X107480Y17320*
Y19051*
X141850Y4150D02*
X144550D01*
Y10550*
X141850Y4150D02*
X163450D01*
X171250Y11950*
X183450*
X185850Y14350*
Y20550*
X107480Y19051D02*
X109497Y21068D01*
Y28850*
X144550Y10550D02*
X145697Y11697D01*
Y21150*
Y27450*
X185850Y20550D02*
X188997Y23697D01*
Y29650*
X109497Y28850D02*
Y35150D01*
X145697Y27450D02*
X145650Y27497D01*
Y32150*
X148150Y34650*
Y53550*
X169350Y35450D02*
X176150D01*
X176750Y36050*
Y36097*
X181550*
X188997Y29650D02*
Y35750D01*
X76450Y61350D02*
X74730Y63070D01*
X56650*
X76450Y61350D02*
X84150D01*
X85150Y62350*
Y65150*
X98697Y66450D02*
X92550D01*
Y66750*
X86550Y72750*
X98697Y60550D02*
Y66450D01*
X130050Y53597D02*
X136850D01*
X148150Y53550D02*
X148103Y53597D01*
X136850*
X96341Y74350D02*
Y84250D01*
X95441Y85150*
X76450*
X86550Y72750D02*
X88150Y74350D01*
X96341*
X122150Y69750D02*
Y84150D01*
X123150Y85150*
X124203*
X125150Y86097*
X107759Y74350D02*
X114559Y81150D01*
Y102341*
X114550Y102350*
X107759Y84250D02*
X107950Y84441D01*
Y91750*
X106250Y93450*
X103903*
X130650Y84650D02*
X129897D01*
X128450Y86097*
X125150*
X103950Y94750D02*
X99250Y99450D01*
X92664*
X81965Y110067*
Y111062*
X80962*
X103950Y94750D02*
X109150Y99950D01*
X103850Y104150D02*
X102450D01*
X99450Y107150*
X99150*
X103903Y93450D02*
X103950Y93497D01*
Y94750*
X194250Y92650D02*
Y92950D01*
X195050Y93750*
X206397*
Y99750*
X64850Y114150D02*
X77650D01*
X77850D02*
X80962Y111062D01*
Y116450*
X80850*
Y141150*
X49250Y172750*
Y181550*
X109150Y115750D02*
X112650Y119250D01*
Y163050*
X117950Y168350*
X154750*
X154800Y168400*
X155200*
X160150Y173350*
Y192050*
X152550Y199650*
X81750Y159550D02*
Y181050D01*
X81850*
X88050Y187250*
X99150Y162550D02*
X97850Y163850D01*
X85950*
X29450Y199097D02*
X28417Y200130D01*
X19127*
X190550Y13150D03*
X206250Y21450D03*
X210150Y26950D03*
X86350Y38950D03*
X155350Y43350D03*
X162650Y37350D03*
X176150Y35450D03*
X226450Y32750D03*
X45350Y52450D03*
X66350Y51850D03*
X104650Y47650D03*
X85150Y65150D03*
X117550Y56550D03*
X148150Y53550D03*
X175450Y57050D03*
X184650Y63550D03*
X212750Y65150D03*
X216250Y59550D03*
X225450Y60150D03*
X244150Y61050D03*
X243950Y49150D03*
X249850Y58050D03*
X45450Y85450D03*
X86550Y72750D03*
X122150Y69750D03*
X130650Y84650D03*
X152250Y75450D03*
X218950Y72650D03*
X209250Y69650D03*
X234750Y83850D03*
X18950Y103750D03*
X27350Y96050D03*
X92050Y93750D03*
X103850Y104150D03*
X114550Y102350D03*
X131350Y89650D03*
X130650Y95050D03*
X156050Y105350D03*
X177350Y96750D03*
X183350Y89650D03*
X193450Y106450D03*
X202550Y105850D03*
X194250Y92650D03*
X217250Y99750D03*
X221450Y100150D03*
X247350Y97050D03*
X64850Y114150D03*
X156050Y110250D03*
X155250Y114350D03*
X155350Y119750D03*
X203450Y123850D03*
X208350Y125450D03*
X224550Y123450D03*
X241950Y110950D03*
X236850Y107150D03*
X230050Y122750D03*
X247350Y115350D03*
X10850Y135750D03*
X21250Y135650D03*
X13250Y144050D03*
X27050Y142250D03*
X40850Y137650D03*
X40750Y132050D03*
X55150Y142450D03*
X74350Y137750D03*
X122950Y127450D03*
X118850Y142450D03*
X122650Y132350D03*
Y137850D03*
X138650Y141950D03*
X160850Y142150D03*
X158450Y145450D03*
X168150Y143750D03*
X165950Y138550D03*
X183650Y144350D03*
X189950Y129050D03*
X203450Y142050D03*
X193050Y139150D03*
X241950Y130250D03*
X236950Y140350D03*
X227850Y142950D03*
X236650Y130850D03*
X242450Y139250D03*
X238050Y146650D03*
X252450Y137250D03*
X255650Y144150D03*
X26850Y155050D03*
X55150Y151050D03*
X81750Y159550D03*
X85950Y163850D03*
X107350Y155650D03*
X118150Y147450D03*
X122250Y163250D03*
X118550Y152450D03*
X161550Y155250D03*
X165050Y149050D03*
X167850Y158950D03*
X168350Y154450D03*
X167950Y163950D03*
X183050Y162550D03*
X185250Y157250D03*
X189250Y152250D03*
X209550Y163450D03*
X209650Y155250D03*
X215950Y155950D03*
X216050Y163450D03*
X228050Y164350D03*
X241750Y161150D03*
X232150Y147750D03*
X253650Y159250D03*
X254950Y149550D03*
X255050Y154750D03*
X257750Y159050D03*
X49250Y181550D03*
X104450Y184850D03*
X133050Y174750D03*
X142850Y172050D03*
X127450Y185750D03*
X154150Y179750D03*
X155650Y175750D03*
X172750Y182550D03*
X182550Y184450D03*
X183450Y167950D03*
X190450Y178950D03*
X193750Y169450D03*
X207250Y178350D03*
X217750Y180950D03*
X213550Y180750D03*
X215850Y177550D03*
X241450Y179450D03*
X225150Y171950D03*
Y181950D03*
X229050Y175050D03*
X232450Y179950D03*
X228550Y179150D03*
X255150Y181250D03*
X259650Y170550D03*
X248850Y170850D03*
X255850Y175150D03*
X254850Y170750D03*
X36650Y192850D03*
X37050Y199650D03*
X37150Y206350D03*
X82050Y187850D03*
X78250Y204450D03*
X88050Y187250D03*
X121950Y200750D03*
X146250Y188350D03*
X144950Y195250D03*
X152550Y199650D03*
X164650Y206050D03*
X169750Y199150D03*
X177650Y205450D03*
X215150Y204050D03*
X252250Y204550D03*
X249850Y200350D03*
X264350Y201550D03*
X51550Y211850D03*
X72650Y212150D03*
X86550Y213450D03*
X127150Y210650D03*
X150850Y222550D03*
X183650Y207150D03*
X194050Y224450D03*
X210150Y208350D03*
X213950Y209750D03*
Y223550D03*
X207150Y220850D03*
X50950Y236650D03*
X63550Y237250D03*
X92150Y245350D03*
X104050Y228650D03*
X138450Y239350D03*
X150050Y227250D03*
X156750Y241950D03*
X178750Y231050D03*
X173950Y243350D03*
X167850Y228950D03*
X187950Y239650D03*
X185250Y229950D03*
X213750Y246750D03*
X232750Y241850D03*
X63550Y254350D03*
X91750Y263650D03*
X106450Y262150D03*
X116450Y251550D03*
X131650Y251350D03*
X173450Y247850D03*
X171850Y266150D03*
X172750Y259550D03*
X181050Y260450D03*
X189950Y251450D03*
X210450Y265350D03*
X106850Y267750D03*
X150450Y281250D03*
Y276450D03*
X174250Y280850D03*
X168150Y277750D03*
X181450Y275650D03*
G54D26*
X142850Y172050D02*
X147950D01*
X154150Y179750*
X172750Y182550D02*
X174650Y184450D01*
X182550*
X218150Y172950D02*
X196950D01*
X194850Y175050*
X190450Y178950*
X218150Y172950D02*
X220250Y175050D01*
X229050*
X51304Y200981D02*
X51597Y201274D01*
Y207150*
X67850Y200381D02*
X67734Y200497D01*
X67150*
X64597Y203050*
Y207150*
X219504Y194681D02*
X220097Y195274D01*
Y200550*
Y204750*
X220497Y205150*
X220097Y200550D02*
Y207950D01*
X214650*
X213950Y209750*
X236250Y193581D02*
Y194997D01*
X234197Y197050*
Y200550*
Y204750*
X233797Y205150*
X220497*
X53297Y212950D02*
X51597Y211250D01*
Y211850*
X51550*
X56550Y225950D02*
Y235850D01*
X57850Y237150*
Y242197*
X57797Y242250*
X51597Y207150D02*
Y211803D01*
X51550Y211850*
X64597Y207150D02*
Y212003D01*
X63650Y212950*
X53297*
X213950Y223550D02*
X221450Y231150D01*
X237497*
X239850Y216150D02*
X239644Y216236D01*
Y220003*
X237497Y222150*
Y225050*
X230403D02*
X237497D01*
Y231150*
X50803Y242250D02*
X57797D01*
Y248550*
X149603Y239350D02*
X149750Y239497D01*
Y247168*
X150803Y238150D02*
X166850D01*
Y245819*
Y238150D02*
X186850D01*
X187650Y239350D02*
X187950Y239650D01*
X149750Y247497D02*
Y247168D01*
Y248350*
X147950Y250150*
X137604*
X136304Y251450*
Y254581*
X139250Y267550D02*
X139397Y267697D01*
Y276450*
X132403D02*
X139397D01*
Y282850D02*
Y285950D01*
X140497Y287050*
X152650*
X139397Y276450D02*
Y282850D01*
X167750Y277350D02*
X162350D01*
X152650Y287050*
X167750Y277350D02*
X168150Y277750D01*
X261152Y75079D02*
X261587Y73643D01*
X258149Y69468D02*
X259585Y69903D01*
X263760Y66465D02*
X263325Y67901D01*
X266763Y72076D02*
X265327Y71641D01*
X192432Y72232D02*
X191371Y71171D01*
X186068Y72232D02*
X187129Y71171D01*
X186068Y65868D02*
X187129Y66929D01*
X192432Y65868D02*
X191371Y66929D01*
X127232Y113332D02*
X126171Y112271D01*
X120868Y113332D02*
X121929Y112271D01*
X120868Y106968D02*
X121929Y108029D01*
X127232Y106968D02*
X126171Y108029D01*
X237375Y208675D02*
X238436Y209736D01*
X242325Y208675D02*
X241264Y209736D01*
X54075Y218475D02*
X55136Y219536D01*
X59025Y218475D02*
X57964Y219536D01*
X86155Y36955D02*
X85095Y35895D01*
X80145Y36955D02*
X81205Y35895D01*
X80145Y30945D02*
X81205Y32005D01*
X86155Y30945D02*
X85095Y32005D01*
G54D27*
X117480Y19051D02*
Y21073D01*
X115403Y23150*
Y28850*
X154550Y10550D02*
X152250Y12850D01*
X151603*
Y21150*
Y27450*
X190550Y13150D02*
X196950D01*
X201550Y17150*
X207050*
X216250Y24750*
Y59550*
X195850Y20550D02*
Y21203D01*
X194903Y22150*
Y29650*
X206250Y21450D02*
Y29950D01*
X209250Y32950*
Y69650*
X210150Y26950D02*
X212750Y29550D01*
Y65150*
X115403Y28850D02*
Y35150D01*
X151603Y27450D02*
Y35403D01*
X153297Y37097*
X162397*
X162650Y37350*
X194903Y29650D02*
Y35750D01*
X195003Y35850*
Y39450*
X192450Y42003*
X181550*
X104650Y47650D02*
X104603Y47697D01*
Y60550*
Y66450*
X117550Y56550D02*
X120150Y59150D01*
Y59503*
X130050*
X136850*
X218950Y72650D02*
X207150D01*
X204350Y75450*
X152250*
X97997Y93450D02*
X97697Y93750D01*
X92050*
X125150Y92003D02*
X128197Y95050D01*
X130650*
X221450Y100150D02*
Y162950D01*
X234650Y176150*
X247002*
X250450Y179598*
Y189703*
X249350Y190803*
X246550*
X212303Y105550D02*
Y111750D01*
Y93750D02*
Y99750D01*
Y105550*
Y99750D02*
X217250D01*
X77850Y114150D02*
X77650D01*
X155250Y114350D02*
X172097D01*
X155350Y119750D02*
X172097D01*
X208350Y125450D02*
Y137150D01*
X203450Y142050*
X224550Y123450D02*
X232650Y131550D01*
Y147250*
X232150Y147750*
X212303Y111750D02*
Y121650D01*
X208550Y125403*
X208397*
X208350Y125450*
X241950Y110950D02*
Y130250D01*
X230050Y122750D02*
X236650Y129350D01*
Y130850*
X40850Y137650D02*
X40903Y137703D01*
X49150*
Y131797D02*
X49103Y132050D01*
X40750*
X61850Y131797D02*
X55250D01*
X122950Y127450D02*
X130150D01*
X122650Y132350D02*
X130050D01*
X130150Y132450*
Y137450D02*
X129750Y137850D01*
X122650*
X130150Y127450D02*
X134650D01*
X137250Y130050*
X158150*
X160850Y132750*
Y142150*
Y142750*
X162150Y142894*
Y148550*
X161550Y149150*
Y155250*
X158450Y145450D02*
Y146350D01*
X155950Y149950*
X142650*
X135150Y157450*
X130150*
X174297Y134250D02*
X172697Y135850D01*
Y138650*
X174297Y134250D02*
X199950D01*
X203450Y137750*
Y142050*
X168150Y143750D02*
X172797D01*
Y144650*
X172697Y138650D02*
X172797Y138750D01*
Y144650*
X203450Y142050D02*
X215950Y154550D01*
Y155950*
X243397Y144150D02*
X240550D01*
X238050Y146650*
X255650Y144150D02*
X249303D01*
X118175Y152175D02*
X118825D01*
X118550Y152450*
X118175Y152175D02*
X118450Y152450D01*
X130150*
X118150Y147450D02*
X130150D01*
Y162450D02*
X123050D01*
X122250Y163250*
X168350Y154450D02*
X164350Y158450D01*
Y195550*
X151650Y208250*
X84250*
X71550Y220950*
X167950Y163950D02*
X167350Y164550D01*
X166050*
Y188690*
X181250Y203890*
Y228150*
X178750Y230650*
Y231050*
X183050Y162550D02*
X182850Y162750D01*
X178503*
X178750Y156803D02*
X184850D01*
Y156850*
X185250Y157250*
X178750Y150897D02*
X172650D01*
X167303*
X165450Y152750*
Y155150*
X163050Y157550*
Y194050*
X150250Y206850*
X82250*
X71650Y217450*
X70050*
X66550Y220950*
X189250Y152250D02*
X188950Y152550D01*
Y163850*
X187350Y165450*
Y180950*
X189450Y183050*
Y232050*
X186850Y234650*
X120750*
X116450Y238950*
Y251550*
X216050Y163450D02*
X216650D01*
X225150Y171950*
X133050Y174750D02*
X106650D01*
X104450Y176950*
Y184850*
X127450Y185750D02*
X143750D01*
X146250Y188250*
Y188350*
X155650Y175750D02*
X156650Y176750D01*
Y190050*
X155350Y191350*
X125150*
X112350Y204150*
X82450*
X74450Y212150*
X72650*
X183450Y167950D02*
X182503Y168897D01*
X178550*
X172650Y174803D02*
X178550D01*
X182750*
X186150Y178203*
Y181750*
X186950Y182550*
Y227050*
Y228050*
Y228250*
X185250Y229950*
X217250Y180750D02*
X211950Y186050D01*
X209803*
X217250Y180750D02*
X217550D01*
X217750Y180950*
X207250Y178350D02*
X197150D01*
X194050Y181450*
Y224450*
X213550Y180750D02*
X201650D01*
X197450Y184950*
Y234550*
X189950Y242050*
Y251550*
X215850Y177550D02*
X227250D01*
X228550Y178550*
Y179150*
X219504Y186019D02*
X219273Y186250D01*
X214850*
X212150Y188950*
Y192597*
X225150Y181950D02*
Y186019D01*
X226196*
X232450Y179950D02*
X232510Y180010D01*
Y184919*
X255850Y175150D02*
X260050Y179350D01*
Y223850*
X227450Y256450*
X183919*
X246550Y184897D02*
X246528Y184919D01*
X239990*
X23259Y209237D02*
X27546Y204950D01*
X29397*
X29450Y205003*
X44350Y203003D02*
X44450Y203103D01*
Y206550*
X46550Y208650*
Y220950*
X57996Y200981D02*
Y206656D01*
X57503Y207150*
X45350Y192250D02*
X44350Y193250D01*
Y197097*
X45350Y192250D02*
X51234D01*
X51304Y192319*
X81979Y187779D02*
X68050D01*
X64110Y191719*
X81979Y187779D02*
X82050Y187850D01*
X78250Y194297D02*
X78197Y194350D01*
X74221*
X78250Y200203D02*
Y204450D01*
X71590Y191719D02*
X74221Y194350D01*
X144950Y195250D02*
X139450Y200750D01*
X121950*
X164650Y206050D02*
Y211903D01*
X163903Y212650*
X169750Y199150D02*
X163797D01*
X157997Y204950*
Y212650*
X215150Y204050D02*
X210850Y208350D01*
X210150*
X212150Y198503D02*
Y200950D01*
X207150Y205950*
Y211250*
X209050Y213150*
X218350*
X226196Y194681D02*
Y200356D01*
X226003Y200550*
X240103D02*
Y204297D01*
X239850Y204550*
Y211150*
X252250Y204550D02*
X249850Y206950D01*
Y211150*
Y200350D02*
X244850Y205350D01*
Y211150*
X264350Y201550D02*
Y222650D01*
X229050Y257950*
X227950Y257962*
X174250*
X173664Y258548*
X173562*
X246550Y190803D02*
Y191950D01*
X257950Y203350*
Y223950*
X226750Y255150*
X46550Y225950D02*
Y235650D01*
X44897Y237303*
Y242250*
X86550Y213450D02*
X92350Y219250D01*
Y245150*
X92150Y245350*
X127150Y210650D02*
X127197Y210697D01*
Y217250*
Y223250*
Y229450*
X150850Y222550D02*
X133103D01*
Y223250*
X163903Y218750D02*
Y212650D01*
X169803*
X169950Y212797*
X176350Y218703D02*
X169950D01*
X229850Y211150D02*
X220150D01*
Y211350*
X218350Y213150*
X229850Y216150D02*
X229681Y216445D01*
X224497Y221629*
Y225050*
X243403D02*
Y231150D01*
X63703Y242250D02*
Y248550D01*
X138450Y239350D02*
X143697D01*
X136304Y245919D02*
X135150Y247073D01*
Y247097*
X126350*
X143697Y239350D02*
Y245219D01*
X142996Y245919*
X150803Y238150D02*
X149603Y239350D01*
X150050Y227250D02*
X147850Y229450D01*
X133103*
X156750Y241950D02*
X156050Y242650D01*
Y247497*
X173950Y243350D02*
X185750Y255150D01*
X226750*
X186850Y238150D02*
X187650Y238950D01*
Y239350*
X243403Y231150D02*
Y231197D01*
X232750Y241850*
X131650Y251350D02*
Y259950D01*
X134250Y262550*
X126350Y253003D02*
Y259250D01*
X129450Y262350*
X129250Y262550*
X156050Y253403D02*
X162032D01*
X163110Y254481*
X149750Y253403D02*
X149603Y253550D01*
X148950*
Y254581*
X142996*
X171450Y258250D02*
X145250D01*
X144250Y259250*
Y262550*
X171450Y258250D02*
X172750Y259550D01*
X173150Y258546D02*
X173152Y258548D01*
X173562*
X173150Y258546D02*
X172750Y259550D01*
X173450Y247850D02*
X170590Y250710D01*
Y254481*
X171850Y266150D02*
Y271950D01*
X175550Y275650*
X181450*
X181050Y260450D02*
X178950Y262550D01*
X154250*
X170590Y254481D02*
X181950D01*
X183919Y256450*
X189950Y251450D02*
Y251550D01*
X129250Y267550D02*
Y267997D01*
X126497Y270750*
Y276450*
X150450D02*
X145303D01*
Y282850*
G54D38*
X289250Y144650D02*
G03X289250I-144600J0D01*
G01X239198Y71661D02*
G03X239198I-7086J0D01*
G01X234005Y47755D02*
G03X234005I-5906J0D01*
G01X208823Y243927D02*
G03X208823I-7086J0D01*
G01X193090Y265967D02*
G03X193090I-5905J0D01*
G01X44449Y106000D02*
G03X44449I-7087J0D01*
G01X24571Y121428D02*
G03X24571I-5905J0D01*
G01X34571Y123967D02*
G03X34571I-2362J0D01*
G54D55*
G01X97480Y19051D03*
X107480D03*
X117480D03*
X134550Y10550D03*
X144550D03*
X154550D03*
X175850Y20550D03*
X185850D03*
X195850D03*
X58950Y98150D03*
X68950D03*
X78950D03*
G54D75*
X99150Y107150D02*
Y162550D01*
G54D96*
X181550Y36097D03*
Y42003D03*
X169950Y218703D03*
Y212797D03*
X70503Y207150D03*
X64597D03*
X145303Y276450D03*
X139397D03*
X145303Y282850D03*
X139397D03*
X143697Y239350D03*
X149603D03*
X243403Y231150D03*
X237497D03*
X243403Y225050D03*
X237497D03*
X240103Y200550D03*
X234197D03*
X212303Y99750D03*
X206397D03*
X178603Y138650D03*
X172697D03*
X178703Y144650D03*
X172797D03*
X212303Y111750D03*
X206397D03*
X55250Y137703D03*
Y131797D03*
X29450Y199097D03*
Y205003D03*
X98697Y60550D03*
X104603D03*
X98697Y66450D03*
X104603D03*
X125150Y92003D03*
Y86097D03*
X212303Y93750D03*
X206397D03*
X130050Y53597D03*
Y59503D03*
X212303Y105550D03*
X206397D03*
X133103Y223250D03*
X127197D03*
X109497Y35150D03*
X115403D03*
X109497Y28850D03*
X115403D03*
X188997Y35750D03*
X194903D03*
X188997Y29650D03*
X194903D03*
X145697Y27450D03*
X151603D03*
X145697Y21150D03*
X151603D03*
X63703Y248550D03*
X57797D03*
X63703Y242250D03*
X57797D03*
X61850Y131797D03*
Y137703D03*
X176350Y212797D03*
Y218703D03*
X172650Y174803D03*
Y168897D03*
Y150897D03*
Y156803D03*
X178503Y162750D03*
X172597D03*
X57503Y207150D03*
X51597D03*
X78250Y200203D03*
Y194297D03*
X44350Y203003D03*
Y197097D03*
X149750Y253403D03*
Y247497D03*
X172097Y114350D03*
X178003D03*
X156050Y247497D03*
Y253403D03*
X126350Y253003D03*
Y247097D03*
X226003Y200550D03*
X220097D03*
X246550Y190803D03*
Y184897D03*
X172097Y119750D03*
X178003D03*
X212150Y198503D03*
Y192597D03*
X163903Y212650D03*
X157997D03*
X49150Y131797D03*
Y137703D03*
X249303Y144150D03*
X243397D03*
X133103Y229450D03*
X127197D03*
X133103Y217250D03*
X127197D03*
X163903Y218750D03*
X157997D03*
X50803Y242250D03*
X44897D03*
X132403Y276450D03*
X126497D03*
X230403Y225050D03*
X224497D03*
X178750Y150897D03*
Y156803D03*
X178550Y174803D03*
Y168897D03*
X97997Y93450D03*
X103903D03*
X136850Y53597D03*
Y59503D03*
X209803Y186050D03*
X203897D03*
G54D97*
X73150Y33950D03*
G54D98*
X83150D03*
G54D99*
X67850Y200381D03*
X71590Y191719D03*
X64110D03*
X166850Y245819D03*
X163110Y254481D03*
X170590D03*
X236250Y193581D03*
X239990Y184919D03*
X232510D03*
G54D102*
X76450Y85150D03*
Y61350D03*
G54D105*
X107759Y84250D03*
X96341D03*
X107759Y74350D03*
X96341D03*
G54D113*
X56650Y63070D03*
Y78030D03*
G54D119*
X17566Y151627D02*
X21442Y150939D01*
X3610Y154101D02*
X7487Y153414D01*
X8764Y183175D02*
X12641Y182488D01*
X22720Y180701D02*
X26596Y180014D01*
G54D120*
X73150Y33950D02*
X46650Y60450D01*
Y75050*
X49250Y77650*
X56270*
X56650Y78030*
X169350Y44450D02*
X169150Y44650D01*
X166150*
X146850Y63950*
Y81050*
X138250Y89650*
X131350*
X56650Y78030D02*
X56950Y78330D01*
Y80950*
X58950Y82950*
Y98150*
G54D121*
X169350Y35450D03*
Y44450D03*
G54D122*
X130150Y127450D03*
Y132450D03*
Y137450D03*
Y142450D03*
Y147450D03*
Y152450D03*
Y157450D03*
Y162450D03*
X152150D03*
Y157450D03*
Y152450D03*
Y147450D03*
Y142450D03*
Y137450D03*
Y132450D03*
Y127450D03*
G54D123*
X57996Y200981D03*
Y192319D03*
X51304D03*
Y200981D03*
X142996Y254581D03*
Y245919D03*
X136304D03*
Y254581D03*
X226196Y194681D03*
Y186019D03*
X219504D03*
Y194681D03*
G74*
X0Y0D02*
M02*
