*
*
G04 PADS 9.5 Build Number: 522968 generated Gerber (RS-274-X) file*
G04 PC Version=2.1*
*
%IN "ELESMELL_V50_v1.pcb"*%
*
%MOIN*%
*
%FSLAX35Y35*%
*
*
*
*
G04 PC Standard Apertures*
*
*
G04 Thermal Relief Aperture macro.*
%AMTER*
1,1,$1,0,0*
1,0,$1-$2,0,0*
21,0,$3,$4,0,0,45*
21,0,$3,$4,0,0,135*
%
*
*
G04 Annular Aperture macro.*
%AMANN*
1,1,$1,0,0*
1,0,$2,0,0*
%
*
*
G04 Odd Aperture macro.*
%AMODD*
1,1,$1,0,0*
1,0,$1-0.005,0,0*
%
*
*
G04 PC Custom Aperture Macros*
*
*
*
*
*
*
G04 PC Aperture Table*
*
%ADD011C,0.01*%
%ADD038C,0.001*%
*
*
*
*
G04 PC Circuitry*
G04 Layer Name ELESMELL_V50_v1.pcb - circuitry*
%LPD*%
*
*
G04 PC Custom Flashes*
G04 Layer Name ELESMELL_V50_v1.pcb - flashes*
%LPD*%
*
*
G04 PC Circuitry*
G04 Layer Name ELESMELL_V50_v1.pcb - circuitry*
%LPD*%
*
G54D11*
G01X21956Y147558D02*
X25956Y151558D01*
X21956Y155558*
X17956Y151558*
X21956Y147558*
Y151558D02*
Y155558D01*
X25057Y147008D02*
X29057Y151008D01*
X25057Y155008*
X21057Y151008*
X25057Y147008*
Y151008D02*
Y155008D01*
X22196Y152915D02*
G75*
G03X21715Y150201I-240J-1357D01*
G01X24816Y149651*
G03X25297Y152365I241J1357*
G01X22196Y152915*
X8000Y150032D02*
X12000Y154032D01*
X8000Y158032*
X4000Y154032*
X8000Y150032*
Y154032D02*
Y158032D01*
X11101Y149482D02*
X15101Y153482D01*
X11101Y157482*
X7101Y153482*
X11101Y149482*
Y153482D02*
Y157482D01*
X8241Y155389D02*
G03X7759Y152675I-241J-1357D01*
G01X10861Y152125*
G03X11342Y154839I240J1357*
G01X8241Y155389*
X13154Y179106D02*
X17154Y183106D01*
X13154Y187106*
X9154Y183106*
X13154Y179106*
Y183106D02*
Y187106D01*
X16256Y178556D02*
X20256Y182556D01*
X16256Y186556*
X12256Y182556*
X16256Y178556*
Y182556D02*
Y186556D01*
X13395Y184463D02*
G03X12914Y181749I-241J-1357D01*
G01X16015Y181200*
G03X16496Y183913I241J1356*
G01X13395Y184463*
X27110Y176632D02*
X31110Y180632D01*
X27110Y184632*
X23110Y180632*
X27110Y176632*
Y180632D02*
Y184632D01*
X30211Y176082D02*
X34211Y180082D01*
X30211Y184082*
X26211Y180082*
X30211Y176082*
Y180082D02*
Y184082D01*
X27350Y181989D02*
G03X26869Y179275I-240J-1357D01*
G01X29971Y178726*
G03X30452Y181439I240J1356*
G01X27350Y181989*
X73152Y33950D02*
X81152D01*
X77152Y29950D02*
Y37950D01*
X83152Y33950D02*
X91152D01*
X87152Y29950D02*
Y37950D01*
X94052Y106150D02*
X102052Y114150D01*
X94052D02*
X102052Y106150D01*
X104052D02*
X112052Y114150D01*
X104052D02*
X112052Y106150D01*
X114052D02*
X122052Y114150D01*
X114052D02*
X122052Y106150D01*
X124052D02*
X132052Y114150D01*
X124052D02*
X132052Y106150D01*
X23261Y205237D02*
X31261Y213237D01*
X23261D02*
X31261Y205237D01*
X19130Y196130D02*
X27130Y204130D01*
X19130D02*
X27130Y196130D01*
X189252Y65050D02*
X197252Y73050D01*
X189252D02*
X197252Y65050D01*
X199252D02*
X207252Y73050D01*
X199252D02*
X207252Y65050D01*
X97482Y19051D02*
X105482D01*
X101482Y15051D02*
Y23051D01*
X107482Y19051D02*
X115482D01*
X111482Y15051D02*
Y23051D01*
X117482Y19051D02*
X125482D01*
X121482Y15051D02*
Y23051D01*
X134552Y10550D02*
X142552D01*
X138552Y6550D02*
Y14550D01*
X144552Y10550D02*
X152552D01*
X148552Y6550D02*
Y14550D01*
X154552Y10550D02*
X162552D01*
X158552Y6550D02*
Y14550D01*
X175852Y20550D02*
X183852D01*
X179852Y16550D02*
Y24550D01*
X185852Y20550D02*
X193852D01*
X189852Y16550D02*
Y24550D01*
X195852Y20550D02*
X203852D01*
X199852Y16550D02*
Y24550D01*
X58952Y98150D02*
X66952D01*
X62952Y94150D02*
Y102150D01*
X68952Y98150D02*
X76952D01*
X72952Y94150D02*
Y102150D01*
X78952Y98150D02*
X86952D01*
X82952Y94150D02*
Y102150D01*
X46552Y221950D02*
X54552D01*
Y229950*
X46552*
Y221950*
X50552Y225950D02*
Y229950D01*
X46552Y216950D02*
X54552D01*
Y224950*
X46552*
Y216950*
X50552Y220950D02*
Y224950D01*
X51552Y221950D02*
X59552D01*
Y229950*
X51552*
Y221950*
X55552Y225950D02*
Y229950D01*
X51552Y216950D02*
X59552D01*
Y224950*
X51552*
Y216950*
X55552Y220950D02*
Y224950D01*
X56552Y221950D02*
X64552D01*
Y229950*
X56552*
Y221950*
X60552Y225950D02*
Y229950D01*
X56552Y216950D02*
X64552D01*
Y224950*
X56552*
Y216950*
X60552Y220950D02*
Y224950D01*
X61552Y221950D02*
X69552D01*
Y229950*
X61552*
Y221950*
X65552Y225950D02*
Y229950D01*
X61552Y216950D02*
X69552D01*
Y224950*
X61552*
Y216950*
X65552Y220950D02*
Y224950D01*
X66552Y221950D02*
X74552D01*
Y229950*
X66552*
Y221950*
X70552Y225950D02*
Y229950D01*
X66552Y216950D02*
X74552D01*
Y224950*
X66552*
Y216950*
X70552Y220950D02*
Y224950D01*
X71552Y221950D02*
X79552D01*
Y229950*
X71552*
Y221950*
X75552Y225950D02*
Y229950D01*
X71552Y216950D02*
X79552D01*
Y224950*
X71552*
Y216950*
X75552Y220950D02*
Y224950D01*
X129252Y263550D02*
X137252D01*
Y271550*
X129252*
Y263550*
X133252Y267550D02*
Y271550D01*
X129252Y258550D02*
X137252D01*
Y266550*
X129252*
Y258550*
X133252Y262550D02*
Y266550D01*
X134252Y263550D02*
X142252D01*
Y271550*
X134252*
Y263550*
X138252Y267550D02*
Y271550D01*
X134252Y258550D02*
X142252D01*
Y266550*
X134252*
Y258550*
X138252Y262550D02*
Y266550D01*
X139252Y263550D02*
X147252D01*
Y271550*
X139252*
Y263550*
X143252Y267550D02*
Y271550D01*
X139252Y258550D02*
X147252D01*
Y266550*
X139252*
Y258550*
X143252Y262550D02*
Y266550D01*
X144252Y263550D02*
X152252D01*
Y271550*
X144252*
Y263550*
X148252Y267550D02*
Y271550D01*
X144252Y258550D02*
X152252D01*
Y266550*
X144252*
Y258550*
X148252Y262550D02*
Y266550D01*
X149252Y263550D02*
X157252D01*
Y271550*
X149252*
Y263550*
X153252Y267550D02*
Y271550D01*
X149252Y258550D02*
X157252D01*
Y266550*
X149252*
Y258550*
X153252Y262550D02*
Y266550D01*
X154252Y263550D02*
X162252D01*
Y271550*
X154252*
Y263550*
X158252Y267550D02*
Y271550D01*
X154252Y258550D02*
X162252D01*
Y266550*
X154252*
Y258550*
X158252Y262550D02*
Y266550D01*
X229852Y212150D02*
X237852D01*
Y220150*
X229852*
Y212150*
X233852Y216150D02*
Y220150D01*
X229852Y207150D02*
X237852D01*
Y215150*
X229852*
Y207150*
X233852Y211150D02*
Y215150D01*
X234852Y212150D02*
X242852D01*
Y220150*
X234852*
Y212150*
X238852Y216150D02*
Y220150D01*
X234852Y207150D02*
X242852D01*
Y215150*
X234852*
Y207150*
X238852Y211150D02*
Y215150D01*
X239852Y212150D02*
X247852D01*
Y220150*
X239852*
Y212150*
X243852Y216150D02*
Y220150D01*
X239852Y207150D02*
X247852D01*
Y215150*
X239852*
Y207150*
X243852Y211150D02*
Y215150D01*
X244852Y212150D02*
X252852D01*
Y220150*
X244852*
Y212150*
X248852Y216150D02*
Y220150D01*
X244852Y207150D02*
X252852D01*
Y215150*
X244852*
Y207150*
X248852Y211150D02*
Y215150D01*
X249852Y212150D02*
X257852D01*
Y220150*
X249852*
Y212150*
X253852Y216150D02*
Y220150D01*
X249852Y207150D02*
X257852D01*
Y215150*
X249852*
Y207150*
X253852Y211150D02*
Y215150D01*
X254852Y212150D02*
X262852D01*
Y220150*
X254852*
Y212150*
X258852Y216150D02*
Y220150D01*
X254852Y207150D02*
X262852D01*
Y215150*
X254852*
Y207150*
X258852Y211150D02*
Y215150D01*
X263079Y89124D02*
X271079D01*
X263079Y97124*
X271079*
X263079Y89124*
X271896Y84405D02*
X279896D01*
X271896Y92405*
X279896*
X271896Y84405*
X258361Y80307D02*
X266361D01*
X258361Y88307*
X266361*
X258361Y80307*
X267177Y75588D02*
X275177D01*
X267177Y83588*
X275177*
X267177Y75588*
X253642Y71491D02*
X261642D01*
X253642Y79491*
X261642*
X253642Y71491*
X262458Y66772D02*
X270458D01*
X262458Y74772*
X270458*
X262458Y66772*
X190552Y9150D02*
X198552Y17150D01*
Y9150*
X190552Y17150*
Y9150*
X206252Y17450D02*
X214252Y25450D01*
Y17450*
X206252Y25450*
Y17450*
X210152Y22950D02*
X218152Y30950D01*
Y22950*
X210152Y30950*
Y22950*
X86352Y34950D02*
X94352Y42950D01*
Y34950*
X86352Y42950*
Y34950*
X155352Y39350D02*
X163352Y47350D01*
Y39350*
X155352Y47350*
Y39350*
X162652Y33350D02*
X170652Y41350D01*
Y33350*
X162652Y41350*
Y33350*
X176152Y31450D02*
X184152Y39450D01*
Y31450*
X176152Y39450*
Y31450*
X226452Y28750D02*
X234452Y36750D01*
Y28750*
X226452Y36750*
Y28750*
X45352Y48450D02*
X53352Y56450D01*
Y48450*
X45352Y56450*
Y48450*
X66352Y47850D02*
X74352Y55850D01*
Y47850*
X66352Y55850*
Y47850*
X104652Y43650D02*
X112652Y51650D01*
Y43650*
X104652Y51650*
Y43650*
X85152Y61150D02*
X93152Y69150D01*
Y61150*
X85152Y69150*
Y61150*
X117552Y52550D02*
X125552Y60550D01*
Y52550*
X117552Y60550*
Y52550*
X148152Y49550D02*
X156152Y57550D01*
Y49550*
X148152Y57550*
Y49550*
X175452Y53050D02*
X183452Y61050D01*
Y53050*
X175452Y61050*
Y53050*
X184652Y59550D02*
X192652Y67550D01*
Y59550*
X184652Y67550*
Y59550*
X212752Y61150D02*
X220752Y69150D01*
Y61150*
X212752Y69150*
Y61150*
X216252Y55550D02*
X224252Y63550D01*
Y55550*
X216252Y63550*
Y55550*
X225452Y56150D02*
X233452Y64150D01*
Y56150*
X225452Y64150*
Y56150*
X244152Y57050D02*
X252152Y65050D01*
Y57050*
X244152Y65050*
Y57050*
X243952Y45150D02*
X251952Y53150D01*
Y45150*
X243952Y53150*
Y45150*
X249852Y54050D02*
X257852Y62050D01*
Y54050*
X249852Y62050*
Y54050*
X45452Y81450D02*
X53452Y89450D01*
Y81450*
X45452Y89450*
Y81450*
X86552Y68750D02*
X94552Y76750D01*
Y68750*
X86552Y76750*
Y68750*
X122152Y65750D02*
X130152Y73750D01*
Y65750*
X122152Y73750*
Y65750*
X130652Y80650D02*
X138652Y88650D01*
Y80650*
X130652Y88650*
Y80650*
X152252Y71450D02*
X160252Y79450D01*
Y71450*
X152252Y79450*
Y71450*
X218952Y68650D02*
X226952Y76650D01*
Y68650*
X218952Y76650*
Y68650*
X209252Y65650D02*
X217252Y73650D01*
Y65650*
X209252Y73650*
Y65650*
X234752Y79850D02*
X242752Y87850D01*
Y79850*
X234752Y87850*
Y79850*
X18952Y99750D02*
X26952Y107750D01*
Y99750*
X18952Y107750*
Y99750*
X27352Y92050D02*
X35352Y100050D01*
Y92050*
X27352Y100050*
Y92050*
X92052Y89750D02*
X100052Y97750D01*
Y89750*
X92052Y97750*
Y89750*
X103852Y100150D02*
X111852Y108150D01*
Y100150*
X103852Y108150*
Y100150*
X114552Y98350D02*
X122552Y106350D01*
Y98350*
X114552Y106350*
Y98350*
X131352Y85650D02*
X139352Y93650D01*
Y85650*
X131352Y93650*
Y85650*
X130652Y91050D02*
X138652Y99050D01*
Y91050*
X130652Y99050*
Y91050*
X156052Y101350D02*
X164052Y109350D01*
Y101350*
X156052Y109350*
Y101350*
X177352Y92750D02*
X185352Y100750D01*
Y92750*
X177352Y100750*
Y92750*
X183352Y85650D02*
X191352Y93650D01*
Y85650*
X183352Y93650*
Y85650*
X193452Y102450D02*
X201452Y110450D01*
Y102450*
X193452Y110450*
Y102450*
X202552Y101850D02*
X210552Y109850D01*
Y101850*
X202552Y109850*
Y101850*
X194252Y88650D02*
X202252Y96650D01*
Y88650*
X194252Y96650*
Y88650*
X217252Y95750D02*
X225252Y103750D01*
Y95750*
X217252Y103750*
Y95750*
X221452Y96150D02*
X229452Y104150D01*
Y96150*
X221452Y104150*
Y96150*
X247352Y93050D02*
X255352Y101050D01*
Y93050*
X247352Y101050*
Y93050*
X64852Y110150D02*
X72852Y118150D01*
Y110150*
X64852Y118150*
Y110150*
X156052Y106250D02*
X164052Y114250D01*
Y106250*
X156052Y114250*
Y106250*
X155252Y110350D02*
X163252Y118350D01*
Y110350*
X155252Y118350*
Y110350*
X155352Y115750D02*
X163352Y123750D01*
Y115750*
X155352Y123750*
Y115750*
X203452Y119850D02*
X211452Y127850D01*
Y119850*
X203452Y127850*
Y119850*
X208352Y121450D02*
X216352Y129450D01*
Y121450*
X208352Y129450*
Y121450*
X224552Y119450D02*
X232552Y127450D01*
Y119450*
X224552Y127450*
Y119450*
X241952Y106950D02*
X249952Y114950D01*
Y106950*
X241952Y114950*
Y106950*
X236852Y103150D02*
X244852Y111150D01*
Y103150*
X236852Y111150*
Y103150*
X230052Y118750D02*
X238052Y126750D01*
Y118750*
X230052Y126750*
Y118750*
X247352Y111350D02*
X255352Y119350D01*
Y111350*
X247352Y119350*
Y111350*
X10852Y131750D02*
X18852Y139750D01*
Y131750*
X10852Y139750*
Y131750*
X21252Y131650D02*
X29252Y139650D01*
Y131650*
X21252Y139650*
Y131650*
X13252Y140050D02*
X21252Y148050D01*
Y140050*
X13252Y148050*
Y140050*
X27052Y138250D02*
X35052Y146250D01*
Y138250*
X27052Y146250*
Y138250*
X40852Y133650D02*
X48852Y141650D01*
Y133650*
X40852Y141650*
Y133650*
X40752Y128050D02*
X48752Y136050D01*
Y128050*
X40752Y136050*
Y128050*
X55152Y138450D02*
X63152Y146450D01*
Y138450*
X55152Y146450*
Y138450*
X74352Y133750D02*
X82352Y141750D01*
Y133750*
X74352Y141750*
Y133750*
X122952Y123450D02*
X130952Y131450D01*
Y123450*
X122952Y131450*
Y123450*
X118852Y138450D02*
X126852Y146450D01*
Y138450*
X118852Y146450*
Y138450*
X122652Y128350D02*
X130652Y136350D01*
Y128350*
X122652Y136350*
Y128350*
Y133850D02*
X130652Y141850D01*
Y133850*
X122652Y141850*
Y133850*
X138652Y137950D02*
X146652Y145950D01*
Y137950*
X138652Y145950*
Y137950*
X160852Y138150D02*
X168852Y146150D01*
Y138150*
X160852Y146150*
Y138150*
X158452Y141450D02*
X166452Y149450D01*
Y141450*
X158452Y149450*
Y141450*
X168152Y139750D02*
X176152Y147750D01*
Y139750*
X168152Y147750*
Y139750*
X165952Y134550D02*
X173952Y142550D01*
Y134550*
X165952Y142550*
Y134550*
X183652Y140350D02*
X191652Y148350D01*
Y140350*
X183652Y148350*
Y140350*
X189952Y125050D02*
X197952Y133050D01*
Y125050*
X189952Y133050*
Y125050*
X203452Y138050D02*
X211452Y146050D01*
Y138050*
X203452Y146050*
Y138050*
X193052Y135150D02*
X201052Y143150D01*
Y135150*
X193052Y143150*
Y135150*
X241952Y126250D02*
X249952Y134250D01*
Y126250*
X241952Y134250*
Y126250*
X236952Y136350D02*
X244952Y144350D01*
Y136350*
X236952Y144350*
Y136350*
X227852Y138950D02*
X235852Y146950D01*
Y138950*
X227852Y146950*
Y138950*
X236652Y126850D02*
X244652Y134850D01*
Y126850*
X236652Y134850*
Y126850*
X242452Y135250D02*
X250452Y143250D01*
Y135250*
X242452Y143250*
Y135250*
X238052Y142650D02*
X246052Y150650D01*
Y142650*
X238052Y150650*
Y142650*
X252452Y133250D02*
X260452Y141250D01*
Y133250*
X252452Y141250*
Y133250*
X255652Y140150D02*
X263652Y148150D01*
Y140150*
X255652Y148150*
Y140150*
X26852Y151050D02*
X34852Y159050D01*
Y151050*
X26852Y159050*
Y151050*
X55152Y147050D02*
X63152Y155050D01*
Y147050*
X55152Y155050*
Y147050*
X81752Y155550D02*
X89752Y163550D01*
Y155550*
X81752Y163550*
Y155550*
X85952Y159850D02*
X93952Y167850D01*
Y159850*
X85952Y167850*
Y159850*
X107352Y151650D02*
X115352Y159650D01*
Y151650*
X107352Y159650*
Y151650*
X118152Y143450D02*
X126152Y151450D01*
Y143450*
X118152Y151450*
Y143450*
X122252Y159250D02*
X130252Y167250D01*
Y159250*
X122252Y167250*
Y159250*
X118552Y148450D02*
X126552Y156450D01*
Y148450*
X118552Y156450*
Y148450*
X161552Y151250D02*
X169552Y159250D01*
Y151250*
X161552Y159250*
Y151250*
X165052Y145050D02*
X173052Y153050D01*
Y145050*
X165052Y153050*
Y145050*
X167852Y154950D02*
X175852Y162950D01*
Y154950*
X167852Y162950*
Y154950*
X168352Y150450D02*
X176352Y158450D01*
Y150450*
X168352Y158450*
Y150450*
X167952Y159950D02*
X175952Y167950D01*
Y159950*
X167952Y167950*
Y159950*
X183052Y158550D02*
X191052Y166550D01*
Y158550*
X183052Y166550*
Y158550*
X185252Y153250D02*
X193252Y161250D01*
Y153250*
X185252Y161250*
Y153250*
X189252Y148250D02*
X197252Y156250D01*
Y148250*
X189252Y156250*
Y148250*
X209552Y159450D02*
X217552Y167450D01*
Y159450*
X209552Y167450*
Y159450*
X209652Y151250D02*
X217652Y159250D01*
Y151250*
X209652Y159250*
Y151250*
X215952Y151950D02*
X223952Y159950D01*
Y151950*
X215952Y159950*
Y151950*
X216052Y159450D02*
X224052Y167450D01*
Y159450*
X216052Y167450*
Y159450*
X228052Y160350D02*
X236052Y168350D01*
Y160350*
X228052Y168350*
Y160350*
X241752Y157150D02*
X249752Y165150D01*
Y157150*
X241752Y165150*
Y157150*
X232152Y143750D02*
X240152Y151750D01*
Y143750*
X232152Y151750*
Y143750*
X253652Y155250D02*
X261652Y163250D01*
Y155250*
X253652Y163250*
Y155250*
X254952Y145550D02*
X262952Y153550D01*
Y145550*
X254952Y153550*
Y145550*
X255052Y150750D02*
X263052Y158750D01*
Y150750*
X255052Y158750*
Y150750*
X257752Y155050D02*
X265752Y163050D01*
Y155050*
X257752Y163050*
Y155050*
X49252Y177550D02*
X57252Y185550D01*
Y177550*
X49252Y185550*
Y177550*
X104452Y180850D02*
X112452Y188850D01*
Y180850*
X104452Y188850*
Y180850*
X133052Y170750D02*
X141052Y178750D01*
Y170750*
X133052Y178750*
Y170750*
X142852Y168050D02*
X150852Y176050D01*
Y168050*
X142852Y176050*
Y168050*
X127452Y181750D02*
X135452Y189750D01*
Y181750*
X127452Y189750*
Y181750*
X154152Y175750D02*
X162152Y183750D01*
Y175750*
X154152Y183750*
Y175750*
X155652Y171750D02*
X163652Y179750D01*
Y171750*
X155652Y179750*
Y171750*
X172752Y178550D02*
X180752Y186550D01*
Y178550*
X172752Y186550*
Y178550*
X182552Y180450D02*
X190552Y188450D01*
Y180450*
X182552Y188450*
Y180450*
X183452Y163950D02*
X191452Y171950D01*
Y163950*
X183452Y171950*
Y163950*
X190452Y174950D02*
X198452Y182950D01*
Y174950*
X190452Y182950*
Y174950*
X193752Y165450D02*
X201752Y173450D01*
Y165450*
X193752Y173450*
Y165450*
X207252Y174350D02*
X215252Y182350D01*
Y174350*
X207252Y182350*
Y174350*
X217752Y176950D02*
X225752Y184950D01*
Y176950*
X217752Y184950*
Y176950*
X213552Y176750D02*
X221552Y184750D01*
Y176750*
X213552Y184750*
Y176750*
X215852Y173550D02*
X223852Y181550D01*
Y173550*
X215852Y181550*
Y173550*
X241452Y175450D02*
X249452Y183450D01*
Y175450*
X241452Y183450*
Y175450*
X225152Y167950D02*
X233152Y175950D01*
Y167950*
X225152Y175950*
Y167950*
Y177950D02*
X233152Y185950D01*
Y177950*
X225152Y185950*
Y177950*
X229052Y171050D02*
X237052Y179050D01*
Y171050*
X229052Y179050*
Y171050*
X232452Y175950D02*
X240452Y183950D01*
Y175950*
X232452Y183950*
Y175950*
X228552Y175150D02*
X236552Y183150D01*
Y175150*
X228552Y183150*
Y175150*
X255152Y177250D02*
X263152Y185250D01*
Y177250*
X255152Y185250*
Y177250*
X259652Y166550D02*
X267652Y174550D01*
Y166550*
X259652Y174550*
Y166550*
X248852Y166850D02*
X256852Y174850D01*
Y166850*
X248852Y174850*
Y166850*
X255852Y171150D02*
X263852Y179150D01*
Y171150*
X255852Y179150*
Y171150*
X254852Y166750D02*
X262852Y174750D01*
Y166750*
X254852Y174750*
Y166750*
X36652Y188850D02*
X44652Y196850D01*
Y188850*
X36652Y196850*
Y188850*
X37052Y195650D02*
X45052Y203650D01*
Y195650*
X37052Y203650*
Y195650*
X37152Y202350D02*
X45152Y210350D01*
Y202350*
X37152Y210350*
Y202350*
X82052Y183850D02*
X90052Y191850D01*
Y183850*
X82052Y191850*
Y183850*
X78252Y200450D02*
X86252Y208450D01*
Y200450*
X78252Y208450*
Y200450*
X88052Y183250D02*
X96052Y191250D01*
Y183250*
X88052Y191250*
Y183250*
X121952Y196750D02*
X129952Y204750D01*
Y196750*
X121952Y204750*
Y196750*
X146252Y184350D02*
X154252Y192350D01*
Y184350*
X146252Y192350*
Y184350*
X144952Y191250D02*
X152952Y199250D01*
Y191250*
X144952Y199250*
Y191250*
X152552Y195650D02*
X160552Y203650D01*
Y195650*
X152552Y203650*
Y195650*
X164652Y202050D02*
X172652Y210050D01*
Y202050*
X164652Y210050*
Y202050*
X169752Y195150D02*
X177752Y203150D01*
Y195150*
X169752Y203150*
Y195150*
X177652Y201450D02*
X185652Y209450D01*
Y201450*
X177652Y209450*
Y201450*
X215152Y200050D02*
X223152Y208050D01*
Y200050*
X215152Y208050*
Y200050*
X252252Y200550D02*
X260252Y208550D01*
Y200550*
X252252Y208550*
Y200550*
X249852Y196350D02*
X257852Y204350D01*
Y196350*
X249852Y204350*
Y196350*
X264352Y197550D02*
X272352Y205550D01*
Y197550*
X264352Y205550*
Y197550*
X51552Y207850D02*
X59552Y215850D01*
Y207850*
X51552Y215850*
Y207850*
X72652Y208150D02*
X80652Y216150D01*
Y208150*
X72652Y216150*
Y208150*
X86552Y209450D02*
X94552Y217450D01*
Y209450*
X86552Y217450*
Y209450*
X127152Y206650D02*
X135152Y214650D01*
Y206650*
X127152Y214650*
Y206650*
X150852Y218550D02*
X158852Y226550D01*
Y218550*
X150852Y226550*
Y218550*
X183652Y203150D02*
X191652Y211150D01*
Y203150*
X183652Y211150*
Y203150*
X194052Y220450D02*
X202052Y228450D01*
Y220450*
X194052Y228450*
Y220450*
X210152Y204350D02*
X218152Y212350D01*
Y204350*
X210152Y212350*
Y204350*
X213952Y205750D02*
X221952Y213750D01*
Y205750*
X213952Y213750*
Y205750*
Y219550D02*
X221952Y227550D01*
Y219550*
X213952Y227550*
Y219550*
X207152Y216850D02*
X215152Y224850D01*
Y216850*
X207152Y224850*
Y216850*
X50952Y232650D02*
X58952Y240650D01*
Y232650*
X50952Y240650*
Y232650*
X63552Y233250D02*
X71552Y241250D01*
Y233250*
X63552Y241250*
Y233250*
X92152Y241350D02*
X100152Y249350D01*
Y241350*
X92152Y249350*
Y241350*
X104052Y224650D02*
X112052Y232650D01*
Y224650*
X104052Y232650*
Y224650*
X138452Y235350D02*
X146452Y243350D01*
Y235350*
X138452Y243350*
Y235350*
X150052Y223250D02*
X158052Y231250D01*
Y223250*
X150052Y231250*
Y223250*
X156752Y237950D02*
X164752Y245950D01*
Y237950*
X156752Y245950*
Y237950*
X178752Y227050D02*
X186752Y235050D01*
Y227050*
X178752Y235050*
Y227050*
X173952Y239350D02*
X181952Y247350D01*
Y239350*
X173952Y247350*
Y239350*
X167852Y224950D02*
X175852Y232950D01*
Y224950*
X167852Y232950*
Y224950*
X187952Y235650D02*
X195952Y243650D01*
Y235650*
X187952Y243650*
Y235650*
X185252Y225950D02*
X193252Y233950D01*
Y225950*
X185252Y233950*
Y225950*
X213752Y242750D02*
X221752Y250750D01*
Y242750*
X213752Y250750*
Y242750*
X232752Y237850D02*
X240752Y245850D01*
Y237850*
X232752Y245850*
Y237850*
X63552Y250350D02*
X71552Y258350D01*
Y250350*
X63552Y258350*
Y250350*
X91752Y259650D02*
X99752Y267650D01*
Y259650*
X91752Y267650*
Y259650*
X106452Y258150D02*
X114452Y266150D01*
Y258150*
X106452Y266150*
Y258150*
X116452Y247550D02*
X124452Y255550D01*
Y247550*
X116452Y255550*
Y247550*
X131652Y247350D02*
X139652Y255350D01*
Y247350*
X131652Y255350*
Y247350*
X173452Y243850D02*
X181452Y251850D01*
Y243850*
X173452Y251850*
Y243850*
X171852Y262150D02*
X179852Y270150D01*
Y262150*
X171852Y270150*
Y262150*
X172752Y255550D02*
X180752Y263550D01*
Y255550*
X172752Y263550*
Y255550*
X181052Y256450D02*
X189052Y264450D01*
Y256450*
X181052Y264450*
Y256450*
X189952Y247450D02*
X197952Y255450D01*
Y247450*
X189952Y255450*
Y247450*
X210452Y261350D02*
X218452Y269350D01*
Y261350*
X210452Y269350*
Y261350*
X106852Y263750D02*
X114852Y271750D01*
Y263750*
X106852Y271750*
Y263750*
X150452Y277250D02*
X158452Y285250D01*
Y277250*
X150452Y285250*
Y277250*
Y272450D02*
X158452Y280450D01*
Y272450*
X150452Y280450*
Y272450*
X174252Y276850D02*
X182252Y284850D01*
Y276850*
X174252Y284850*
Y276850*
X168152Y273750D02*
X176152Y281750D01*
Y273750*
X168152Y281750*
Y273750*
X181452Y271650D02*
X189452Y279650D01*
Y271650*
X181452Y279650*
Y271650*
X263652Y312650D02*
X521652D01*
X263652Y288650D02*
X521652D01*
X263652Y264650D02*
X521652D01*
X263652Y240650D02*
X521652D01*
X263652Y216650D02*
X521652D01*
X263652Y192650D02*
X521652D01*
X263652Y168650D02*
X521652D01*
X263652Y144650D02*
X521652D01*
X263652Y312650D02*
Y144650D01*
X347652Y312650D02*
Y144650D01*
X383652Y312650D02*
Y144650D01*
X419652Y312650D02*
Y144650D01*
X473652Y312650D02*
Y144650D01*
X521652Y312650D02*
Y144650D01*
X490334Y302525D02*
Y294650D01*
X488425Y302525D02*
X492243D01*
X496334D02*
X495789Y302150D01*
X495243Y301400*
X494971Y300650*
X494698Y299525*
Y297650*
X494971Y296525*
X495243Y295775*
X495789Y295025*
X496334Y294650*
X497425*
X497971Y295025*
X498516Y295775*
X498789Y296525*
X499061Y297650*
Y299525*
X498789Y300650*
X498516Y301400*
X497971Y302150*
X497425Y302525*
X496334*
X501516D02*
Y294650D01*
X504789*
X270198Y278525D02*
X273198D01*
X271561Y275525*
X272380*
X272925Y275150*
X273198Y274775*
X273471Y273650*
Y272900*
X273198Y271775*
X272652Y271025*
X271834Y270650*
X271016*
X270198Y271025*
X269925Y271400*
X269652Y272150*
X279471Y275900D02*
X279198Y274775D01*
X278652Y274025*
X277834Y273650*
X277561*
X276743Y274025*
X276198Y274775*
X275925Y275900*
Y276275*
X276198Y277400*
X276743Y278150*
X277561Y278525*
X277834*
X278652Y278150*
X279198Y277400*
X279471Y275900*
Y274025*
X279198Y272150*
X278652Y271025*
X277834Y270650*
X277289*
X276471Y271025*
X276198Y271775*
X282198Y271400D02*
X281925Y271025D01*
X282198Y270650*
X282471Y271025*
X282198Y271400*
X285471Y278525D02*
X288471D01*
X286834Y275525*
X287652*
X288198Y275150*
X288471Y274775*
X288743Y273650*
Y272900*
X288471Y271775*
X287925Y271025*
X287107Y270650*
X286289*
X285471Y271025*
X285198Y271400*
X284925Y272150*
X295016Y278525D02*
X292289Y270650D01*
X291198Y278525D02*
X295016D01*
X360652Y277025D02*
X361198Y277400D01*
X362016Y278525*
Y270650*
X367198Y278525D02*
X364471Y273275D01*
X368561*
X367198Y278525D02*
Y270650D01*
X395652Y276650D02*
X407652D01*
X401652Y270650D02*
Y282650D01*
X428289Y278525D02*
X430471Y274775D01*
Y270650*
X432652Y278525D02*
X430471Y274775D01*
X435107Y278525D02*
Y270650D01*
Y278525D02*
X438652D01*
X435107Y274775D02*
X437289D01*
X435107Y270650D02*
X438652D01*
X444925Y277400D02*
X444380Y278150D01*
X443561Y278525*
X442471*
X441652Y278150*
X441107Y277400*
Y276650*
X441380Y275900*
X441652Y275525*
X442198Y275150*
X443834Y274400*
X444380Y274025*
X444652Y273650*
X444925Y272900*
Y271775*
X444380Y271025*
X443561Y270650*
X442471*
X441652Y271025*
X441107Y271775*
X481471Y277400D02*
Y270650D01*
X479016Y274025D02*
X483925D01*
X491289Y280025D02*
X486380Y268025D01*
X493743Y274025D02*
X498652D01*
X502743Y278525D02*
X501925Y278150D01*
X501380Y277025*
X501107Y275150*
Y274025*
X501380Y272150*
X501925Y271025*
X502743Y270650*
X503289*
X504107Y271025*
X504652Y272150*
X504925Y274025*
Y275150*
X504652Y277025*
X504107Y278150*
X503289Y278525*
X502743*
X507652Y271400D02*
X507380Y271025D01*
X507652Y270650*
X507925Y271025*
X507652Y271400*
X512016Y278525D02*
X511198Y278150D01*
X510652Y277025*
X510380Y275150*
Y274025*
X510652Y272150*
X511198Y271025*
X512016Y270650*
X512561*
X513380Y271025*
X513925Y272150*
X514198Y274025*
Y275150*
X513925Y277025*
X513380Y278150*
X512561Y278525*
X512016*
X270198Y254525D02*
X273198D01*
X271561Y251525*
X272380*
X272925Y251150*
X273198Y250775*
X273471Y249650*
Y248900*
X273198Y247775*
X272652Y247025*
X271834Y246650*
X271016*
X270198Y247025*
X269925Y247400*
X269652Y248150*
X279471Y254525D02*
X276743D01*
X276471Y251150*
X276743Y251525*
X277561Y251900*
X278380*
X279198Y251525*
X279743Y250775*
X280016Y249650*
X279743Y248900*
X279471Y247775*
X278925Y247025*
X278107Y246650*
X277289*
X276471Y247025*
X276198Y247400*
X275925Y248150*
X364061Y254525D02*
X363243Y254150D01*
X362971Y253400*
Y252650*
X363243Y251900*
X363789Y251525*
X364880Y251150*
X365698Y250775*
X366243Y250025*
X366516Y249275*
Y248150*
X366243Y247400*
X365971Y247025*
X365152Y246650*
X364061*
X363243Y247025*
X362971Y247400*
X362698Y248150*
Y249275*
X362971Y250025*
X363516Y250775*
X364334Y251150*
X365425Y251525*
X365971Y251900*
X366243Y252650*
Y253400*
X365971Y254150*
X365152Y254525*
X364061*
X395652Y246650D02*
X407652Y258650D01*
X395652D02*
X407652Y246650D01*
X428289Y254525D02*
X430471Y250775D01*
Y246650*
X432652Y254525D02*
X430471Y250775D01*
X435107Y254525D02*
Y246650D01*
Y254525D02*
X438652D01*
X435107Y250775D02*
X437289D01*
X435107Y246650D02*
X438652D01*
X444925Y253400D02*
X444380Y254150D01*
X443561Y254525*
X442471*
X441652Y254150*
X441107Y253400*
Y252650*
X441380Y251900*
X441652Y251525*
X442198Y251150*
X443834Y250400*
X444380Y250025*
X444652Y249650*
X444925Y248900*
Y247775*
X444380Y247025*
X443561Y246650*
X442471*
X441652Y247025*
X441107Y247775*
X481471Y253400D02*
Y246650D01*
X479016Y250025D02*
X483925D01*
X491289Y256025D02*
X486380Y244025D01*
X493743Y250025D02*
X498652D01*
X502743Y254525D02*
X501925Y254150D01*
X501380Y253025*
X501107Y251150*
Y250025*
X501380Y248150*
X501925Y247025*
X502743Y246650*
X503289*
X504107Y247025*
X504652Y248150*
X504925Y250025*
Y251150*
X504652Y253025*
X504107Y254150*
X503289Y254525*
X502743*
X507652Y247400D02*
X507380Y247025D01*
X507652Y246650*
X507925Y247025*
X507652Y247400*
X512016Y254525D02*
X511198Y254150D01*
X510652Y253025*
X510380Y251150*
Y250025*
X510652Y248150*
X511198Y247025*
X512016Y246650*
X512561*
X513380Y247025*
X513925Y248150*
X514198Y250025*
Y251150*
X513925Y253025*
X513380Y254150*
X512561Y254525*
X512016*
X269925Y228650D02*
Y229025D01*
X270198Y229775*
X270471Y230150*
X271016Y230525*
X272107*
X272652Y230150*
X272925Y229775*
X273198Y229025*
Y228275*
X272925Y227525*
X272380Y226400*
X269652Y222650*
X273471*
X279471Y230525D02*
X276743D01*
X276471Y227150*
X276743Y227525*
X277561Y227900*
X278380*
X279198Y227525*
X279743Y226775*
X280016Y225650*
X279743Y224900*
X279471Y223775*
X278925Y223025*
X278107Y222650*
X277289*
X276471Y223025*
X276198Y223400*
X275925Y224150*
X360243Y230525D02*
X363243D01*
X361607Y227525*
X362425*
X362971Y227150*
X363243Y226775*
X363516Y225650*
Y224900*
X363243Y223775*
X362698Y223025*
X361880Y222650*
X361061*
X360243Y223025*
X359971Y223400*
X359698Y224150*
X369243Y229400D02*
X368971Y230150D01*
X368152Y230525*
X367607*
X366789Y230150*
X366243Y229025*
X365971Y227150*
Y225275*
X366243Y223775*
X366789Y223025*
X367607Y222650*
X367880*
X368698Y223025*
X369243Y223775*
X369516Y224900*
Y225275*
X369243Y226400*
X368698Y227150*
X367880Y227525*
X367607*
X366789Y227150*
X366243Y226400*
X365971Y225275*
X395652Y222650D02*
X407652D01*
Y234650*
X395652*
Y222650*
X401652Y228650D02*
Y234650D01*
X428289Y230525D02*
X430471Y226775D01*
Y222650*
X432652Y230525D02*
X430471Y226775D01*
X435107Y230525D02*
Y222650D01*
Y230525D02*
X438652D01*
X435107Y226775D02*
X437289D01*
X435107Y222650D02*
X438652D01*
X444925Y229400D02*
X444380Y230150D01*
X443561Y230525*
X442471*
X441652Y230150*
X441107Y229400*
Y228650*
X441380Y227900*
X441652Y227525*
X442198Y227150*
X443834Y226400*
X444380Y226025*
X444652Y225650*
X444925Y224900*
Y223775*
X444380Y223025*
X443561Y222650*
X442471*
X441652Y223025*
X441107Y223775*
X481471Y229400D02*
Y222650D01*
X479016Y226025D02*
X483925D01*
X491289Y232025D02*
X486380Y220025D01*
X493743Y226025D02*
X498652D01*
X502743Y230525D02*
X501925Y230150D01*
X501380Y229025*
X501107Y227150*
Y226025*
X501380Y224150*
X501925Y223025*
X502743Y222650*
X503289*
X504107Y223025*
X504652Y224150*
X504925Y226025*
Y227150*
X504652Y229025*
X504107Y230150*
X503289Y230525*
X502743*
X507652Y223400D02*
X507380Y223025D01*
X507652Y222650*
X507925Y223025*
X507652Y223400*
X512016Y230525D02*
X511198Y230150D01*
X510652Y229025*
X510380Y227150*
Y226025*
X510652Y224150*
X511198Y223025*
X512016Y222650*
X512561*
X513380Y223025*
X513925Y224150*
X514198Y226025*
Y227150*
X513925Y229025*
X513380Y230150*
X512561Y230525*
X512016*
X269925Y204650D02*
Y205025D01*
X270198Y205775*
X270471Y206150*
X271016Y206525*
X272107*
X272652Y206150*
X272925Y205775*
X273198Y205025*
Y204275*
X272925Y203525*
X272380Y202400*
X269652Y198650*
X273471*
X279743Y206525D02*
X277016Y198650D01*
X275925Y206525D02*
X279743D01*
X282471Y199400D02*
X282198Y199025D01*
X282471Y198650*
X282743Y199025*
X282471Y199400*
X288743Y206525D02*
X286016D01*
X285743Y203150*
X286016Y203525*
X286834Y203900*
X287652*
X288471Y203525*
X289016Y202775*
X289289Y201650*
X289016Y200900*
X288743Y199775*
X288198Y199025*
X287380Y198650*
X286561*
X285743Y199025*
X285471Y199400*
X285198Y200150*
X295016Y205400D02*
X294743Y206150D01*
X293925Y206525*
X293380*
X292561Y206150*
X292016Y205025*
X291743Y203150*
Y201275*
X292016Y199775*
X292561Y199025*
X293380Y198650*
X293652*
X294471Y199025*
X295016Y199775*
X295289Y200900*
Y201275*
X295016Y202400*
X294471Y203150*
X293652Y203525*
X293380*
X292561Y203150*
X292016Y202400*
X291743Y201275*
X304016Y203900D02*
X307016Y198650D01*
Y203900D02*
X304016Y198650D01*
X319289Y206525D02*
X316561D01*
X316289Y203150*
X316561Y203525*
X317380Y203900*
X318198*
X319016Y203525*
X319561Y202775*
X319834Y201650*
X319561Y200900*
X319289Y199775*
X318743Y199025*
X317925Y198650*
X317107*
X316289Y199025*
X316016Y199400*
X315743Y200150*
X325834Y203900D02*
X325561Y202775D01*
X325016Y202025*
X324198Y201650*
X323925*
X323107Y202025*
X322561Y202775*
X322289Y203900*
Y204275*
X322561Y205400*
X323107Y206150*
X323925Y206525*
X324198*
X325016Y206150*
X325561Y205400*
X325834Y203900*
Y202025*
X325561Y200150*
X325016Y199025*
X324198Y198650*
X323652*
X322834Y199025*
X322561Y199775*
X328561Y199400D02*
X328289Y199025D01*
X328561Y198650*
X328834Y199025*
X328561Y199400*
X332925Y206525D02*
X332107Y206150D01*
X331561Y205025*
X331289Y203150*
Y202025*
X331561Y200150*
X332107Y199025*
X332925Y198650*
X333471*
X334289Y199025*
X334834Y200150*
X335107Y202025*
Y203150*
X334834Y205025*
X334289Y206150*
X333471Y206525*
X332925*
X340834Y205400D02*
X340561Y206150D01*
X339743Y206525*
X339198*
X338380Y206150*
X337834Y205025*
X337561Y203150*
Y201275*
X337834Y199775*
X338380Y199025*
X339198Y198650*
X339471*
X340289Y199025*
X340834Y199775*
X341107Y200900*
Y201275*
X340834Y202400*
X340289Y203150*
X339471Y203525*
X339198*
X338380Y203150*
X337834Y202400*
X337561Y201275*
X365289Y206525D02*
X362561Y201275D01*
X366652*
X365289Y206525D02*
Y198650D01*
X401652D02*
X407652Y204650D01*
X401652Y210650*
X395652Y204650*
X401652Y198650*
Y204650D02*
Y210650D01*
X428289Y206525D02*
X430471Y202775D01*
Y198650*
X432652Y206525D02*
X430471Y202775D01*
X435107Y206525D02*
Y198650D01*
Y206525D02*
X438652D01*
X435107Y202775D02*
X437289D01*
X435107Y198650D02*
X438652D01*
X444925Y205400D02*
X444380Y206150D01*
X443561Y206525*
X442471*
X441652Y206150*
X441107Y205400*
Y204650*
X441380Y203900*
X441652Y203525*
X442198Y203150*
X443834Y202400*
X444380Y202025*
X444652Y201650*
X444925Y200900*
Y199775*
X444380Y199025*
X443561Y198650*
X442471*
X441652Y199025*
X441107Y199775*
X481471Y205400D02*
Y198650D01*
X479016Y202025D02*
X483925D01*
X491289Y208025D02*
X486380Y196025D01*
X493743Y202025D02*
X498652D01*
X502743Y206525D02*
X501925Y206150D01*
X501380Y205025*
X501107Y203150*
Y202025*
X501380Y200150*
X501925Y199025*
X502743Y198650*
X503289*
X504107Y199025*
X504652Y200150*
X504925Y202025*
Y203150*
X504652Y205025*
X504107Y206150*
X503289Y206525*
X502743*
X507652Y199400D02*
X507380Y199025D01*
X507652Y198650*
X507925Y199025*
X507652Y199400*
X512016Y206525D02*
X511198Y206150D01*
X510652Y205025*
X510380Y203150*
Y202025*
X510652Y200150*
X511198Y199025*
X512016Y198650*
X512561*
X513380Y199025*
X513925Y200150*
X514198Y202025*
Y203150*
X513925Y205025*
X513380Y206150*
X512561Y206525*
X512016*
X270198Y182525D02*
X273198D01*
X271561Y179525*
X272380*
X272925Y179150*
X273198Y178775*
X273471Y177650*
Y176900*
X273198Y175775*
X272652Y175025*
X271834Y174650*
X271016*
X270198Y175025*
X269925Y175400*
X269652Y176150*
X279471Y182525D02*
X276743D01*
X276471Y179150*
X276743Y179525*
X277561Y179900*
X278380*
X279198Y179525*
X279743Y178775*
X280016Y177650*
X279743Y176900*
X279471Y175775*
X278925Y175025*
X278107Y174650*
X277289*
X276471Y175025*
X276198Y175400*
X275925Y176150*
X282743Y175400D02*
X282471Y175025D01*
X282743Y174650*
X283016Y175025*
X282743Y175400*
X288198Y182525D02*
X285471Y177275D01*
X289561*
X288198Y182525D02*
Y174650D01*
X292561Y182525D02*
X295561D01*
X293925Y179525*
X294743*
X295289Y179150*
X295561Y178775*
X295834Y177650*
Y176900*
X295561Y175775*
X295016Y175025*
X294198Y174650*
X293380*
X292561Y175025*
X292289Y175400*
X292016Y176150*
X366107Y181400D02*
X365834Y182150D01*
X365016Y182525*
X364471*
X363652Y182150*
X363107Y181025*
X362834Y179150*
Y177275*
X363107Y175775*
X363652Y175025*
X364471Y174650*
X364743*
X365561Y175025*
X366107Y175775*
X366380Y176900*
Y177275*
X366107Y178400*
X365561Y179150*
X364743Y179525*
X364471*
X363652Y179150*
X363107Y178400*
X362834Y177275*
X395652Y174650D02*
X407652D01*
X395652Y186650*
X407652*
X395652Y174650*
X428289Y182525D02*
X430471Y178775D01*
Y174650*
X432652Y182525D02*
X430471Y178775D01*
X435107Y182525D02*
Y174650D01*
Y182525D02*
X438652D01*
X435107Y178775D02*
X437289D01*
X435107Y174650D02*
X438652D01*
X444925Y181400D02*
X444380Y182150D01*
X443561Y182525*
X442471*
X441652Y182150*
X441107Y181400*
Y180650*
X441380Y179900*
X441652Y179525*
X442198Y179150*
X443834Y178400*
X444380Y178025*
X444652Y177650*
X444925Y176900*
Y175775*
X444380Y175025*
X443561Y174650*
X442471*
X441652Y175025*
X441107Y175775*
X481471Y181400D02*
Y174650D01*
X479016Y178025D02*
X483925D01*
X491289Y184025D02*
X486380Y172025D01*
X493743Y178025D02*
X498652D01*
X502743Y182525D02*
X501925Y182150D01*
X501380Y181025*
X501107Y179150*
Y178025*
X501380Y176150*
X501925Y175025*
X502743Y174650*
X503289*
X504107Y175025*
X504652Y176150*
X504925Y178025*
Y179150*
X504652Y181025*
X504107Y182150*
X503289Y182525*
X502743*
X507652Y175400D02*
X507380Y175025D01*
X507652Y174650*
X507925Y175025*
X507652Y175400*
X512016Y182525D02*
X511198Y182150D01*
X510652Y181025*
X510380Y179150*
Y178025*
X510652Y176150*
X511198Y175025*
X512016Y174650*
X512561*
X513380Y175025*
X513925Y176150*
X514198Y178025*
Y179150*
X513925Y181025*
X513380Y182150*
X512561Y182525*
X512016*
X269652Y157025D02*
X270198Y157400D01*
X271016Y158525*
Y150650*
X273743Y156650D02*
Y157025D01*
X274016Y157775*
X274289Y158150*
X274834Y158525*
X275925*
X276471Y158150*
X276743Y157775*
X277016Y157025*
Y156275*
X276743Y155525*
X276198Y154400*
X273471Y150650*
X277289*
X357925Y157025D02*
X358471Y157400D01*
X359289Y158525*
Y150650*
X365289Y155900D02*
X365016Y154775D01*
X364471Y154025*
X363652Y153650*
X363380*
X362561Y154025*
X362016Y154775*
X361743Y155900*
Y156275*
X362016Y157400*
X362561Y158150*
X363380Y158525*
X363652*
X364471Y158150*
X365016Y157400*
X365289Y155900*
Y154025*
X365016Y152150*
X364471Y151025*
X363652Y150650*
X363107*
X362289Y151025*
X362016Y151775*
X371289Y155900D02*
X371016Y154775D01*
X370471Y154025*
X369652Y153650*
X369380*
X368561Y154025*
X368016Y154775*
X367743Y155900*
Y156275*
X368016Y157400*
X368561Y158150*
X369380Y158525*
X369652*
X370471Y158150*
X371016Y157400*
X371289Y155900*
Y154025*
X371016Y152150*
X370471Y151025*
X369652Y150650*
X369107*
X368289Y151025*
X368016Y151775*
X395652Y150650D02*
X407652Y162650D01*
Y150650*
X395652Y162650*
Y150650*
X428289Y158525D02*
X430471Y154775D01*
Y150650*
X432652Y158525D02*
X430471Y154775D01*
X435107Y158525D02*
Y150650D01*
Y158525D02*
X438652D01*
X435107Y154775D02*
X437289D01*
X435107Y150650D02*
X438652D01*
X444925Y157400D02*
X444380Y158150D01*
X443561Y158525*
X442471*
X441652Y158150*
X441107Y157400*
Y156650*
X441380Y155900*
X441652Y155525*
X442198Y155150*
X443834Y154400*
X444380Y154025*
X444652Y153650*
X444925Y152900*
Y151775*
X444380Y151025*
X443561Y150650*
X442471*
X441652Y151025*
X441107Y151775*
X481471Y157400D02*
Y150650D01*
X479016Y154025D02*
X483925D01*
X491289Y160025D02*
X486380Y148025D01*
X493743Y154025D02*
X498652D01*
X502743Y158525D02*
X501925Y158150D01*
X501380Y157025*
X501107Y155150*
Y154025*
X501380Y152150*
X501925Y151025*
X502743Y150650*
X503289*
X504107Y151025*
X504652Y152150*
X504925Y154025*
Y155150*
X504652Y157025*
X504107Y158150*
X503289Y158525*
X502743*
X507652Y151400D02*
X507380Y151025D01*
X507652Y150650*
X507925Y151025*
X507652Y151400*
X512016Y158525D02*
X511198Y158150D01*
X510652Y157025*
X510380Y155150*
Y154025*
X510652Y152150*
X511198Y151025*
X512016Y150650*
X512561*
X513380Y151025*
X513925Y152150*
X514198Y154025*
Y155150*
X513925Y157025*
X513380Y158150*
X512561Y158525*
X512016*
G54D38*
X293252Y144650D02*
G03X293252I-144600J0D01*
G01X243201Y71661D02*
G03X243201I-7087J0D01*
G01X238007Y47755D02*
G03X238007I-5905J0D01*
G01X212826Y243927D02*
G03X212826I-7087J0D01*
G01X197093Y265967D02*
G03X197093I-5906J0D01*
G01X48451Y106000D02*
G03X48451I-7086J0D01*
G01X28574Y121428D02*
G03X28574I-5906J0D01*
G01X38574Y123967D02*
G03X38574I-2362J0D01*
G74*
G01X0Y0D02*
M02*
