%
T1C.012F095S3
X-01043Y-00922
X-01042Y-00592
X-01223Y-00486
X-01307Y-00409
X-01089Y-00126
X-01284Y-0009
X-01388Y-00089
X-01088Y-0007
X-01226Y-00024
X-01364Y-00006
X-01228Y00104
X-01004Y00369
X-0113Y00482
X-01126Y0055
X-01125Y00617
X-00981Y00672
X-00987Y0092
X-00579Y0119
X-00861Y01097
X-00575Y01007
X-00861Y00926
X-00631Y00688
X-0077Y00675
X-00714Y00598
X-00676Y00432
X-00616Y00426
X-00637Y00192
X-00679Y00149
X-00945Y00064
X-00945Y-00022
X-00753Y-00069
X-00848Y-00305
X-00458Y-00405
X-00576Y-00509
X-00631Y-00719
X-00645Y-00795
X-00833Y-00928
X-00633Y-01057
X-0045Y-0097
X-00321Y-00881
X-00275Y-00749
X-00351Y-00423
X-00267Y-00172
X-0027Y-00123
X-0027Y-00068
X-00308Y-00022
X-00315Y00028
X-00311Y00078
X-00423Y0011
X-00274Y00186
X-00452Y00402
X-00222Y00411
X-00277Y00561
X-00225Y0066
X-00456Y0084
X-00332Y01069
X-00432Y01175
X-00428Y01231
X00008Y01366
X00008Y01318
X-0018Y01067
X-00112Y00947
X00004Y00826
X00012Y00779
X00029Y0055
X-00047Y00506
X-00034Y00437
X-00166Y00301
X-00068Y00274
X-0011Y-00027
X-0019Y-00496
X-00183Y-0055
X-0019Y-006
X00026Y-00692
X-00015Y-00911
X00265Y-01092
X0013Y-01073
X00057Y-01013
X00258Y-00876
X00277Y-00479
X00064Y-00393
X00064Y-00344
X00056Y-00303
X00057Y-00249
X00163Y-00061
X00112Y-00025
X00185Y-00009
X00088Y00008
X00154Y00044
X00187Y00098
X00119Y00106
X00182Y00143
X00183Y00193
X0006Y00311
X00045Y00351
X00231Y00379
X00201Y00545
X0028Y00608
X0015Y00614
X00182Y00843
X00291Y00864
X00071Y00973
X00243Y00987
X00238Y01032
X00231Y01149
X00222Y01215
X00185Y01331
X00246Y01362
X00318Y0131
X00314Y01158
X00403Y01068
X00383Y0095
X00356Y00853
X00444Y00798
X0034Y00625
X00329Y00398
X00408Y00343
X00441Y00248
X00338Y00233
X00334Y00179
X00356Y00126
X00396Y00076
X0034Y-00003
X00538Y-00026
X00434Y-00055
X00403Y-00156
X00538Y-00208
X00438Y-00382
X00529Y-00388
X00446Y-0052
X00337Y-0055
X0035Y-00811
X00409Y-01315
X00566Y-01232
X00605Y-01177
X00768Y-01119
X00666Y-00851
X00758Y-00845
X00631Y-00795
X00596Y-0075
X00693Y-0072
X00676Y-00449
X00718Y-00445
X00749Y-00212
X00587Y-00192
X00782Y-00017
X006Y00106
X00663Y00113
X00599Y00188
X00664Y00188
X00784Y00197
X00755Y00273
X00662Y00329
X00576Y00337
X00789Y00345
X00639Y00361
X00681Y00363
X00755Y00373
X00655Y00594
X00605Y00637
X00643Y00651
X00575Y00762
X00643Y00789
X00641Y01021
X00608Y01207
X00831Y00972
X01026Y00599
X01002Y00557
X00828Y00353
X00918Y00348
X00794Y00304
X00992Y00262
X00921Y00165
X0104Y00146
X00825Y00031
X00884Y0002
X00873Y-00043
X00928Y-00054
X01028Y-00074
X0087Y-00138
X00923Y-00144
X00804Y-00219
X00977Y-00293
X00923Y-00337
X00872Y-00375
X00977Y-00476
X00851Y-00608
X00945Y-00836
X01002Y-00866
X00943Y-00955
X0106Y-00005
X01053Y00049
X01054Y00101
X01081Y00144
X011Y00259
X01052Y00261
X01062Y00305
X01055Y00366
X01147Y00569
T2C.025F197S55
X-01031Y00763
X-00981Y00763
X-00931Y00763
X-00881Y00763
X-00831Y00763
X-00781Y00763
X-00881Y00813
X-01031Y00813
X-00831Y00813
X-00931Y00813
X-00781Y00813
X-00981Y00813
X-00204Y01229
X-00154Y01229
X-00104Y01229
X-00054Y01229
X-00004Y01229
X-00104Y01179
X-00154Y01179
X-00054Y01179
X-00204Y01179
X-00004Y01179
X00802Y00665
X00852Y00665
X00902Y00665
X00952Y00665
X01002Y00665
X00902Y00715
X00802Y00715
X00952Y00715
X01002Y00715
X00852Y00715
X00046Y01179
X00046Y01229
X01052Y00715
X01052Y00665
T3C.02756F197S55
X-01317Y000691G85X-01286Y000636
X-014565Y000938G85X-014255Y000883
X-01405Y003846G85X-01374Y003791
X-012654Y003598G85X-012344Y003543
T4C.035F197S55
X-00556Y-00345
X-013052Y005548
X-012639Y006459
X-00256Y-00345
X-00356Y-00345
X-00456Y-00345
X00396Y-00756
X00496Y-00756
T5C.03543F197S55
X011281Y-007388
X010399Y-006916
X011752Y-006506
X010871Y-006034
X012224Y-005624
X011343Y-005153
T6C.03937F197S55
X-00765Y-01107
X-00907Y-00465
X-00807Y-00465
X-00707Y-00465
X-00665Y-01107
X-005217Y-01256
X-003217Y-01256
X-004217Y-01256
X-00051Y-01341
X-00151Y-01341
X00049Y-01341
X00262Y-01241
X00362Y-01241
X00462Y-01241
M30
