*
*
G04 PADS 9.5 Build Number: 522968 generated Gerber (RS-274-X) file*
G04 PC Version=2.1*
*
%IN "ELESMELL_V50_v1.pcb"*%
*
%MOIN*%
*
%FSLAX35Y35*%
*
*
*
*
G04 PC Standard Apertures*
*
*
G04 Thermal Relief Aperture macro.*
%AMTER*
1,1,$1,0,0*
1,0,$1-$2,0,0*
21,0,$3,$4,0,0,45*
21,0,$3,$4,0,0,135*
%
*
*
G04 Annular Aperture macro.*
%AMANN*
1,1,$1,0,0*
1,0,$2,0,0*
%
*
*
G04 Odd Aperture macro.*
%AMODD*
1,1,$1,0,0*
1,0,$1-0.005,0,0*
%
*
*
G04 PC Custom Aperture Macros*
*
*
*
*
*
*
G04 PC Aperture Table*
*
%ADD011C,0.01*%
%ADD012C,0.02*%
%ADD028C,0.064*%
%ADD036C,0.044*%
%ADD038C,0.001*%
%ADD074C,0.00787*%
%ADD134C,0.02368*%
%ADD135R,0.024X0.024*%
%ADD136C,0.059*%
%ADD137R,0.04337X0.04337*%
%ADD138R,0.04X0.054*%
%ADD139R,0.036X0.039*%
%ADD140R,0.039X0.036*%
%ADD141C,0.08274*%
%ADD142R,0.038X0.06*%
%ADD143O,0.06699X0.02368*%
%ADD144O,0.06699X0.028*%
%ADD145R,0.01581X0.06306*%
%ADD146R,0.04337X0.07487*%
%ADD147R,0.04337X0.0355*%
%ADD148R,0.06699X0.06699*%
%ADD149R,0.06699X0.08274*%
%ADD150R,0.08274X0.06699*%
%ADD151O,0.04337X0.01187*%
%ADD152O,0.01187X0.04337*%
%ADD153R,0.18117X0.18117*%
%ADD154C,0.05124*%
%ADD155R,0.055X0.032*%
%ADD156R,0.102X0.142*%
%ADD157R,0.03746X0.03746*%
%ADD158R,0.065X0.065*%
%ADD159R,0.142X0.097*%
%ADD160R,0.04534X0.0729*%
%ADD161R,0.13392X0.0414*%
%ADD162R,0.29337X0.40361*%
*
*
*
*
G04 PC Circuitry*
G04 Layer Name ELESMELL_V50_v1.pcb - circuitry*
%LPD*%
*
*
G04 PC Custom Flashes*
G04 Layer Name ELESMELL_V50_v1.pcb - flashes*
%LPD*%
*
*
G04 PC Circuitry*
G04 Layer Name ELESMELL_V50_v1.pcb - circuitry*
%LPD*%
*
G54D11*
G01X27769Y170305D02*
X18669Y171918D01*
X18567Y171346*
X27668Y169733*
X27769Y170305*
X22493Y170650D02*
X25822D01*
X18621Y171650D02*
X20181D01*
X18567Y171346D02*
X18567D01*
X19567Y171169D02*
Y171759D01*
X20567Y170991D02*
Y171582D01*
X21567Y170814D02*
Y171404D01*
X22567Y170637D02*
Y171227D01*
X23567Y170460D02*
Y171050D01*
X24567Y170282D02*
Y170872D01*
X25567Y170105D02*
Y170695D01*
X26567Y169928D02*
Y170518D01*
X27567Y169750D02*
Y170341D01*
X27323Y167785D02*
X18222Y169398D01*
X18121Y168826*
X27221Y167213*
X27323Y167785*
X24755Y167650D02*
X27299D01*
X19114Y168650D02*
X22443D01*
X18121Y168826D02*
X18121D01*
X19121Y168649D02*
Y169239D01*
X20121Y168472D02*
Y169062D01*
X21121Y168294D02*
Y168884D01*
X22121Y168117D02*
Y168707D01*
X23121Y167940D02*
Y168530D01*
X24121Y167762D02*
Y168353D01*
X25121Y167585D02*
Y168175D01*
X26121Y167408D02*
Y167998D01*
X27121Y167231D02*
Y167821D01*
X26876Y165265D02*
X17775Y166879D01*
X17674Y166306*
X26774Y164693*
X26876Y165265*
X21376Y165650D02*
X24705D01*
X17735Y166650D02*
X19065D01*
X17674Y166306D02*
X17674D01*
X18674Y166129D02*
Y166719D01*
X19674Y165952D02*
Y166542D01*
X20674Y165775D02*
Y166365D01*
X21674Y165597D02*
Y166187D01*
X22674Y165420D02*
Y166010D01*
X23674Y165243D02*
Y165833D01*
X24674Y165065D02*
Y165656D01*
X25674Y164888D02*
Y165478D01*
X26674Y164711D02*
Y165301D01*
X26429Y162745D02*
X17329Y164359D01*
X17227Y163787*
X26328Y162173*
X26429Y162745*
X23639Y162650D02*
X26412D01*
X17998Y163650D02*
X21327D01*
X17227Y163787D02*
X17227D01*
X18227Y163609D02*
Y164200D01*
X19227Y163432D02*
Y164022D01*
X20227Y163255D02*
Y163845D01*
X21227Y163078D02*
Y163668D01*
X22227Y162900D02*
Y163490D01*
X23227Y162723D02*
Y163313D01*
X24227Y162546D02*
Y163136D01*
X25227Y162368D02*
Y162959D01*
X26227Y162191D02*
Y162781D01*
X25982Y160226D02*
X16882Y161839D01*
X16780Y161267*
X25881Y159654*
X25982Y160226*
X20260Y160650D02*
X23589D01*
X16848Y161650D02*
X17948D01*
X16780Y161267D02*
X16780D01*
X17780Y161090D02*
Y161680D01*
X18780Y160912D02*
Y161502D01*
X19780Y160735D02*
Y161325D01*
X20780Y160558D02*
Y161148D01*
X21780Y160380D02*
Y160971D01*
X22780Y160203D02*
Y160793D01*
X23780Y160026D02*
Y160616D01*
X24780Y159849D02*
Y160439D01*
X25780Y159671D02*
Y160262D01*
X261970Y96778D02*
X259422Y92017D01*
X264183Y89469*
X266731Y94230*
X261970Y96778*
X264183Y89469D02*
X264183D01*
X262315Y90469D02*
X264719D01*
X260446Y91469D02*
X265254D01*
X259664Y92469D02*
X265789D01*
X260199Y93469D02*
X266324D01*
X260735Y94469D02*
X266285D01*
X261270Y95469D02*
X264416D01*
X261805Y96469D02*
X262548D01*
X259650Y91896D02*
Y92443D01*
X260650Y91360D02*
Y94311D01*
X261650Y90825D02*
Y96180D01*
X262650Y90290D02*
Y96415D01*
X263650Y89755D02*
Y95880D01*
X264650Y90341D02*
Y95344D01*
X265650Y92210D02*
Y94809D01*
X266650Y94078D02*
Y94274D01*
G54D12*
X53250Y136450D02*
X61650D01*
Y123650*
X53250*
Y136450*
Y136249D02*
X61650D01*
X53250Y134449D02*
X61650D01*
X53250Y132649D02*
X61650D01*
X53250Y130849D02*
X61650D01*
X53250Y129049D02*
X61650D01*
X53250Y127249D02*
X61650D01*
X53250Y125449D02*
X61650D01*
G54D28*
X94050Y110150D03*
X104050D03*
X114050D03*
X124050D03*
X23259Y209237D03*
X19127Y200130D03*
X189250Y69050D03*
X199250D03*
X271894Y88405D03*
X258358Y84307D03*
X267175Y79588D03*
X253639Y75491D03*
X262456Y70772D03*
G54D36*
X46550Y225950D03*
Y220950D03*
X51550Y225950D03*
Y220950D03*
X56550Y225950D03*
Y220950D03*
X61550Y225950D03*
Y220950D03*
X66550Y225950D03*
Y220950D03*
X71550Y225950D03*
Y220950D03*
X129250Y267550D03*
Y262550D03*
X134250Y267550D03*
Y262550D03*
X139250Y267550D03*
Y262550D03*
X144250Y267550D03*
Y262550D03*
X149250Y267550D03*
Y262550D03*
X154250Y267550D03*
Y262550D03*
X229850Y216150D03*
Y211150D03*
X234850Y216150D03*
Y211150D03*
X239850Y216150D03*
Y211150D03*
X244850Y216150D03*
Y211150D03*
X249850Y216150D03*
Y211150D03*
X254850Y216150D03*
Y211150D03*
G54D38*
X289250Y144650D02*
G75*
G03X289250I-144600J0D01*
G01X239198Y71661D02*
G03X239198I-7086J0D01*
G01X234005Y47755D02*
G03X234005I-5906J0D01*
G01X208823Y243927D02*
G03X208823I-7086J0D01*
G01X193090Y265967D02*
G03X193090I-5905J0D01*
G01X44449Y106000D02*
G03X44449I-7087J0D01*
G01X24571Y121428D02*
G03X24571I-5905J0D01*
G01X34571Y123967D02*
G03X34571I-2362J0D01*
G54D74*
G01X281450Y116425D02*
X281681Y116447D01*
X281903Y116515*
X282108Y116624*
X282287Y116772*
X282435Y116951*
X282544Y117156*
X282611Y117378*
X282634Y117609*
Y125680*
X282611Y125911*
X282544Y126133*
X282435Y126338*
X282287Y126517*
X282108Y126664*
X282108D02*
X281903Y126774D01*
X281681Y126841*
X281450Y126864*
X278065*
X277994Y126894*
X277939Y126948*
X277910Y127019*
Y128277*
X277939Y128349*
X277994Y128403*
X278065Y128433*
X281450*
X281681Y128455*
X281903Y128523*
X282108Y128632*
X282287Y128779*
X282435Y128959*
X282544Y129164*
X282611Y129386*
X282634Y129617*
Y133554*
X282611Y133785*
X282544Y134007*
X282435Y134212*
X282287Y134391*
X282108Y134539*
X281903Y134648*
X281681Y134715*
X281450Y134738*
X278065*
X277994Y134768*
X277939Y134822*
X277910Y134893*
Y136151*
X277939Y136223*
X277994Y136277*
X278065Y136307*
X281450*
X281681Y136329*
X281903Y136397*
X282108Y136506*
X282287Y136653*
X282435Y136833*
X282544Y137038*
X282611Y137260*
X282634Y137491*
Y141428*
X282611Y141659*
X282544Y141881*
X282435Y142086*
X282287Y142265*
X282108Y142413*
X281903Y142522*
X281681Y142589*
X281450Y142612*
X278065*
X277994Y142642*
X277939Y142696*
X277910Y142767*
Y144025*
X277939Y144097*
X277994Y144151*
X278065Y144181*
X281450*
X281681Y144203*
X281903Y144271*
X282108Y144380*
X282287Y144527*
X282435Y144707*
X282544Y144912*
X282611Y145134*
X282634Y145365*
Y149302*
X282611Y149533*
X282544Y149755*
X282435Y149960*
X282287Y150139*
X282108Y150287*
X281903Y150396*
X281681Y150463*
X281450Y150486*
X278065*
X277994Y150516*
X277939Y150570*
X277910Y150641*
Y151899*
X277939Y151971*
X277994Y152025*
X278065Y152055*
X281450*
X281681Y152077*
X281903Y152145*
X282108Y152254*
X282287Y152401*
X282435Y152581*
X282544Y152786*
X282611Y153008*
X282634Y153239*
Y157176*
X282611Y157407*
X282544Y157629*
X282435Y157834*
X282287Y158013*
X282108Y158161*
X281903Y158270*
X281681Y158337*
X281450Y158360*
X278065*
X277994Y158390*
X277939Y158444*
X277910Y158515*
Y159773*
X277939Y159845*
X277994Y159899*
X278065Y159929*
X281450*
X281681Y159951*
X281903Y160019*
X282108Y160128*
X282287Y160276*
X282435Y160455*
X282544Y160660*
X282611Y160882*
X282634Y161113*
Y165050*
X282611Y165281*
X282544Y165503*
X282435Y165708*
X282287Y165887*
X282108Y166035*
X281903Y166144*
X281681Y166211*
X281450Y166234*
X268851*
X268620Y166211*
X268398Y166144*
X268194Y166035*
X268014Y165887*
X267867Y165708*
X267757Y165503*
X267690Y165281*
X267667Y165050*
X267690Y164819*
X267757Y164597*
X267867Y164392*
X268014Y164213*
X268194Y164065*
X268398Y163956*
X268620Y163888*
X268851Y163866*
X280110*
X280182Y163836*
X280236Y163782*
X280266Y163710*
Y162452*
X280236Y162381*
X280182Y162327*
X280110Y162297*
X276725*
X276494Y162274*
X276272Y162207*
X276068Y162098*
X275888Y161950*
X275741Y161771*
X275631Y161566*
X275564Y161344*
X275541Y161113*
Y157176*
X275564Y156945*
X275631Y156723*
X275741Y156518*
X275888Y156338*
X275888D02*
X276068Y156191D01*
X276272Y156082*
X276494Y156014*
X276726Y155992*
X276726D02*
X280110D01*
X280182Y155962*
X280236Y155908*
X280266Y155836*
Y154578*
X280236Y154507*
X280182Y154453*
X280110Y154423*
X276725*
X276725D02*
X276494Y154400D01*
X276272Y154333*
X276068Y154224*
X275888Y154076*
X275741Y153897*
X275631Y153692*
X275564Y153470*
X275541Y153239*
Y149302*
X275564Y149071*
X275631Y148849*
X275741Y148644*
X275888Y148464*
X276068Y148317*
X276272Y148208*
X276494Y148140*
X276726Y148118*
X276726D02*
X280110D01*
X280182Y148088*
X280236Y148034*
X280266Y147962*
Y146704*
X280236Y146633*
X280182Y146579*
X280110Y146549*
X276725*
X276725D02*
X276494Y146526D01*
X276272Y146459*
X276068Y146350*
X275888Y146202*
X275741Y146023*
X275631Y145818*
X275564Y145596*
X275541Y145365*
Y141428*
X275564Y141197*
X275631Y140975*
X275741Y140770*
X275888Y140590*
X276068Y140443*
X276272Y140334*
X276494Y140266*
X276726Y140244*
X276726D02*
X280110D01*
X280182Y140214*
X280236Y140160*
X280266Y140088*
Y138830*
X280236Y138759*
X280182Y138705*
X280110Y138675*
X276725*
X276725D02*
X276494Y138652D01*
X276272Y138585*
X276068Y138476*
X275888Y138328*
X275741Y138149*
X275631Y137944*
X275564Y137722*
X275541Y137491*
Y133554*
X275564Y133323*
X275631Y133101*
X275741Y132896*
X275888Y132716*
X276068Y132569*
X276272Y132460*
X276494Y132392*
X276726Y132370*
X276726D02*
X280110D01*
X280182Y132340*
X280236Y132286*
X280266Y132214*
Y130956*
X280236Y130885*
X280182Y130831*
X280110Y130801*
X276725*
X276725D02*
X276494Y130778D01*
X276272Y130711*
X276068Y130602*
X275888Y130454*
X275741Y130275*
X275631Y130070*
X275564Y129848*
X275541Y129617*
Y125680*
X275564Y125449*
X275631Y125227*
X275741Y125022*
X275888Y124842*
X276068Y124695*
X276272Y124586*
X276494Y124518*
X276726Y124496*
X276726D02*
X280110D01*
X280182Y124466*
X280236Y124412*
X280266Y124340*
Y117609*
X280288Y117378*
X280356Y117156*
X280465Y116951*
X280613Y116772*
X280792Y116624*
X280997Y116515*
X281219Y116447*
X281450Y116425*
X267669Y165033D02*
Y165067D01*
X268063Y164173D02*
Y165927D01*
X268456Y163938D02*
Y166162D01*
X268850Y163866D02*
Y166234D01*
X269244Y163866D02*
Y166234D01*
X269637Y163866D02*
Y166234D01*
X270031Y163866D02*
Y166234D01*
X270425Y163866D02*
Y166234D01*
X270819Y163866D02*
Y166234D01*
X271212Y163866D02*
Y166234D01*
X271606Y163866D02*
Y166234D01*
X272000Y163866D02*
Y166234D01*
X272393Y163866D02*
Y166234D01*
X272787Y163866D02*
Y166234D01*
X273181Y163866D02*
Y166234D01*
X273574Y163866D02*
Y166234D01*
X273968Y163866D02*
Y166234D01*
X274362Y163866D02*
Y166234D01*
X274756Y163866D02*
Y166234D01*
X275149Y163866D02*
Y166234D01*
X275543Y125663D02*
Y129634D01*
Y133537D02*
Y137508D01*
Y141411D02*
Y145382D01*
Y149285D02*
Y153256D01*
Y157159D02*
Y161130D01*
Y163866D02*
Y166234D01*
X275937Y124803D02*
Y130494D01*
Y132677D02*
Y138368D01*
Y140551D02*
Y146242D01*
Y148425D02*
Y154116D01*
Y156299D02*
Y161990D01*
Y163866D02*
Y166234D01*
X276330Y124568D02*
Y130729D01*
Y132442D02*
Y138603D01*
Y140316D02*
Y146477D01*
Y148190D02*
Y154351D01*
Y156064D02*
Y162225D01*
Y163866D02*
Y166234D01*
X276724Y124496D02*
Y130801D01*
Y132370D02*
Y138675D01*
Y140244D02*
Y146549D01*
Y148118D02*
Y154423D01*
Y155992D02*
Y162297D01*
Y163866D02*
Y166234D01*
X277118Y124496D02*
Y130801D01*
Y132370D02*
Y138675D01*
Y140244D02*
Y146549D01*
Y148118D02*
Y154423D01*
Y155992D02*
Y162297D01*
Y163866D02*
Y166234D01*
X277511Y124496D02*
Y130801D01*
Y132370D02*
Y138675D01*
Y140244D02*
Y146549D01*
Y148118D02*
Y154423D01*
Y155992D02*
Y162297D01*
Y163866D02*
Y166234D01*
X277905Y124496D02*
Y130801D01*
Y132370D02*
Y138675D01*
Y140244D02*
Y146549D01*
Y148118D02*
Y154423D01*
Y155992D02*
Y162297D01*
Y163866D02*
Y166234D01*
X278299Y124496D02*
Y126864D01*
Y128433D02*
Y130801D01*
Y132370D02*
Y134738D01*
Y136307D02*
Y138675D01*
Y140244D02*
Y142612D01*
Y144181D02*
Y146549D01*
Y148118D02*
Y150486D01*
Y152055D02*
Y154423D01*
Y155992D02*
Y158360D01*
Y159929D02*
Y162297D01*
Y163866D02*
Y166234D01*
X278693Y124496D02*
Y126864D01*
Y128433D02*
Y130801D01*
Y132370D02*
Y134738D01*
Y136307D02*
Y138675D01*
Y140244D02*
Y142612D01*
Y144181D02*
Y146549D01*
Y148118D02*
Y150486D01*
Y152055D02*
Y154423D01*
Y155992D02*
Y158360D01*
Y159929D02*
Y162297D01*
Y163866D02*
Y166234D01*
X279086Y124496D02*
Y126864D01*
Y128433D02*
Y130801D01*
Y132370D02*
Y134738D01*
Y136307D02*
Y138675D01*
Y140244D02*
Y142612D01*
Y144181D02*
Y146549D01*
Y148118D02*
Y150486D01*
Y152055D02*
Y154423D01*
Y155992D02*
Y158360D01*
Y159929D02*
Y162297D01*
Y163866D02*
Y166234D01*
X279480Y124496D02*
Y126864D01*
Y128433D02*
Y130801D01*
Y132370D02*
Y134738D01*
Y136307D02*
Y138675D01*
Y140244D02*
Y142612D01*
Y144181D02*
Y146549D01*
Y148118D02*
Y150486D01*
Y152055D02*
Y154423D01*
Y155992D02*
Y158360D01*
Y159929D02*
Y162297D01*
Y163866D02*
Y166234D01*
X279874Y124496D02*
Y126864D01*
Y128433D02*
Y130801D01*
Y132370D02*
Y134738D01*
Y136307D02*
Y138675D01*
Y140244D02*
Y142612D01*
Y144181D02*
Y146549D01*
Y148118D02*
Y150486D01*
Y152055D02*
Y154423D01*
Y155992D02*
Y158360D01*
Y159929D02*
Y162297D01*
Y163866D02*
Y166234D01*
X280267Y117592D02*
Y126864D01*
Y128433D02*
Y134738D01*
Y136307D02*
Y142612D01*
Y144181D02*
Y150486D01*
Y152055D02*
Y158360D01*
Y159929D02*
Y166234D01*
X280661Y116732D02*
Y126864D01*
Y128433D02*
Y134738D01*
Y136307D02*
Y142612D01*
Y144181D02*
Y150486D01*
Y152055D02*
Y158360D01*
Y159929D02*
Y166234D01*
X281055Y116497D02*
Y126864D01*
Y128433D02*
Y134738D01*
Y136307D02*
Y142612D01*
Y144181D02*
Y150486D01*
Y152055D02*
Y158360D01*
Y159929D02*
Y166234D01*
X281448Y116425D02*
Y126864D01*
Y128433D02*
Y134738D01*
Y136307D02*
Y142612D01*
Y144181D02*
Y150486D01*
Y152055D02*
Y158360D01*
Y159929D02*
Y166234D01*
X281842Y116496D02*
Y126792D01*
Y128504D02*
Y134666D01*
Y136378D02*
Y142540D01*
Y144252D02*
Y150414D01*
Y152126D02*
Y158288D01*
Y160000D02*
Y166163D01*
X282236Y116729D02*
Y126559D01*
Y128737D02*
Y134433D01*
Y136611D02*
Y142308D01*
Y144485D02*
Y150182D01*
Y152359D02*
Y158056D01*
Y160233D02*
Y165930D01*
X282630Y117562D02*
Y125727D01*
Y129570D02*
Y133601D01*
Y137444D02*
Y141475D01*
Y145318D02*
Y149349D01*
Y153192D02*
Y157223D01*
Y161066D02*
Y165097D01*
G54D134*
X268850Y165050D03*
G54D135*
X238175Y165550D03*
X241325D03*
X245750Y161975D03*
Y165125D03*
X261750D03*
Y161975D03*
X257750Y165125D03*
Y161975D03*
X253750Y165150D03*
X249750D03*
X233750Y161550D03*
Y165550D03*
X237750Y157550D03*
Y161550D03*
G54D136*
X83150Y33950D03*
G54D137*
X242245Y144071D03*
X249331D03*
X102655Y130829D03*
X95569D03*
X102655Y124729D03*
X95569D03*
X105155Y166329D03*
X98069D03*
X60650Y169981D03*
X56910Y161319D03*
X64390D03*
X60650Y176419D03*
X64390Y185081D03*
X56910D03*
G54D138*
X127100Y200750D03*
X134600D03*
X130850Y209450D03*
X117600Y216850D03*
X110100D03*
X113850Y208150D03*
X109400Y192450D03*
X116900D03*
X113150Y201150D03*
G54D139*
X161403Y164650D03*
X155497D03*
Y170450D03*
X161403D03*
G54D140*
X113650Y174497D03*
Y180403D03*
G54D141*
X97480Y19051D03*
X107480D03*
X117480D03*
X134550Y10550D03*
X144550D03*
X154550D03*
X175850Y20550D03*
X185850D03*
X195850D03*
X58950Y98150D03*
X68950D03*
X78950D03*
G54D142*
X53305Y114150D03*
X60195D03*
G54D143*
X185850Y105050D03*
Y110463D03*
X181550Y46150D03*
Y40737D03*
X46250Y137950D03*
Y132537D03*
G54D144*
X185826Y115227D03*
Y120227D03*
X163826D03*
Y115227D03*
Y110227D03*
Y105227D03*
X181574Y35973D03*
Y30973D03*
X203574D03*
Y35973D03*
Y40973D03*
Y45973D03*
X46274Y127773D03*
Y122773D03*
X68274D03*
Y127773D03*
Y132773D03*
Y137773D03*
G54D145*
X201875Y91852D03*
X204434D03*
X206993D03*
X209552D03*
X212111D03*
X214670D03*
X217230D03*
X219789D03*
X222348D03*
X224907D03*
X227466D03*
X230025D03*
Y117048D03*
X227466D03*
X224907D03*
X222348D03*
X219789D03*
X217230D03*
X214670D03*
X212111D03*
X209552D03*
X206993D03*
X204434D03*
X201875D03*
G54D146*
X198871Y186450D03*
X189029D03*
G54D147*
X208219Y186904D03*
X216881D03*
Y193596D03*
X208219D03*
X146181Y157796D03*
X137519D03*
Y151104D03*
X146181D03*
G54D148*
X86670Y205350D03*
X101630D03*
G54D149*
X146873Y180949D03*
Y205358D03*
G54D150*
X112145Y228650D03*
X136555D03*
X155061Y215599D03*
X179470D03*
G54D151*
X199945Y167511D03*
Y165937D03*
Y164362D03*
Y162787D03*
Y161212D03*
Y159637D03*
Y158063D03*
Y156488D03*
Y154913D03*
Y153338D03*
Y151763D03*
Y150189D03*
X224355D03*
Y151763D03*
Y153338D03*
Y154913D03*
Y156488D03*
Y158063D03*
Y159637D03*
Y161212D03*
Y162787D03*
Y164362D03*
Y165937D03*
Y167511D03*
G54D152*
X203489Y146645D03*
X205063D03*
X206638D03*
X208213D03*
X209788D03*
X211363D03*
X212937D03*
X214512D03*
X216087D03*
X217662D03*
X219237D03*
X220811D03*
Y171055D03*
X219237D03*
X217662D03*
X216087D03*
X214512D03*
X212937D03*
X211363D03*
X209788D03*
X208213D03*
X206638D03*
X205063D03*
X203489D03*
G54D153*
X212150Y158850D03*
G54D154*
X17566Y151627D02*
X21442Y150939D01*
X3610Y154101D02*
X7487Y153414D01*
X8764Y183175D02*
X12641Y182488D01*
X22720Y180701D02*
X26596Y180014D01*
G54D155*
X136150Y94650D03*
Y89650D03*
Y84650D03*
Y79650D03*
X157750D03*
Y84650D03*
Y89650D03*
Y94650D03*
G54D156*
X146950Y87150D03*
G54D157*
X234897Y170850D03*
X240803D03*
X155597Y159350D03*
X161503D03*
X199150Y201203D03*
Y195297D03*
X209197Y199050D03*
X215103D03*
X188950Y201303D03*
Y195397D03*
X223350Y187197D03*
Y193103D03*
X112550Y89603D03*
Y83697D03*
X125050Y89503D03*
Y83597D03*
X118350Y89503D03*
Y83597D03*
X165697Y96750D03*
X171603D03*
X165697Y90950D03*
X171603D03*
X171550Y78697D03*
Y84603D03*
X120650Y174497D03*
Y180403D03*
X98497Y173250D03*
X104403D03*
X98497Y180450D03*
X104403D03*
X225750Y131097D03*
Y137003D03*
X88003Y130750D03*
X82097D03*
X88103Y124850D03*
X82197D03*
X112950Y62503D03*
Y56597D03*
X104103Y93750D03*
X98197D03*
X136097Y101250D03*
X142003D03*
X164503Y65850D03*
X158597D03*
X165750Y84603D03*
Y78697D03*
X158597Y71550D03*
X164503D03*
X111697Y166350D03*
X117603D03*
X63103Y191250D03*
X57197D03*
X134603Y192050D03*
X128697D03*
X50750Y161397D03*
Y167303D03*
X127450Y174797D03*
Y180703D03*
X211050Y46503D03*
Y40597D03*
X169350Y31297D03*
Y37203D03*
X144103Y132450D03*
X138197D03*
X144103Y137850D03*
X138197D03*
X204550Y84603D03*
Y78697D03*
X243097Y150450D03*
X249003D03*
X243097Y156250D03*
X249003D03*
X144603Y145650D03*
X138697D03*
X139197Y163250D03*
X145103D03*
X70950Y167203D03*
Y161297D03*
X160103Y151150D03*
X154197D03*
X172497Y138550D03*
X178403D03*
G54D158*
X73150Y33950D03*
G54D159*
X134550Y69750D03*
Y45950D03*
G54D160*
X99859Y192950D03*
X88441D03*
G54D161*
X98647Y55764D03*
Y62457D03*
Y69150D03*
Y75843D03*
Y82536D03*
G54D162*
X56324Y69150D03*
G74*
X0Y0D02*
M02*
