*
*
G04 PADS 9.5 Build Number: 522968 generated Gerber (RS-274-X) file*
G04 PC Version=2.1*
*
%IN "ELESMELL_V50_v1.pcb"*%
*
%MOIN*%
*
%FSLAX35Y35*%
*
*
*
*
G04 PC Standard Apertures*
*
*
G04 Thermal Relief Aperture macro.*
%AMTER*
1,1,$1,0,0*
1,0,$1-$2,0,0*
21,0,$3,$4,0,0,45*
21,0,$3,$4,0,0,135*
%
*
*
G04 Annular Aperture macro.*
%AMANN*
1,1,$1,0,0*
1,0,$2,0,0*
%
*
*
G04 Odd Aperture macro.*
%AMODD*
1,1,$1,0,0*
1,0,$1-0.005,0,0*
%
*
*
G04 PC Custom Aperture Macros*
*
*
*
*
*
*
G04 PC Aperture Table*
*
%ADD011C,0.01*%
%ADD038C,0.001*%
%ADD058C,0.00394*%
%ADD074C,0.00787*%
%ADD092C,0.01968*%
%ADD093R,0.02X0.02*%
%ADD096R,0.0315X0.0315*%
%ADD099R,0.03937X0.03937*%
%ADD100R,0.036X0.05*%
%ADD101R,0.032X0.035*%
%ADD103R,0.035X0.032*%
%ADD104R,0.034X0.056*%
%ADD105R,0.04134X0.0689*%
%ADD106O,0.06299X0.01968*%
%ADD107O,0.06299X0.024*%
%ADD108R,0.12992X0.0374*%
%ADD110R,0.01181X0.05906*%
%ADD111R,0.03937X0.07087*%
%ADD112R,0.03937X0.0315*%
%ADD113R,0.06299X0.06299*%
%ADD114R,0.06299X0.07874*%
%ADD115R,0.07874X0.06299*%
%ADD116O,0.03937X0.00787*%
%ADD117O,0.00787X0.03937*%
%ADD118R,0.17717X0.17717*%
%ADD166R,0.049X0.026*%
%ADD167R,0.096X0.136*%
%ADD168R,0.136X0.091*%
*
*
*
*
G04 PC Circuitry*
G04 Layer Name ELESMELL_V50_v1.pcb - circuitry*
%LPD*%
*
*
G04 PC Custom Flashes*
G04 Layer Name ELESMELL_V50_v1.pcb - flashes*
%LPD*%
*
*
G04 PC Circuitry*
G04 Layer Name ELESMELL_V50_v1.pcb - circuitry*
%LPD*%
*
G54D11*
G01X27537Y170143D02*
X18831Y171686D01*
X18799Y171508*
X27506Y169964*
X27537Y170143*
X23639Y170650D02*
X24676D01*
X18824Y171650D02*
X19035D01*
X18799Y171508D02*
X18799D01*
X19799Y171331D02*
Y171515D01*
X20799Y171153D02*
Y171337D01*
X21799Y170976D02*
Y171160D01*
X22799Y170799D02*
Y170983D01*
X23799Y170622D02*
Y170805D01*
X24799Y170444D02*
Y170628D01*
X25799Y170267D02*
Y170451D01*
X26799Y170090D02*
Y170274D01*
X27091Y167623D02*
X18384Y169167D01*
X18352Y168988*
X27059Y167445*
X27091Y167623*
X25901Y167650D02*
X26938D01*
X20260Y168650D02*
X21297D01*
X18352Y168988D02*
X18352D01*
X19352Y168811D02*
Y168995D01*
X20352Y168634D02*
Y168818D01*
X21352Y168456D02*
Y168640D01*
X22352Y168279D02*
Y168463D01*
X23352Y168102D02*
Y168286D01*
X24352Y167924D02*
Y168108D01*
X25352Y167747D02*
Y167931D01*
X26352Y167570D02*
Y167754D01*
X26644Y165103D02*
X17937Y166647D01*
X17906Y166468*
X26612Y164925*
X26644Y165103*
X22522Y165650D02*
X23560D01*
X17906Y166468D02*
X17906D01*
X18906Y166291D02*
Y166475D01*
X19906Y166114D02*
Y166298D01*
X20906Y165937D02*
Y166121D01*
X21906Y165759D02*
Y165943D01*
X22906Y165582D02*
Y165766D01*
X23906Y165405D02*
Y165589D01*
X24906Y165227D02*
Y165411D01*
X25906Y165050D02*
Y165234D01*
X26197Y162583D02*
X17491Y164127D01*
X17459Y163949*
X26166Y162405*
X26197Y162583*
X24784Y162650D02*
X25822D01*
X19144Y163650D02*
X20181D01*
X17459Y163949D02*
X17459D01*
X18459Y163771D02*
Y163955D01*
X19459Y163594D02*
Y163778D01*
X20459Y163417D02*
Y163601D01*
X21459Y163240D02*
Y163423D01*
X22459Y163062D02*
Y163246D01*
X23459Y162885D02*
Y163069D01*
X24459Y162708D02*
Y162892D01*
X25459Y162530D02*
Y162714D01*
X25751Y160064D02*
X17044Y161607D01*
X17012Y161429*
X25719Y159885*
X25751Y160064*
X21406Y160650D02*
X22443D01*
X17012Y161429D02*
X17012D01*
X18012Y161252D02*
Y161436D01*
X19012Y161074D02*
Y161258D01*
X20012Y160897D02*
Y161081D01*
X21012Y160720D02*
Y160904D01*
X22012Y160542D02*
Y160726D01*
X23012Y160365D02*
Y160549D01*
X24012Y160188D02*
Y160372D01*
X25012Y160011D02*
Y160195D01*
G54D38*
X289250Y144650D02*
G75*
G03X289250I-144600J0D01*
G01X239198Y71661D02*
G03X239198I-7086J0D01*
G01X234005Y47755D02*
G03X234005I-5906J0D01*
G01X208823Y243927D02*
G03X208823I-7086J0D01*
G01X193090Y265967D02*
G03X193090I-5905J0D01*
G01X44449Y106000D02*
G03X44449I-7087J0D01*
G01X24571Y121428D02*
G03X24571I-5905J0D01*
G01X34571Y123967D02*
G03X34571I-2362J0D01*
G54D58*
G01X62387Y79937D02*
X67584D01*
Y86473*
X62387*
Y79937*
X62426D02*
Y86473D01*
X62623Y79937D02*
Y86473D01*
X62820Y79937D02*
Y86473D01*
X63017Y79937D02*
Y86473D01*
X63214Y79937D02*
Y86473D01*
X63411Y79937D02*
Y86473D01*
X63607Y79937D02*
Y86473D01*
X63804Y79937D02*
Y86473D01*
X64001Y79937D02*
Y86473D01*
X64198Y79937D02*
Y86473D01*
X64395Y79937D02*
Y86473D01*
X64592Y79937D02*
Y86473D01*
X64789Y79937D02*
Y86473D01*
X64985Y79937D02*
Y86473D01*
X65182Y79937D02*
Y86473D01*
X65379Y79937D02*
Y86473D01*
X65576Y79937D02*
Y86473D01*
X65773Y79937D02*
Y86473D01*
X65970Y79937D02*
Y86473D01*
X66167Y79937D02*
Y86473D01*
X66363Y79937D02*
Y86473D01*
X66560Y79937D02*
Y86473D01*
X66757Y79937D02*
Y86473D01*
X66954Y79937D02*
Y86473D01*
X67151Y79937D02*
Y86473D01*
X67348Y79937D02*
Y86473D01*
X67544Y79937D02*
Y86473D01*
X53726Y79937D02*
X58922D01*
Y86473*
X53726*
Y79937*
X53765D02*
Y86473D01*
X53962Y79937D02*
Y86473D01*
X54159Y79937D02*
Y86473D01*
X54356Y79937D02*
Y86473D01*
X54552Y79937D02*
Y86473D01*
X54749Y79937D02*
Y86473D01*
X54946Y79937D02*
Y86473D01*
X55143Y79937D02*
Y86473D01*
X55340Y79937D02*
Y86473D01*
X55537Y79937D02*
Y86473D01*
X55733Y79937D02*
Y86473D01*
X55930Y79937D02*
Y86473D01*
X56127Y79937D02*
Y86473D01*
X56324Y79937D02*
Y86473D01*
X56521Y79937D02*
Y86473D01*
X56718Y79937D02*
Y86473D01*
X56915Y79937D02*
Y86473D01*
X57111Y79937D02*
Y86473D01*
X57308Y79937D02*
Y86473D01*
X57505Y79937D02*
Y86473D01*
X57702Y79937D02*
Y86473D01*
X57899Y79937D02*
Y86473D01*
X58096Y79937D02*
Y86473D01*
X58293Y79937D02*
Y86473D01*
X58489Y79937D02*
Y86473D01*
X58686Y79937D02*
Y86473D01*
X58883Y79937D02*
Y86473D01*
X45064Y79937D02*
X50261D01*
Y86473*
X45064*
Y79937*
X45104D02*
Y86473D01*
X45300Y79937D02*
Y86473D01*
X45497Y79937D02*
Y86473D01*
X45694Y79937D02*
Y86473D01*
X45891Y79937D02*
Y86473D01*
X46088Y79937D02*
Y86473D01*
X46285Y79937D02*
Y86473D01*
X46481Y79937D02*
Y86473D01*
X46678Y79937D02*
Y86473D01*
X46875Y79937D02*
Y86473D01*
X47072Y79937D02*
Y86473D01*
X47269Y79937D02*
Y86473D01*
X47466Y79937D02*
Y86473D01*
X47663Y79937D02*
Y86473D01*
X47859Y79937D02*
Y86473D01*
X48056Y79937D02*
Y86473D01*
X48253Y79937D02*
Y86473D01*
X48450Y79937D02*
Y86473D01*
X48647Y79937D02*
Y86473D01*
X48844Y79937D02*
Y86473D01*
X49041Y79937D02*
Y86473D01*
X49237Y79937D02*
Y86473D01*
X49434Y79937D02*
Y86473D01*
X49631Y79937D02*
Y86473D01*
X49828Y79937D02*
Y86473D01*
X50025Y79937D02*
Y86473D01*
X50222Y79937D02*
Y86473D01*
X62387Y70567D02*
X67584D01*
Y77103*
X62387*
Y70567*
X62426D02*
Y77103D01*
X62623Y70567D02*
Y77103D01*
X62820Y70567D02*
Y77103D01*
X63017Y70567D02*
Y77103D01*
X63214Y70567D02*
Y77103D01*
X63411Y70567D02*
Y77103D01*
X63607Y70567D02*
Y77103D01*
X63804Y70567D02*
Y77103D01*
X64001Y70567D02*
Y77103D01*
X64198Y70567D02*
Y77103D01*
X64395Y70567D02*
Y77103D01*
X64592Y70567D02*
Y77103D01*
X64789Y70567D02*
Y77103D01*
X64985Y70567D02*
Y77103D01*
X65182Y70567D02*
Y77103D01*
X65379Y70567D02*
Y77103D01*
X65576Y70567D02*
Y77103D01*
X65773Y70567D02*
Y77103D01*
X65970Y70567D02*
Y77103D01*
X66167Y70567D02*
Y77103D01*
X66363Y70567D02*
Y77103D01*
X66560Y70567D02*
Y77103D01*
X66757Y70567D02*
Y77103D01*
X66954Y70567D02*
Y77103D01*
X67151Y70567D02*
Y77103D01*
X67348Y70567D02*
Y77103D01*
X67544Y70567D02*
Y77103D01*
X53726Y70567D02*
X58922D01*
Y77103*
X53726*
Y70567*
X53765D02*
Y77103D01*
X53962Y70567D02*
Y77103D01*
X54159Y70567D02*
Y77103D01*
X54356Y70567D02*
Y77103D01*
X54552Y70567D02*
Y77103D01*
X54749Y70567D02*
Y77103D01*
X54946Y70567D02*
Y77103D01*
X55143Y70567D02*
Y77103D01*
X55340Y70567D02*
Y77103D01*
X55537Y70567D02*
Y77103D01*
X55733Y70567D02*
Y77103D01*
X55930Y70567D02*
Y77103D01*
X56127Y70567D02*
Y77103D01*
X56324Y70567D02*
Y77103D01*
X56521Y70567D02*
Y77103D01*
X56718Y70567D02*
Y77103D01*
X56915Y70567D02*
Y77103D01*
X57111Y70567D02*
Y77103D01*
X57308Y70567D02*
Y77103D01*
X57505Y70567D02*
Y77103D01*
X57702Y70567D02*
Y77103D01*
X57899Y70567D02*
Y77103D01*
X58096Y70567D02*
Y77103D01*
X58293Y70567D02*
Y77103D01*
X58489Y70567D02*
Y77103D01*
X58686Y70567D02*
Y77103D01*
X58883Y70567D02*
Y77103D01*
X45064Y70567D02*
X50261D01*
Y77103*
X45064*
Y70567*
X45104D02*
Y77103D01*
X45300Y70567D02*
Y77103D01*
X45497Y70567D02*
Y77103D01*
X45694Y70567D02*
Y77103D01*
X45891Y70567D02*
Y77103D01*
X46088Y70567D02*
Y77103D01*
X46285Y70567D02*
Y77103D01*
X46481Y70567D02*
Y77103D01*
X46678Y70567D02*
Y77103D01*
X46875Y70567D02*
Y77103D01*
X47072Y70567D02*
Y77103D01*
X47269Y70567D02*
Y77103D01*
X47466Y70567D02*
Y77103D01*
X47663Y70567D02*
Y77103D01*
X47859Y70567D02*
Y77103D01*
X48056Y70567D02*
Y77103D01*
X48253Y70567D02*
Y77103D01*
X48450Y70567D02*
Y77103D01*
X48647Y70567D02*
Y77103D01*
X48844Y70567D02*
Y77103D01*
X49041Y70567D02*
Y77103D01*
X49237Y70567D02*
Y77103D01*
X49434Y70567D02*
Y77103D01*
X49631Y70567D02*
Y77103D01*
X49828Y70567D02*
Y77103D01*
X50025Y70567D02*
Y77103D01*
X50222Y70567D02*
Y77103D01*
X62387Y61197D02*
X67584D01*
Y67733*
X62387*
Y61197*
X62426D02*
Y67733D01*
X62623Y61197D02*
Y67733D01*
X62820Y61197D02*
Y67733D01*
X63017Y61197D02*
Y67733D01*
X63214Y61197D02*
Y67733D01*
X63411Y61197D02*
Y67733D01*
X63607Y61197D02*
Y67733D01*
X63804Y61197D02*
Y67733D01*
X64001Y61197D02*
Y67733D01*
X64198Y61197D02*
Y67733D01*
X64395Y61197D02*
Y67733D01*
X64592Y61197D02*
Y67733D01*
X64789Y61197D02*
Y67733D01*
X64985Y61197D02*
Y67733D01*
X65182Y61197D02*
Y67733D01*
X65379Y61197D02*
Y67733D01*
X65576Y61197D02*
Y67733D01*
X65773Y61197D02*
Y67733D01*
X65970Y61197D02*
Y67733D01*
X66167Y61197D02*
Y67733D01*
X66363Y61197D02*
Y67733D01*
X66560Y61197D02*
Y67733D01*
X66757Y61197D02*
Y67733D01*
X66954Y61197D02*
Y67733D01*
X67151Y61197D02*
Y67733D01*
X67348Y61197D02*
Y67733D01*
X67544Y61197D02*
Y67733D01*
X53726Y61197D02*
X58922D01*
Y67733*
X53726*
Y61197*
X53765D02*
Y67733D01*
X53962Y61197D02*
Y67733D01*
X54159Y61197D02*
Y67733D01*
X54356Y61197D02*
Y67733D01*
X54552Y61197D02*
Y67733D01*
X54749Y61197D02*
Y67733D01*
X54946Y61197D02*
Y67733D01*
X55143Y61197D02*
Y67733D01*
X55340Y61197D02*
Y67733D01*
X55537Y61197D02*
Y67733D01*
X55733Y61197D02*
Y67733D01*
X55930Y61197D02*
Y67733D01*
X56127Y61197D02*
Y67733D01*
X56324Y61197D02*
Y67733D01*
X56521Y61197D02*
Y67733D01*
X56718Y61197D02*
Y67733D01*
X56915Y61197D02*
Y67733D01*
X57111Y61197D02*
Y67733D01*
X57308Y61197D02*
Y67733D01*
X57505Y61197D02*
Y67733D01*
X57702Y61197D02*
Y67733D01*
X57899Y61197D02*
Y67733D01*
X58096Y61197D02*
Y67733D01*
X58293Y61197D02*
Y67733D01*
X58489Y61197D02*
Y67733D01*
X58686Y61197D02*
Y67733D01*
X58883Y61197D02*
Y67733D01*
X45064Y61197D02*
X50261D01*
Y67733*
X45064*
Y61197*
X45104D02*
Y67733D01*
X45300Y61197D02*
Y67733D01*
X45497Y61197D02*
Y67733D01*
X45694Y61197D02*
Y67733D01*
X45891Y61197D02*
Y67733D01*
X46088Y61197D02*
Y67733D01*
X46285Y61197D02*
Y67733D01*
X46481Y61197D02*
Y67733D01*
X46678Y61197D02*
Y67733D01*
X46875Y61197D02*
Y67733D01*
X47072Y61197D02*
Y67733D01*
X47269Y61197D02*
Y67733D01*
X47466Y61197D02*
Y67733D01*
X47663Y61197D02*
Y67733D01*
X47859Y61197D02*
Y67733D01*
X48056Y61197D02*
Y67733D01*
X48253Y61197D02*
Y67733D01*
X48450Y61197D02*
Y67733D01*
X48647Y61197D02*
Y67733D01*
X48844Y61197D02*
Y67733D01*
X49041Y61197D02*
Y67733D01*
X49237Y61197D02*
Y67733D01*
X49434Y61197D02*
Y67733D01*
X49631Y61197D02*
Y67733D01*
X49828Y61197D02*
Y67733D01*
X50025Y61197D02*
Y67733D01*
X50222Y61197D02*
Y67733D01*
X62387Y51827D02*
X67584D01*
Y58363*
X62387*
Y51827*
X62426D02*
Y58363D01*
X62623Y51827D02*
Y58363D01*
X62820Y51827D02*
Y58363D01*
X63017Y51827D02*
Y58363D01*
X63214Y51827D02*
Y58363D01*
X63411Y51827D02*
Y58363D01*
X63607Y51827D02*
Y58363D01*
X63804Y51827D02*
Y58363D01*
X64001Y51827D02*
Y58363D01*
X64198Y51827D02*
Y58363D01*
X64395Y51827D02*
Y58363D01*
X64592Y51827D02*
Y58363D01*
X64789Y51827D02*
Y58363D01*
X64985Y51827D02*
Y58363D01*
X65182Y51827D02*
Y58363D01*
X65379Y51827D02*
Y58363D01*
X65576Y51827D02*
Y58363D01*
X65773Y51827D02*
Y58363D01*
X65970Y51827D02*
Y58363D01*
X66167Y51827D02*
Y58363D01*
X66363Y51827D02*
Y58363D01*
X66560Y51827D02*
Y58363D01*
X66757Y51827D02*
Y58363D01*
X66954Y51827D02*
Y58363D01*
X67151Y51827D02*
Y58363D01*
X67348Y51827D02*
Y58363D01*
X67544Y51827D02*
Y58363D01*
X53726Y51827D02*
X58922D01*
Y58363*
X53726*
Y51827*
X53765D02*
Y58363D01*
X53962Y51827D02*
Y58363D01*
X54159Y51827D02*
Y58363D01*
X54356Y51827D02*
Y58363D01*
X54552Y51827D02*
Y58363D01*
X54749Y51827D02*
Y58363D01*
X54946Y51827D02*
Y58363D01*
X55143Y51827D02*
Y58363D01*
X55340Y51827D02*
Y58363D01*
X55537Y51827D02*
Y58363D01*
X55733Y51827D02*
Y58363D01*
X55930Y51827D02*
Y58363D01*
X56127Y51827D02*
Y58363D01*
X56324Y51827D02*
Y58363D01*
X56521Y51827D02*
Y58363D01*
X56718Y51827D02*
Y58363D01*
X56915Y51827D02*
Y58363D01*
X57111Y51827D02*
Y58363D01*
X57308Y51827D02*
Y58363D01*
X57505Y51827D02*
Y58363D01*
X57702Y51827D02*
Y58363D01*
X57899Y51827D02*
Y58363D01*
X58096Y51827D02*
Y58363D01*
X58293Y51827D02*
Y58363D01*
X58489Y51827D02*
Y58363D01*
X58686Y51827D02*
Y58363D01*
X58883Y51827D02*
Y58363D01*
X45064Y51827D02*
X50261D01*
Y58363*
X45064*
Y51827*
X45104D02*
Y58363D01*
X45300Y51827D02*
Y58363D01*
X45497Y51827D02*
Y58363D01*
X45694Y51827D02*
Y58363D01*
X45891Y51827D02*
Y58363D01*
X46088Y51827D02*
Y58363D01*
X46285Y51827D02*
Y58363D01*
X46481Y51827D02*
Y58363D01*
X46678Y51827D02*
Y58363D01*
X46875Y51827D02*
Y58363D01*
X47072Y51827D02*
Y58363D01*
X47269Y51827D02*
Y58363D01*
X47466Y51827D02*
Y58363D01*
X47663Y51827D02*
Y58363D01*
X47859Y51827D02*
Y58363D01*
X48056Y51827D02*
Y58363D01*
X48253Y51827D02*
Y58363D01*
X48450Y51827D02*
Y58363D01*
X48647Y51827D02*
Y58363D01*
X48844Y51827D02*
Y58363D01*
X49041Y51827D02*
Y58363D01*
X49237Y51827D02*
Y58363D01*
X49434Y51827D02*
Y58363D01*
X49631Y51827D02*
Y58363D01*
X49828Y51827D02*
Y58363D01*
X50025Y51827D02*
Y58363D01*
X50222Y51827D02*
Y58363D01*
G54D74*
X281450Y116625D02*
X281642Y116644D01*
X281827Y116700*
X281997Y116791*
X282146Y116913*
X282268Y117062*
X282359Y117232*
X282415Y117417*
X282434Y117609*
Y125680*
X282415Y125872*
X282359Y126056*
X282268Y126227*
X282146Y126376*
X281997Y126498*
X281827Y126589*
X281642Y126645*
X281450Y126664*
X278041*
X277922Y126703*
X277822Y126776*
X277748Y126877*
X277710Y126995*
Y128301*
X277748Y128420*
X277822Y128521*
X277922Y128594*
X278041Y128633*
X281450*
X281642Y128651*
X281642D02*
X281827Y128708D01*
X281997Y128798*
X282146Y128921*
X282268Y129070*
X282359Y129240*
X282415Y129425*
X282434Y129617*
Y133554*
X282415Y133746*
X282359Y133931*
X282359D02*
X282268Y134101D01*
X282146Y134250*
X281997Y134372*
X281827Y134463*
X281642Y134519*
X281450Y134538*
X278041*
X277922Y134577*
X277822Y134650*
X277748Y134751*
X277710Y134869*
Y136175*
X277748Y136294*
X277822Y136395*
X277922Y136468*
X278041Y136507*
X281450*
X281642Y136526*
X281827Y136582*
X281997Y136672*
X282146Y136795*
X282268Y136944*
X282359Y137114*
X282415Y137299*
X282434Y137491*
Y141428*
X282415Y141620*
X282359Y141805*
X282268Y141975*
X282146Y142124*
X281997Y142246*
X281827Y142337*
X281642Y142393*
X281450Y142412*
X278041*
X277922Y142451*
X277822Y142524*
X277748Y142625*
X277710Y142743*
Y144049*
X277748Y144168*
X277822Y144269*
X277922Y144342*
X278041Y144381*
X281450*
X281642Y144400*
X281827Y144456*
X281997Y144546*
X282146Y144669*
X282268Y144818*
X282359Y144988*
X282415Y145173*
X282434Y145365*
Y149302*
X282415Y149494*
X282359Y149679*
X282268Y149849*
X282146Y149998*
X281997Y150120*
X281827Y150211*
X281642Y150267*
X281450Y150286*
X278041*
X277922Y150325*
X277822Y150398*
X277748Y150499*
X277710Y150617*
Y151923*
X277748Y152042*
X277822Y152143*
X277922Y152216*
X278041Y152255*
X281450*
X281642Y152274*
X281827Y152330*
X281997Y152421*
X282146Y152543*
X282268Y152692*
X282359Y152862*
X282415Y153047*
X282434Y153239*
Y157176*
X282415Y157368*
X282359Y157553*
X282268Y157723*
X282146Y157872*
X281997Y157994*
X281827Y158085*
X281642Y158141*
X281450Y158160*
X278041*
X277922Y158199*
X277822Y158272*
X277748Y158373*
X277710Y158491*
Y159797*
X277748Y159916*
X277822Y160017*
X277922Y160090*
X278041Y160129*
X281450*
X281642Y160148*
X281827Y160204*
X281997Y160295*
X282146Y160417*
X282268Y160566*
X282359Y160736*
X282415Y160921*
X282434Y161113*
Y165050*
X282415Y165242*
X282359Y165427*
X282268Y165597*
X282146Y165746*
X281997Y165868*
X281827Y165959*
X281642Y166015*
X281450Y166034*
X268851*
X268647Y166013*
X268451Y165949*
X268273Y165846*
X268120Y165709*
X268120D02*
X267999Y165542D01*
X267915Y165354*
X267873Y165153*
Y164947*
X267915Y164746*
X267999Y164558*
X268120Y164391*
X268273Y164254*
X268451Y164151*
X268647Y164087*
X268851Y164066*
X280134*
X280253Y164027*
X280354Y163954*
X280427Y163853*
X280466Y163734*
Y162428*
X280427Y162310*
X280354Y162209*
X280253Y162136*
X280134Y162097*
X276725*
X276533Y162078*
X276349Y162022*
X276179Y161931*
X276030Y161809*
X275907Y161660*
X275816Y161490*
X275760Y161305*
X275741Y161113*
Y157176*
X275760Y156984*
X275816Y156799*
X275907Y156629*
X276030Y156480*
X276179Y156358*
X276349Y156267*
X276533Y156211*
X276726Y156192*
X276726D02*
X280134D01*
X280253Y156153*
X280354Y156080*
X280427Y155979*
X280466Y155860*
Y154554*
X280427Y154436*
X280354Y154335*
X280253Y154262*
X280134Y154223*
X276725*
X276725D02*
X276533Y154204D01*
X276349Y154148*
X276179Y154057*
X276030Y153935*
X275907Y153786*
X275816Y153616*
X275760Y153431*
X275741Y153239*
Y149302*
X275760Y149110*
X275816Y148925*
X275907Y148755*
X276030Y148606*
X276179Y148484*
X276179D02*
X276349Y148393D01*
X276533Y148337*
X276726Y148318*
X276726D02*
X280134D01*
X280253Y148279*
X280354Y148206*
X280427Y148105*
X280466Y147986*
Y146680*
X280427Y146562*
X280354Y146461*
X280253Y146388*
X280134Y146349*
X276725*
X276725D02*
X276533Y146330D01*
X276349Y146274*
X276179Y146183*
X276030Y146061*
X275907Y145912*
X275816Y145742*
X275760Y145557*
X275741Y145365*
Y141428*
X275760Y141236*
X275816Y141051*
X275907Y140881*
X276030Y140732*
X276179Y140609*
X276349Y140519*
X276533Y140463*
X276726Y140444*
X276726D02*
X280134D01*
X280253Y140405*
X280354Y140332*
X280427Y140231*
X280466Y140112*
Y138806*
X280427Y138688*
X280354Y138587*
X280253Y138514*
X280134Y138475*
X276725*
X276725D02*
X276533Y138456D01*
X276349Y138400*
X276179Y138309*
X276030Y138187*
X275907Y138038*
X275816Y137868*
X275760Y137683*
X275741Y137491*
Y133554*
X275760Y133362*
X275816Y133177*
X275907Y133007*
X276030Y132858*
X276179Y132735*
X276349Y132645*
X276533Y132589*
X276726Y132570*
X276726D02*
X280134D01*
X280253Y132531*
X280354Y132458*
X280427Y132357*
X280466Y132238*
Y130932*
X280427Y130814*
X280354Y130713*
X280253Y130640*
X280134Y130601*
X276725*
X276725D02*
X276533Y130582D01*
X276349Y130526*
X276179Y130435*
X276030Y130313*
X275907Y130164*
X275816Y129993*
X275760Y129809*
X275741Y129617*
Y125680*
X275760Y125488*
X275816Y125303*
X275907Y125133*
X276030Y124984*
X276179Y124861*
X276349Y124770*
X276349D02*
X276533Y124714D01*
X276726Y124696*
X276726D02*
X280134D01*
X280253Y124657*
X280354Y124584*
X280427Y124483*
X280466Y124364*
Y117609*
X280485Y117417*
X280541Y117232*
X280632Y117062*
X280754Y116913*
X280903Y116791*
X281073Y116700*
X281258Y116644*
X281450Y116625*
X268063Y164470D02*
Y165629D01*
X268456Y164149D02*
Y165951D01*
X268850Y164066D02*
Y166034D01*
X269244Y164066D02*
Y166034D01*
X269637Y164066D02*
Y166034D01*
X270031Y164066D02*
Y166034D01*
X270425Y164066D02*
Y166034D01*
X270819Y164066D02*
Y166034D01*
X271212Y164066D02*
Y166034D01*
X271606Y164066D02*
Y166034D01*
X272000Y164066D02*
Y166034D01*
X272393Y164066D02*
Y166034D01*
X272787Y164066D02*
Y166034D01*
X273181Y164066D02*
Y166034D01*
X273574Y164066D02*
Y166034D01*
X273968Y164066D02*
Y166034D01*
X274362Y164066D02*
Y166034D01*
X274756Y164066D02*
Y166034D01*
X275149Y164066D02*
Y166034D01*
X275543Y164066D02*
Y166034D01*
X275937Y125097D02*
Y130200D01*
Y132971D02*
Y138074D01*
Y140845D02*
Y145948D01*
Y148719D02*
Y153822D01*
Y156593D02*
Y161696D01*
Y164066D02*
Y166034D01*
X276330Y124780D02*
Y130516D01*
Y132654D02*
Y138390D01*
Y140528D02*
Y146264D01*
Y148402D02*
Y154138D01*
Y156276D02*
Y162012D01*
Y164066D02*
Y166034D01*
X276724Y124696D02*
Y130601D01*
Y132570D02*
Y138475D01*
Y140444D02*
Y146349D01*
Y148318D02*
Y154223D01*
Y156192D02*
Y162097D01*
Y164066D02*
Y166034D01*
X277118Y124696D02*
Y130601D01*
Y132570D02*
Y138475D01*
Y140444D02*
Y146349D01*
Y148318D02*
Y154223D01*
Y156192D02*
Y162097D01*
Y164066D02*
Y166034D01*
X277511Y124696D02*
Y130601D01*
Y132570D02*
Y138475D01*
Y140444D02*
Y146349D01*
Y148318D02*
Y154223D01*
Y156192D02*
Y162097D01*
Y164066D02*
Y166034D01*
X277905Y124696D02*
Y126715D01*
Y128581D02*
Y130601D01*
Y132570D02*
Y134589D01*
Y136455D02*
Y138475D01*
Y140444D02*
Y142463D01*
Y144329D02*
Y146349D01*
Y148318D02*
Y150337D01*
Y152203D02*
Y154223D01*
Y156192D02*
Y158211D01*
Y160077D02*
Y162097D01*
Y164066D02*
Y166034D01*
X278299Y124696D02*
Y126664D01*
Y128633D02*
Y130601D01*
Y132570D02*
Y134538D01*
Y136507D02*
Y138475D01*
Y140444D02*
Y142412D01*
Y144381D02*
Y146349D01*
Y148318D02*
Y150286D01*
Y152255D02*
Y154223D01*
Y156192D02*
Y158160D01*
Y160129D02*
Y162097D01*
Y164066D02*
Y166034D01*
X278693Y124696D02*
Y126664D01*
Y128633D02*
Y130601D01*
Y132570D02*
Y134538D01*
Y136507D02*
Y138475D01*
Y140444D02*
Y142412D01*
Y144381D02*
Y146349D01*
Y148318D02*
Y150286D01*
Y152255D02*
Y154223D01*
Y156192D02*
Y158160D01*
Y160129D02*
Y162097D01*
Y164066D02*
Y166034D01*
X279086Y124696D02*
Y126664D01*
Y128633D02*
Y130601D01*
Y132570D02*
Y134538D01*
Y136507D02*
Y138475D01*
Y140444D02*
Y142412D01*
Y144381D02*
Y146349D01*
Y148318D02*
Y150286D01*
Y152255D02*
Y154223D01*
Y156192D02*
Y158160D01*
Y160129D02*
Y162097D01*
Y164066D02*
Y166034D01*
X279480Y124696D02*
Y126664D01*
Y128633D02*
Y130601D01*
Y132570D02*
Y134538D01*
Y136507D02*
Y138475D01*
Y140444D02*
Y142412D01*
Y144381D02*
Y146349D01*
Y148318D02*
Y150286D01*
Y152255D02*
Y154223D01*
Y156192D02*
Y158160D01*
Y160129D02*
Y162097D01*
Y164066D02*
Y166034D01*
X279874Y124696D02*
Y126664D01*
Y128633D02*
Y130601D01*
Y132570D02*
Y134538D01*
Y136507D02*
Y138475D01*
Y140444D02*
Y142412D01*
Y144381D02*
Y146349D01*
Y148318D02*
Y150286D01*
Y152255D02*
Y154223D01*
Y156192D02*
Y158160D01*
Y160129D02*
Y162097D01*
Y164066D02*
Y166034D01*
X280267Y124647D02*
Y126664D01*
Y128633D02*
Y130650D01*
Y132521D02*
Y134538D01*
Y136507D02*
Y138524D01*
Y140395D02*
Y142412D01*
Y144381D02*
Y146398D01*
Y148269D02*
Y150286D01*
Y152255D02*
Y154272D01*
Y156143D02*
Y158160D01*
Y160129D02*
Y162146D01*
Y164017D02*
Y166034D01*
X280661Y117026D02*
Y126664D01*
Y128633D02*
Y134538D01*
Y136507D02*
Y142412D01*
Y144381D02*
Y150286D01*
Y152255D02*
Y158160D01*
Y160129D02*
Y166034D01*
X281055Y116710D02*
Y126664D01*
Y128633D02*
Y134538D01*
Y136507D02*
Y142412D01*
Y144381D02*
Y150286D01*
Y152255D02*
Y158160D01*
Y160129D02*
Y166034D01*
X281448Y116625D02*
Y126664D01*
Y128633D02*
Y134538D01*
Y136507D02*
Y142412D01*
Y144381D02*
Y150286D01*
Y152255D02*
Y158160D01*
Y160129D02*
Y166034D01*
X281842Y116708D02*
Y126581D01*
Y128716D02*
Y134455D01*
Y136590D02*
Y142329D01*
Y144464D02*
Y150203D01*
Y152338D02*
Y158077D01*
Y160212D02*
Y165951D01*
X282236Y117023D02*
Y126266D01*
Y129030D02*
Y134140D01*
Y136904D02*
Y142014D01*
Y144779D02*
Y149888D01*
Y152653D02*
Y157762D01*
Y160527D02*
Y165636D01*
G54D92*
X268850Y165050D03*
G54D93*
X238175Y165550D03*
X241325D03*
X245750Y161975D03*
Y165125D03*
X261750D03*
Y161975D03*
X257750Y165125D03*
Y161975D03*
X253750Y165150D03*
X249750D03*
X233750Y161550D03*
Y165550D03*
X237750Y157550D03*
Y161550D03*
G54D96*
X234897Y170850D03*
X240803D03*
X155597Y159350D03*
X161503D03*
X199150Y201203D03*
Y195297D03*
X209197Y199050D03*
X215103D03*
X188950Y201303D03*
Y195397D03*
X223350Y187197D03*
Y193103D03*
X112550Y89603D03*
Y83697D03*
X125050Y89503D03*
Y83597D03*
X118350Y89503D03*
Y83597D03*
X165697Y96750D03*
X171603D03*
X165697Y90950D03*
X171603D03*
X171550Y78697D03*
Y84603D03*
X120650Y174497D03*
Y180403D03*
X98497Y173250D03*
X104403D03*
X98497Y180450D03*
X104403D03*
X225750Y131097D03*
Y137003D03*
X88003Y130750D03*
X82097D03*
X88103Y124850D03*
X82197D03*
X112950Y62503D03*
Y56597D03*
X104103Y93750D03*
X98197D03*
X136097Y101250D03*
X142003D03*
X164503Y65850D03*
X158597D03*
X165750Y84603D03*
Y78697D03*
X158597Y71550D03*
X164503D03*
X111697Y166350D03*
X117603D03*
X63103Y191250D03*
X57197D03*
X134603Y192050D03*
X128697D03*
X50750Y161397D03*
Y167303D03*
X127450Y174797D03*
Y180703D03*
X211050Y46503D03*
Y40597D03*
X169350Y31297D03*
Y37203D03*
X144103Y132450D03*
X138197D03*
X144103Y137850D03*
X138197D03*
X204550Y84603D03*
Y78697D03*
X243097Y150450D03*
X249003D03*
X243097Y156250D03*
X249003D03*
X144603Y145650D03*
X138697D03*
X139197Y163250D03*
X145103D03*
X70950Y167203D03*
Y161297D03*
X160103Y151150D03*
X154197D03*
X172497Y138550D03*
X178403D03*
G54D99*
X242245Y144071D03*
X249331D03*
X102655Y130829D03*
X95569D03*
X102655Y124729D03*
X95569D03*
X105155Y166329D03*
X98069D03*
X60650Y169981D03*
X56910Y161319D03*
X64390D03*
X60650Y176419D03*
X64390Y185081D03*
X56910D03*
G54D100*
X127100Y200750D03*
X134600D03*
X130850Y209450D03*
X117600Y216850D03*
X110100D03*
X113850Y208150D03*
X109400Y192450D03*
X116900D03*
X113150Y201150D03*
G54D101*
X161403Y164650D03*
X155497D03*
Y170450D03*
X161403D03*
G54D103*
X113650Y174497D03*
Y180403D03*
G54D104*
X53305Y114150D03*
X60195D03*
G54D105*
X99859Y192950D03*
X88441D03*
G54D106*
X185850Y105050D03*
Y110463D03*
X181550Y46150D03*
Y40737D03*
X46250Y137950D03*
Y132537D03*
G54D107*
X185826Y115227D03*
Y120227D03*
X163826D03*
Y115227D03*
Y110227D03*
Y105227D03*
X181574Y35973D03*
Y30973D03*
X203574D03*
Y35973D03*
Y40973D03*
Y45973D03*
X46274Y127773D03*
Y122773D03*
X68274D03*
Y127773D03*
Y132773D03*
Y137773D03*
G54D108*
X98647Y55764D03*
Y62457D03*
Y69150D03*
Y75843D03*
Y82536D03*
G54D110*
X201875Y91852D03*
X204434D03*
X206993D03*
X209552D03*
X212111D03*
X214670D03*
X217230D03*
X219789D03*
X222348D03*
X224907D03*
X227466D03*
X230025D03*
Y117048D03*
X227466D03*
X224907D03*
X222348D03*
X219789D03*
X217230D03*
X214670D03*
X212111D03*
X209552D03*
X206993D03*
X204434D03*
X201875D03*
G54D111*
X198871Y186450D03*
X189029D03*
G54D112*
X208219Y186904D03*
X216881D03*
Y193596D03*
X208219D03*
X146181Y157796D03*
X137519D03*
Y151104D03*
X146181D03*
G54D113*
X86670Y205350D03*
X101630D03*
G54D114*
X146873Y180949D03*
Y205358D03*
G54D115*
X112145Y228650D03*
X136555D03*
X155061Y215599D03*
X179470D03*
G54D116*
X199945Y167511D03*
Y165937D03*
Y164362D03*
Y162787D03*
Y161212D03*
Y159637D03*
Y158063D03*
Y156488D03*
Y154913D03*
Y153338D03*
Y151763D03*
Y150189D03*
X224355D03*
Y151763D03*
Y153338D03*
Y154913D03*
Y156488D03*
Y158063D03*
Y159637D03*
Y161212D03*
Y162787D03*
Y164362D03*
Y165937D03*
Y167511D03*
G54D117*
X203489Y146645D03*
X205063D03*
X206638D03*
X208213D03*
X209788D03*
X211363D03*
X212937D03*
X214512D03*
X216087D03*
X217662D03*
X219237D03*
X220811D03*
Y171055D03*
X219237D03*
X217662D03*
X216087D03*
X214512D03*
X212937D03*
X211363D03*
X209788D03*
X208213D03*
X206638D03*
X205063D03*
X203489D03*
G54D118*
X212150Y158850D03*
G54D166*
X136150Y94650D03*
Y89650D03*
Y84650D03*
Y79650D03*
X157750D03*
Y84650D03*
Y89650D03*
Y94650D03*
G54D167*
X146950Y87150D03*
G54D168*
X134550Y69750D03*
Y45950D03*
G74*
X0Y0D02*
M02*
